<svg xmlns="http://www.w3.org/2000/svg" width="1160" height="504" viewBox="0 0 1160 504" role="img" aria-label="Andon board">
<style>
text { font-family: Consolas, 'Courier New', monospace; font-size: 17px; }
.hd { fill: #8b949e; font-size: 14px; letter-spacing: 2px; }
.name { fill: #e6edf3; }
.dim { fill: #8b949e; }
.st { font-size: 15px; letter-spacing: 1px; }
.tb { fill: #8b949e; font-size: 12px; }
</style>
<rect x="0" y="0" width="1160" height="504" rx="12" fill="#0d1117" stroke="#30363d"/>
<text x="28" y="44" class="hd">LINE STATUS</text>
<text x="1132" y="44" class="hd" text-anchor="end">BHANKE-LAB</text>
<line x1="28" y1="64" x2="1132" y2="64" stroke="#30363d"/>
<circle cx="40" cy="100" r="13" fill="#3fb950" opacity="0.25"></circle>
<circle cx="40" cy="100" r="7" fill="#3fb950"/>
<text x="62" y="106" class="name">.github</text>
<text x="300" y="106" class="dim">This page, self monitor</text>
<rect x="770" y="108" width="4" height="1" fill="#3fb950" opacity="0.7"/>
<rect x="775" y="108" width="4" height="1" fill="#3fb950" opacity="0.7"/>
<rect x="780" y="108" width="4" height="1" fill="#3fb950" opacity="0.7"/>
<rect x="785" y="108" width="4" height="1" fill="#3fb950" opacity="0.7"/>
<rect x="790" y="108" width="4" height="1" fill="#3fb950" opacity="0.7"/>
<rect x="795" y="108" width="4" height="1" fill="#3fb950" opacity="0.7"/>
<rect x="800" y="108" width="4" height="1" fill="#3fb950" opacity="0.7"/>
<rect x="805" y="108" width="4" height="1" fill="#3fb950" opacity="0.7"/>
<rect x="810" y="108" width="4" height="1" fill="#3fb950" opacity="0.7"/>
<rect x="815" y="108" width="4" height="1" fill="#3fb950" opacity="0.7"/>
<rect x="820" y="108" width="4" height="1" fill="#3fb950" opacity="0.7"/>
<rect x="825" y="108" width="4" height="1" fill="#3fb950" opacity="0.7"/>
<rect x="830" y="108" width="4" height="1" fill="#3fb950" opacity="0.7"/>
<rect x="835" y="108" width="4" height="1" fill="#3fb950" opacity="0.7"/>
<rect x="840" y="108" width="4" height="1" fill="#3fb950" opacity="0.7"/>
<rect x="845" y="108" width="4" height="1" fill="#3fb950" opacity="0.7"/>
<rect x="850" y="108" width="4" height="1" fill="#3fb950" opacity="0.7"/>
<rect x="855" y="108" width="4" height="1" fill="#3fb950" opacity="0.7"/>
<rect x="860" y="108" width="4" height="1" fill="#3fb950" opacity="0.7"/>
<rect x="865" y="108" width="4" height="1" fill="#3fb950" opacity="0.7"/>
<rect x="870" y="108" width="4" height="1" fill="#3fb950" opacity="0.7"/>
<rect x="875" y="108" width="4" height="1" fill="#3fb950" opacity="0.7"/>
<rect x="880" y="108" width="4" height="1" fill="#3fb950" opacity="0.7"/>
<rect x="885" y="108" width="4" height="1" fill="#3fb950" opacity="0.7"/>
<rect x="890" y="91" width="4" height="18" fill="#3fb950" opacity="0.7"/>
<rect x="895" y="96" width="4" height="13" fill="#3fb950" opacity="0.7"/>
<text x="920" y="106" class="st" fill="#3fb950">IN SERVICE</text>
<text x="1132" y="106" class="dim" text-anchor="end">AVAIL 88%</text>
<circle cx="40" cy="144" r="13" fill="#3fb950" opacity="0.25"></circle>
<circle cx="40" cy="144" r="7" fill="#3fb950"/>
<text x="62" y="150" class="name">TENON</text>
<text x="300" y="150" class="dim">Translator engine for native optimizer no...</text>
<rect x="770" y="152" width="4" height="1" fill="#3fb950" opacity="0.7"/>
<rect x="775" y="152" width="4" height="1" fill="#3fb950" opacity="0.7"/>
<rect x="780" y="152" width="4" height="1" fill="#3fb950" opacity="0.7"/>
<rect x="785" y="152" width="4" height="1" fill="#3fb950" opacity="0.7"/>
<rect x="790" y="152" width="4" height="1" fill="#3fb950" opacity="0.7"/>
<rect x="795" y="152" width="4" height="1" fill="#3fb950" opacity="0.7"/>
<rect x="800" y="152" width="4" height="1" fill="#3fb950" opacity="0.7"/>
<rect x="805" y="152" width="4" height="1" fill="#3fb950" opacity="0.7"/>
<rect x="810" y="152" width="4" height="1" fill="#3fb950" opacity="0.7"/>
<rect x="815" y="152" width="4" height="1" fill="#3fb950" opacity="0.7"/>
<rect x="820" y="152" width="4" height="1" fill="#3fb950" opacity="0.7"/>
<rect x="825" y="152" width="4" height="1" fill="#3fb950" opacity="0.7"/>
<rect x="830" y="152" width="4" height="1" fill="#3fb950" opacity="0.7"/>
<rect x="835" y="152" width="4" height="1" fill="#3fb950" opacity="0.7"/>
<rect x="840" y="143" width="4" height="10" fill="#3fb950" opacity="0.7"/>
<rect x="845" y="135" width="4" height="18" fill="#3fb950" opacity="0.7"/>
<rect x="850" y="147" width="4" height="6" fill="#3fb950" opacity="0.7"/>
<rect x="855" y="151" width="4" height="2" fill="#3fb950" opacity="0.7"/>
<rect x="860" y="152" width="4" height="1" fill="#3fb950" opacity="0.7"/>
<rect x="865" y="152" width="4" height="1" fill="#3fb950" opacity="0.7"/>
<rect x="870" y="150" width="4" height="3" fill="#3fb950" opacity="0.7"/>
<rect x="875" y="152" width="4" height="1" fill="#3fb950" opacity="0.7"/>
<rect x="880" y="138" width="4" height="15" fill="#3fb950" opacity="0.7"/>
<rect x="885" y="142" width="4" height="11" fill="#3fb950" opacity="0.7"/>
<rect x="890" y="150" width="4" height="3" fill="#3fb950" opacity="0.7"/>
<rect x="895" y="150" width="4" height="3" fill="#3fb950" opacity="0.7"/>
<text x="920" y="150" class="st" fill="#3fb950">IN SERVICE</text>
<text x="1132" y="150" class="dim" text-anchor="end">AVAIL 100%</text>
<circle cx="40" cy="188" r="13" fill="#3fb950" opacity="0.25"></circle>
<circle cx="40" cy="188" r="7" fill="#3fb950"/>
<text x="62" y="194" class="name">trimtab</text>
<text x="300" y="194" class="dim">Price modeling for the right trim decisions</text>
<rect x="770" y="196" width="4" height="1" fill="#3fb950" opacity="0.7"/>
<rect x="775" y="196" width="4" height="1" fill="#3fb950" opacity="0.7"/>
<rect x="780" y="196" width="4" height="1" fill="#3fb950" opacity="0.7"/>
<rect x="785" y="196" width="4" height="1" fill="#3fb950" opacity="0.7"/>
<rect x="790" y="196" width="4" height="1" fill="#3fb950" opacity="0.7"/>
<rect x="795" y="196" width="4" height="1" fill="#3fb950" opacity="0.7"/>
<rect x="800" y="196" width="4" height="1" fill="#3fb950" opacity="0.7"/>
<rect x="805" y="196" width="4" height="1" fill="#3fb950" opacity="0.7"/>
<rect x="810" y="196" width="4" height="1" fill="#3fb950" opacity="0.7"/>
<rect x="815" y="196" width="4" height="1" fill="#3fb950" opacity="0.7"/>
<rect x="820" y="196" width="4" height="1" fill="#3fb950" opacity="0.7"/>
<rect x="825" y="196" width="4" height="1" fill="#3fb950" opacity="0.7"/>
<rect x="830" y="196" width="4" height="1" fill="#3fb950" opacity="0.7"/>
<rect x="835" y="196" width="4" height="1" fill="#3fb950" opacity="0.7"/>
<rect x="840" y="196" width="4" height="1" fill="#3fb950" opacity="0.7"/>
<rect x="845" y="196" width="4" height="1" fill="#3fb950" opacity="0.7"/>
<rect x="850" y="196" width="4" height="1" fill="#3fb950" opacity="0.7"/>
<rect x="855" y="196" width="4" height="1" fill="#3fb950" opacity="0.7"/>
<rect x="860" y="196" width="4" height="1" fill="#3fb950" opacity="0.7"/>
<rect x="865" y="196" width="4" height="1" fill="#3fb950" opacity="0.7"/>
<rect x="870" y="196" width="4" height="1" fill="#3fb950" opacity="0.7"/>
<rect x="875" y="196" width="4" height="1" fill="#3fb950" opacity="0.7"/>
<rect x="880" y="196" width="4" height="1" fill="#3fb950" opacity="0.7"/>
<rect x="885" y="179" width="4" height="18" fill="#3fb950" opacity="0.7"/>
<rect x="890" y="195" width="4" height="2" fill="#3fb950" opacity="0.7"/>
<rect x="895" y="196" width="4" height="1" fill="#3fb950" opacity="0.7"/>
<text x="920" y="194" class="st" fill="#3fb950">IN SERVICE</text>
<text x="1132" y="194" class="dim" text-anchor="end">AVAIL 100%</text>
<circle cx="40" cy="232" r="13" fill="#3fb950" opacity="0.25"></circle>
<circle cx="40" cy="232" r="7" fill="#3fb950"/>
<text x="62" y="238" class="name">paper-route</text>
<text x="300" y="238" class="dim">Scheduled BI reports to dashboards</text>
<rect x="770" y="240" width="4" height="1" fill="#3fb950" opacity="0.7"/>
<rect x="775" y="240" width="4" height="1" fill="#3fb950" opacity="0.7"/>
<rect x="780" y="240" width="4" height="1" fill="#3fb950" opacity="0.7"/>
<rect x="785" y="240" width="4" height="1" fill="#3fb950" opacity="0.7"/>
<rect x="790" y="240" width="4" height="1" fill="#3fb950" opacity="0.7"/>
<rect x="795" y="240" width="4" height="1" fill="#3fb950" opacity="0.7"/>
<rect x="800" y="240" width="4" height="1" fill="#3fb950" opacity="0.7"/>
<rect x="805" y="240" width="4" height="1" fill="#3fb950" opacity="0.7"/>
<rect x="810" y="240" width="4" height="1" fill="#3fb950" opacity="0.7"/>
<rect x="815" y="240" width="4" height="1" fill="#3fb950" opacity="0.7"/>
<rect x="820" y="240" width="4" height="1" fill="#3fb950" opacity="0.7"/>
<rect x="825" y="240" width="4" height="1" fill="#3fb950" opacity="0.7"/>
<rect x="830" y="240" width="4" height="1" fill="#3fb950" opacity="0.7"/>
<rect x="835" y="240" width="4" height="1" fill="#3fb950" opacity="0.7"/>
<rect x="840" y="223" width="4" height="18" fill="#3fb950" opacity="0.7"/>
<rect x="845" y="240" width="4" height="1" fill="#3fb950" opacity="0.7"/>
<rect x="850" y="240" width="4" height="1" fill="#3fb950" opacity="0.7"/>
<rect x="855" y="240" width="4" height="1" fill="#3fb950" opacity="0.7"/>
<rect x="860" y="240" width="4" height="1" fill="#3fb950" opacity="0.7"/>
<rect x="865" y="240" width="4" height="1" fill="#3fb950" opacity="0.7"/>
<rect x="870" y="240" width="4" height="1" fill="#3fb950" opacity="0.7"/>
<rect x="875" y="240" width="4" height="1" fill="#3fb950" opacity="0.7"/>
<rect x="880" y="240" width="4" height="1" fill="#3fb950" opacity="0.7"/>
<rect x="885" y="226" width="4" height="15" fill="#3fb950" opacity="0.7"/>
<rect x="890" y="240" width="4" height="1" fill="#3fb950" opacity="0.7"/>
<rect x="895" y="238" width="4" height="3" fill="#3fb950" opacity="0.7"/>
<text x="920" y="238" class="st" fill="#3fb950">IN SERVICE</text>
<text x="1132" y="238" class="dim" text-anchor="end">AVAIL --</text>
<circle cx="40" cy="276" r="13" fill="#3fb950" opacity="0.25"></circle>
<circle cx="40" cy="276" r="7" fill="#3fb950"/>
<text x="62" y="282" class="name">notion-morning-print</text>
<text x="300" y="282" class="dim">Automated printer from Notion database</text>
<rect x="770" y="284" width="4" height="1" fill="#3fb950" opacity="0.7"/>
<rect x="775" y="284" width="4" height="1" fill="#3fb950" opacity="0.7"/>
<rect x="780" y="284" width="4" height="1" fill="#3fb950" opacity="0.7"/>
<rect x="785" y="284" width="4" height="1" fill="#3fb950" opacity="0.7"/>
<rect x="790" y="284" width="4" height="1" fill="#3fb950" opacity="0.7"/>
<rect x="795" y="284" width="4" height="1" fill="#3fb950" opacity="0.7"/>
<rect x="800" y="284" width="4" height="1" fill="#3fb950" opacity="0.7"/>
<rect x="805" y="284" width="4" height="1" fill="#3fb950" opacity="0.7"/>
<rect x="810" y="284" width="4" height="1" fill="#3fb950" opacity="0.7"/>
<rect x="815" y="284" width="4" height="1" fill="#3fb950" opacity="0.7"/>
<rect x="820" y="284" width="4" height="1" fill="#3fb950" opacity="0.7"/>
<rect x="825" y="284" width="4" height="1" fill="#3fb950" opacity="0.7"/>
<rect x="830" y="284" width="4" height="1" fill="#3fb950" opacity="0.7"/>
<rect x="835" y="284" width="4" height="1" fill="#3fb950" opacity="0.7"/>
<rect x="840" y="284" width="4" height="1" fill="#3fb950" opacity="0.7"/>
<rect x="845" y="284" width="4" height="1" fill="#3fb950" opacity="0.7"/>
<rect x="850" y="284" width="4" height="1" fill="#3fb950" opacity="0.7"/>
<rect x="855" y="284" width="4" height="1" fill="#3fb950" opacity="0.7"/>
<rect x="860" y="284" width="4" height="1" fill="#3fb950" opacity="0.7"/>
<rect x="865" y="284" width="4" height="1" fill="#3fb950" opacity="0.7"/>
<rect x="870" y="284" width="4" height="1" fill="#3fb950" opacity="0.7"/>
<rect x="875" y="284" width="4" height="1" fill="#3fb950" opacity="0.7"/>
<rect x="880" y="267" width="4" height="18" fill="#3fb950" opacity="0.7"/>
<rect x="885" y="282" width="4" height="3" fill="#3fb950" opacity="0.7"/>
<rect x="890" y="284" width="4" height="1" fill="#3fb950" opacity="0.7"/>
<rect x="895" y="284" width="4" height="1" fill="#3fb950" opacity="0.7"/>
<text x="920" y="282" class="st" fill="#3fb950">IN SERVICE</text>
<text x="1132" y="282" class="dim" text-anchor="end">AVAIL 100%</text>
<circle cx="40" cy="320" r="13" fill="#3fb950" opacity="0.25"></circle>
<circle cx="40" cy="320" r="7" fill="#3fb950"/>
<text x="62" y="326" class="name">local-inventory-scanner</text>
<text x="300" y="326" class="dim">Low cost offline inventory scanner</text>
<rect x="770" y="328" width="4" height="1" fill="#3fb950" opacity="0.7"/>
<rect x="775" y="328" width="4" height="1" fill="#3fb950" opacity="0.7"/>
<rect x="780" y="328" width="4" height="1" fill="#3fb950" opacity="0.7"/>
<rect x="785" y="328" width="4" height="1" fill="#3fb950" opacity="0.7"/>
<rect x="790" y="328" width="4" height="1" fill="#3fb950" opacity="0.7"/>
<rect x="795" y="328" width="4" height="1" fill="#3fb950" opacity="0.7"/>
<rect x="800" y="328" width="4" height="1" fill="#3fb950" opacity="0.7"/>
<rect x="805" y="328" width="4" height="1" fill="#3fb950" opacity="0.7"/>
<rect x="810" y="328" width="4" height="1" fill="#3fb950" opacity="0.7"/>
<rect x="815" y="328" width="4" height="1" fill="#3fb950" opacity="0.7"/>
<rect x="820" y="328" width="4" height="1" fill="#3fb950" opacity="0.7"/>
<rect x="825" y="328" width="4" height="1" fill="#3fb950" opacity="0.7"/>
<rect x="830" y="328" width="4" height="1" fill="#3fb950" opacity="0.7"/>
<rect x="835" y="328" width="4" height="1" fill="#3fb950" opacity="0.7"/>
<rect x="840" y="311" width="4" height="18" fill="#3fb950" opacity="0.7"/>
<rect x="845" y="328" width="4" height="1" fill="#3fb950" opacity="0.7"/>
<rect x="850" y="328" width="4" height="1" fill="#3fb950" opacity="0.7"/>
<rect x="855" y="328" width="4" height="1" fill="#3fb950" opacity="0.7"/>
<rect x="860" y="328" width="4" height="1" fill="#3fb950" opacity="0.7"/>
<rect x="865" y="328" width="4" height="1" fill="#3fb950" opacity="0.7"/>
<rect x="870" y="328" width="4" height="1" fill="#3fb950" opacity="0.7"/>
<rect x="875" y="328" width="4" height="1" fill="#3fb950" opacity="0.7"/>
<rect x="880" y="328" width="4" height="1" fill="#3fb950" opacity="0.7"/>
<rect x="885" y="320" width="4" height="9" fill="#3fb950" opacity="0.7"/>
<rect x="890" y="328" width="4" height="1" fill="#3fb950" opacity="0.7"/>
<rect x="895" y="325" width="4" height="4" fill="#3fb950" opacity="0.7"/>
<text x="920" y="326" class="st" fill="#3fb950">IN SERVICE</text>
<text x="1132" y="326" class="dim" text-anchor="end">AVAIL --</text>
<circle cx="40" cy="364" r="13" fill="#d29922" opacity="0.25"><animate attributeName="opacity" values="0.25;0.8;0.25" dur="2s" repeatCount="indefinite"/></circle>
<circle cx="40" cy="364" r="7" fill="#d29922"/>
<text x="62" y="370" class="name">garmin-notion</text>
<text x="300" y="370" class="dim">Garmin data into training log</text>
<rect x="770" y="372" width="4" height="1" fill="#d29922" opacity="0.7"/>
<rect x="775" y="371" width="4" height="2" fill="#d29922" opacity="0.7"/>
<rect x="780" y="370" width="4" height="3" fill="#d29922" opacity="0.7"/>
<rect x="785" y="372" width="4" height="1" fill="#d29922" opacity="0.7"/>
<rect x="790" y="358" width="4" height="15" fill="#d29922" opacity="0.7"/>
<rect x="795" y="370" width="4" height="3" fill="#d29922" opacity="0.7"/>
<rect x="800" y="372" width="4" height="1" fill="#d29922" opacity="0.7"/>
<rect x="805" y="372" width="4" height="1" fill="#d29922" opacity="0.7"/>
<rect x="810" y="371" width="4" height="2" fill="#d29922" opacity="0.7"/>
<rect x="815" y="372" width="4" height="1" fill="#d29922" opacity="0.7"/>
<rect x="820" y="371" width="4" height="2" fill="#d29922" opacity="0.7"/>
<rect x="825" y="371" width="4" height="2" fill="#d29922" opacity="0.7"/>
<rect x="830" y="372" width="4" height="1" fill="#d29922" opacity="0.7"/>
<rect x="835" y="372" width="4" height="1" fill="#d29922" opacity="0.7"/>
<rect x="840" y="355" width="4" height="18" fill="#d29922" opacity="0.7"/>
<rect x="845" y="367" width="4" height="6" fill="#d29922" opacity="0.7"/>
<rect x="850" y="369" width="4" height="4" fill="#d29922" opacity="0.7"/>
<rect x="855" y="372" width="4" height="1" fill="#d29922" opacity="0.7"/>
<rect x="860" y="372" width="4" height="1" fill="#d29922" opacity="0.7"/>
<rect x="865" y="372" width="4" height="1" fill="#d29922" opacity="0.7"/>
<rect x="870" y="372" width="4" height="1" fill="#d29922" opacity="0.7"/>
<rect x="875" y="372" width="4" height="1" fill="#d29922" opacity="0.7"/>
<rect x="880" y="371" width="4" height="2" fill="#d29922" opacity="0.7"/>
<rect x="885" y="372" width="4" height="1" fill="#d29922" opacity="0.7"/>
<rect x="890" y="366" width="4" height="7" fill="#d29922" opacity="0.7"/>
<rect x="895" y="371" width="4" height="2" fill="#d29922" opacity="0.7"/>
<text x="920" y="370" class="st" fill="#d29922">PM DUE</text>
<text x="1132" y="370" class="dim" text-anchor="end">AVAIL 72%</text>
<line x1="28" y1="396" x2="1132" y2="396" stroke="#30363d"/>
<text x="28" y="428" class="dim">LAST INSPECTION 2026-07-21 11:44 UTC</text>
<text x="28" y="454" class="dim">DAYS SINCE THE LAST MANUAL PROCESS WAS ELIMINATED: 13</text>
<rect x="832" y="406" width="300" height="72" fill="none" stroke="#30363d"/>
<line x1="832" y1="430" x2="1132" y2="430" stroke="#30363d"/>
<line x1="832" y1="454" x2="1132" y2="454" stroke="#30363d"/>
<line x1="982" y1="406" x2="982" y2="478" stroke="#30363d"/>
<text x="840" y="423" class="tb">DRAWN BY: andon-bot</text>
<text x="990" y="423" class="tb">REV: cabea53</text>
<text x="840" y="447" class="tb">DATE: 2026-07-21</text>
<text x="990" y="447" class="tb">SHEET 1 OF 1</text>
<text x="840" y="471" class="tb">CHECKED BY: nobody</text>
<text x="990" y="471" class="tb">SCALE: NTS</text>
</svg>