<svg xmlns="http://www.w3.org/2000/svg" viewBox="0 0 1160 280" width="1160" height="280" shape-rendering="crispEdges" role="img" aria-label="Pixel bike winds through big mountains toward a sunrise pass, gets a flat, fixes it with lever, tube, and pump, and rides on."><title>roll, break, fix, roll again</title><rect x="0" y="0" width="1160" height="14" fill="#141a44"/><rect x="0" y="14" width="1160" height="14" fill="#232457"/><rect x="0" y="28" width="1160" height="14" fill="#3c2f6b"/><rect x="0" y="42" width="1160" height="14" fill="#63407c"/><rect x="0" y="56" width="1160" height="14" fill="#95517f"/><rect x="0" y="70" width="1160" height="14" fill="#c66a70"/><rect x="0" y="84" width="1160" height="14" fill="#e98d5a"/><rect x="0" y="98" width="1160" height="14" fill="#f7b96b"/><rect x="90" y="12" width="4" height="4" fill="#ffffff"><animate attributeName="opacity" calcMode="discrete" values="1;0" keyTimes="0;0.5" dur="1.4s" repeatCount="indefinite"/></rect><rect x="210" y="30" width="4" height="4" fill="#ffffff"><animate attributeName="opacity" calcMode="discrete" values="1;0" keyTimes="0;0.5" dur="1.8s" repeatCount="indefinite"/></rect><rect x="700" y="8" width="4" height="4" fill="#ffffff"><animate attributeName="opacity" calcMode="discrete" values="1;0" keyTimes="0;0.5" dur="2.2s" repeatCount="indefinite"/></rect><rect x="930" y="22" width="4" height="4" fill="#ffffff"><animate attributeName="opacity" calcMode="discrete" values="1;0" keyTimes="0;0.5" dur="2.6s" repeatCount="indefinite"/></rect><rect x="1080" y="36" width="4" height="4" fill="#ffffff"><animate attributeName="opacity" calcMode="discrete" values="1;0" keyTimes="0;0.5" dur="3s" repeatCount="indefinite"/></rect><rect x="0" y="102" width="48" height="10" fill="#3a3160"/><rect x="12" y="96" width="24" height="6" fill="#3a3160"/><rect x="18" y="92" width="12" height="4" fill="#4b4278"/><rect x="48" y="98" width="32" height="14" fill="#3a3160"/><rect x="56" y="92" width="16" height="6" fill="#3a3160"/><rect x="60" y="88" width="8" height="4" fill="#4b4278"/><rect x="80" y="90" width="56" height="22" fill="#3a3160"/><rect x="94" y="84" width="28" height="6" fill="#3a3160"/><rect x="101" y="80" width="14" height="4" fill="#4b4278"/><rect x="136" y="94" width="40" height="18" fill="#3a3160"/><rect x="146" y="88" width="20" height="6" fill="#3a3160"/><rect x="151" y="84" width="10" height="4" fill="#4b4278"/><rect x="176" y="104" width="64" height="8" fill="#3a3160"/><rect x="192" y="98" width="32" height="6" fill="#3a3160"/><rect x="200" y="94" width="16" height="4" fill="#4b4278"/><rect x="240" y="100" width="36" height="12" fill="#3a3160"/><rect x="249" y="94" width="18" height="6" fill="#3a3160"/><rect x="253.5" y="90" width="9" height="4" fill="#4b4278"/><rect x="276" y="86" width="52" height="26" fill="#3a3160"/><rect x="289" y="80" width="26" height="6" fill="#3a3160"/><rect x="295.5" y="76" width="13" height="4" fill="#4b4278"/><rect x="328" y="92" width="44" height="20" fill="#3a3160"/><rect x="339" y="86" width="22" height="6" fill="#3a3160"/><rect x="344.5" y="82" width="11" height="4" fill="#4b4278"/><rect x="372" y="102" width="60" height="10" fill="#3a3160"/><rect x="387" y="96" width="30" height="6" fill="#3a3160"/><rect x="394.5" y="92" width="15" height="4" fill="#4b4278"/><rect x="432" y="96" width="32" height="16" fill="#3a3160"/><rect x="440" y="90" width="16" height="6" fill="#3a3160"/><rect x="444" y="86" width="8" height="4" fill="#4b4278"/><rect x="464" y="82" width="48" height="30" fill="#3a3160"/><rect x="476" y="76" width="24" height="6" fill="#3a3160"/><rect x="482" y="72" width="12" height="4" fill="#4b4278"/><rect x="512" y="88" width="56" height="24" fill="#3a3160"/><rect x="526" y="82" width="28" height="6" fill="#3a3160"/><rect x="533" y="78" width="14" height="4" fill="#4b4278"/><rect x="568" y="98" width="36" height="14" fill="#3a3160"/><rect x="577" y="92" width="18" height="6" fill="#3a3160"/><rect x="581.5" y="88" width="9" height="4" fill="#4b4278"/><rect x="604" y="104" width="64" height="8" fill="#3a3160"/><rect x="620" y="98" width="32" height="6" fill="#3a3160"/><rect x="628" y="94" width="16" height="4" fill="#4b4278"/><rect x="668" y="94" width="40" height="18" fill="#3a3160"/><rect x="678" y="88" width="20" height="6" fill="#3a3160"/><rect x="683" y="84" width="10" height="4" fill="#4b4278"/><rect x="708" y="84" width="52" height="28" fill="#3a3160"/><rect x="721" y="78" width="26" height="6" fill="#3a3160"/><rect x="727.5" y="74" width="13" height="4" fill="#4b4278"/><rect x="760" y="96" width="32" height="16" fill="#3a3160"/><rect x="768" y="90" width="16" height="6" fill="#3a3160"/><rect x="772" y="86" width="8" height="4" fill="#4b4278"/><rect x="792" y="102" width="60" height="10" fill="#3a3160"/><rect x="807" y="96" width="30" height="6" fill="#3a3160"/><rect x="814.5" y="92" width="15" height="4" fill="#4b4278"/><rect x="852" y="90" width="44" height="22" fill="#3a3160"/><rect x="863" y="84" width="22" height="6" fill="#3a3160"/><rect x="868.5" y="80" width="11" height="4" fill="#4b4278"/><rect x="896" y="100" width="56" height="12" fill="#3a3160"/><rect x="910" y="94" width="28" height="6" fill="#3a3160"/><rect x="917" y="90" width="14" height="4" fill="#4b4278"/><rect x="952" y="102" width="48" height="10" fill="#3a3160"/><rect x="964" y="96" width="24" height="6" fill="#3a3160"/><rect x="970" y="92" width="12" height="4" fill="#4b4278"/><rect x="1000" y="98" width="32" height="14" fill="#3a3160"/><rect x="1008" y="92" width="16" height="6" fill="#3a3160"/><rect x="1012" y="88" width="8" height="4" fill="#4b4278"/><rect x="1032" y="90" width="56" height="22" fill="#3a3160"/><rect x="1046" y="84" width="28" height="6" fill="#3a3160"/><rect x="1053" y="80" width="14" height="4" fill="#4b4278"/><rect x="1088" y="94" width="40" height="18" fill="#3a3160"/><rect x="1098" y="88" width="20" height="6" fill="#3a3160"/><rect x="1103" y="84" width="10" height="4" fill="#4b4278"/><rect x="1128" y="104" width="64" height="8" fill="#3a3160"/><rect x="1144" y="98" width="32" height="6" fill="#3a3160"/><rect x="1152" y="94" width="16" height="4" fill="#4b4278"/><rect x="0" y="112" width="1160" height="8" fill="#7c9757"/><rect x="0" y="120" width="1160" height="10" fill="#7c9757"/><rect x="0" y="130" width="1160" height="12" fill="#688a4c"/><rect x="0" y="142" width="1160" height="16" fill="#688a4c"/><rect x="0" y="158" width="1160" height="20" fill="#547842"/><rect x="0" y="178" width="1160" height="26" fill="#547842"/><rect x="0" y="204" width="1160" height="34" fill="#436639"/><rect x="0" y="238" width="1160" height="42" fill="#436639"/><rect x="614" y="88" width="12" height="4" fill="#ffd98a"/><rect x="610" y="92" width="20" height="4" fill="#ffd98a"/><rect x="606" y="96" width="28" height="4" fill="#ffd98a"/><rect x="602" y="100" width="36" height="4" fill="#ffd98a"/><rect x="598" y="104" width="44" height="4" fill="#fff3c4"/><rect x="596" y="108" width="48" height="4" fill="#fff3c4"/><rect x="594" y="112" width="52" height="4" fill="#fff3c4"/><rect x="592" y="116" width="56" height="4" fill="#fff3c4"/><rect x="590" y="120" width="60" height="4" fill="#fff3c4"/><rect x="548" y="100" width="12" height="4" fill="#ffd98a"><animate attributeName="opacity" calcMode="discrete" values="1;0" keyTimes="0;0.5" dur="1.2s" repeatCount="indefinite"/></rect><rect x="664" y="100" width="12" height="4" fill="#ffd98a"><animate attributeName="opacity" calcMode="discrete" values="1;0" keyTimes="0;0.5" dur="1.2s" repeatCount="indefinite"/></rect><rect x="556" y="78" width="12" height="4" fill="#ffd98a"><animate attributeName="opacity" calcMode="discrete" values="1;0" keyTimes="0;0.5" dur="1.2s" repeatCount="indefinite"/></rect><rect x="660" y="78" width="12" height="4" fill="#ffd98a"><animate attributeName="opacity" calcMode="discrete" values="1;0" keyTimes="0;0.5" dur="1.2s" repeatCount="indefinite"/></rect><g transform="translate(536,168) scale(1.6)"><rect x="-4" y="-56" width="4" height="4" fill="#7d84a0"/><rect x="0" y="-56" width="4" height="4" fill="#a8adbf"/><rect x="-4" y="-56" width="8" height="4" fill="#f4f7fb"/><rect x="-4" y="-52" width="4" height="4" fill="#4e5570"/><rect x="0" y="-52" width="4" height="4" fill="#7d84a0"/><rect x="4" y="-52" width="4" height="4" fill="#a8adbf"/><rect x="-4" y="-52" width="8" height="4" fill="#f4f7fb"/><rect x="-8" y="-48" width="8" height="4" fill="#4e5570"/><rect x="0" y="-48" width="4" height="4" fill="#7d84a0"/><rect x="4" y="-48" width="4" height="4" fill="#a8adbf"/><rect x="-8" y="-48" width="16" height="4" fill="#f4f7fb"/><rect x="-12" y="-44" width="8" height="4" fill="#4e5570"/><rect x="-4" y="-44" width="4" height="4" fill="#7d84a0"/><rect x="0" y="-44" width="8" height="4" fill="#a8adbf"/><rect x="0" y="-44" width="8" height="4" fill="#f4f7fb"/><rect x="-12" y="-40" width="8" height="4" fill="#4e5570"/><rect x="-4" y="-40" width="8" height="4" fill="#7d84a0"/><rect x="4" y="-40" width="8" height="4" fill="#a8adbf"/><rect x="-8" y="-36" width="8" height="4" fill="#4e5570"/><rect x="0" y="-36" width="4" height="4" fill="#7d84a0"/><rect x="4" y="-36" width="8" height="4" fill="#a8adbf"/><rect x="-18" y="-32" width="16" height="4" fill="#4e5570"/><rect x="-2" y="-32" width="8" height="4" fill="#7d84a0"/><rect x="6" y="-32" width="12" height="4" fill="#a8adbf"/><rect x="-16" y="-28" width="12" height="4" fill="#4e5570"/><rect x="-4" y="-28" width="8" height="4" fill="#7d84a0"/><rect x="4" y="-28" width="12" height="4" fill="#a8adbf"/><rect x="-18" y="-24" width="16" height="4" fill="#4e5570"/><rect x="-2" y="-24" width="8" height="4" fill="#7d84a0"/><rect x="6" y="-24" width="16" height="4" fill="#a8adbf"/><rect x="-22" y="-20" width="16" height="4" fill="#4e5570"/><rect x="-6" y="-20" width="12" height="4" fill="#7d84a0"/><rect x="6" y="-20" width="16" height="4" fill="#a8adbf"/><rect x="-24" y="-16" width="20" height="4" fill="#4e5570"/><rect x="-4" y="-16" width="12" height="4" fill="#7d84a0"/><rect x="8" y="-16" width="16" height="4" fill="#a8adbf"/><rect x="-24" y="-12" width="20" height="4" fill="#4e5570"/><rect x="-4" y="-12" width="12" height="4" fill="#7d84a0"/><rect x="8" y="-12" width="20" height="4" fill="#a8adbf"/><rect x="-26" y="-8" width="20" height="4" fill="#4e5570"/><rect x="-6" y="-8" width="12" height="4" fill="#7d84a0"/><rect x="6" y="-8" width="20" height="4" fill="#a8adbf"/><rect x="-32" y="-4" width="24" height="4" fill="#4e5570"/><rect x="-8" y="-4" width="16" height="4" fill="#7d84a0"/><rect x="8" y="-4" width="24" height="4" fill="#a8adbf"/></g><g transform="translate(706,172) scale(1.8)"><rect x="10" y="-52" width="4" height="4" fill="#a8adbf"/><rect x="14" y="-52" width="4" height="4" fill="#7d84a0"/><rect x="10" y="-52" width="8" height="4" fill="#f4f7fb"/><rect x="10" y="-48" width="4" height="4" fill="#a8adbf"/><rect x="14" y="-48" width="4" height="4" fill="#7d84a0"/><rect x="10" y="-48" width="8" height="4" fill="#f4f7fb"/><rect x="10" y="-44" width="4" height="4" fill="#a8adbf"/><rect x="14" y="-44" width="4" height="4" fill="#7d84a0"/><rect x="18" y="-44" width="4" height="4" fill="#4e5570"/><rect x="10" y="-44" width="8" height="4" fill="#f4f7fb"/><rect x="-20" y="-40" width="4" height="4" fill="#a8adbf"/><rect x="-16" y="-40" width="4" height="4" fill="#7d84a0"/><rect x="6" y="-40" width="4" height="4" fill="#a8adbf"/><rect x="10" y="-40" width="4" height="4" fill="#7d84a0"/><rect x="14" y="-40" width="8" height="4" fill="#4e5570"/><rect x="-20" y="-40" width="8" height="4" fill="#f4f7fb"/><rect x="6" y="-40" width="8" height="4" fill="#f4f7fb"/><rect x="-22" y="-36" width="4" height="4" fill="#a8adbf"/><rect x="-18" y="-36" width="4" height="4" fill="#7d84a0"/><rect x="-14" y="-36" width="4" height="4" fill="#4e5570"/><rect x="4" y="-36" width="8" height="4" fill="#a8adbf"/><rect x="12" y="-36" width="4" height="4" fill="#7d84a0"/><rect x="16" y="-36" width="8" height="4" fill="#4e5570"/><rect x="-20" y="-36" width="8" height="4" fill="#f4f7fb"/><rect x="-20" y="-32" width="4" height="4" fill="#a8adbf"/><rect x="-16" y="-32" width="4" height="4" fill="#7d84a0"/><rect x="-12" y="-32" width="4" height="4" fill="#4e5570"/><rect x="6" y="-32" width="8" height="4" fill="#a8adbf"/><rect x="14" y="-32" width="4" height="4" fill="#7d84a0"/><rect x="18" y="-32" width="8" height="4" fill="#4e5570"/><rect x="-24" y="-32" width="16" height="4" fill="#f4f7fb"/><rect x="-26" y="-28" width="8" height="4" fill="#a8adbf"/><rect x="-18" y="-28" width="4" height="4" fill="#7d84a0"/><rect x="-14" y="-28" width="8" height="4" fill="#4e5570"/><rect x="0" y="-28" width="8" height="4" fill="#a8adbf"/><rect x="8" y="-28" width="8" height="4" fill="#7d84a0"/><rect x="16" y="-28" width="12" height="4" fill="#4e5570"/><rect x="-24" y="-28" width="8" height="4" fill="#f4f7fb"/><rect x="-30" y="-24" width="8" height="4" fill="#a8adbf"/><rect x="-22" y="-24" width="8" height="4" fill="#7d84a0"/><rect x="-14" y="-24" width="8" height="4" fill="#4e5570"/><rect x="-4" y="-24" width="12" height="4" fill="#a8adbf"/><rect x="8" y="-24" width="8" height="4" fill="#7d84a0"/><rect x="16" y="-24" width="12" height="4" fill="#4e5570"/><rect x="-28" y="-20" width="8" height="4" fill="#a8adbf"/><rect x="-20" y="-20" width="8" height="4" fill="#7d84a0"/><rect x="-12" y="-20" width="8" height="4" fill="#4e5570"/><rect x="-2" y="-20" width="12" height="4" fill="#a8adbf"/><rect x="10" y="-20" width="8" height="4" fill="#7d84a0"/><rect x="18" y="-20" width="12" height="4" fill="#4e5570"/><rect x="-32" y="-16" width="24" height="4" fill="#a8adbf"/><rect x="-8" y="-16" width="16" height="4" fill="#7d84a0"/><rect x="8" y="-16" width="30" height="4" fill="#4e5570"/><rect x="-32" y="-12" width="24" height="4" fill="#a8adbf"/><rect x="-8" y="-12" width="16" height="4" fill="#7d84a0"/><rect x="8" y="-12" width="26" height="4" fill="#4e5570"/><rect x="-36" y="-8" width="24" height="4" fill="#a8adbf"/><rect x="-12" y="-8" width="20" height="4" fill="#7d84a0"/><rect x="8" y="-8" width="30" height="4" fill="#4e5570"/><rect x="-42" y="-4" width="28" height="4" fill="#a8adbf"/><rect x="-14" y="-4" width="20" height="4" fill="#7d84a0"/><rect x="6" y="-4" width="34" height="4" fill="#4e5570"/></g><path d="M660,168 C625,155 590,146 596,136 C600,130 610,127 620,124" fill="none" stroke="#d8d8de" stroke-width="18"/><path d="M660,168 C625,155 590,146 596,136 C600,130 610,127 620,124" fill="none" stroke="#55565e" stroke-width="10"/><path d="M660,168 C625,155 590,146 596,136 C600,130 610,127 620,124" fill="none" stroke="#f2f2ec" stroke-width="3" stroke-dasharray="10 6"><animate attributeName="stroke-dashoffset" values="0;216;216;432" keyTimes="0;0.375;0.625;1" dur="24s" repeatCount="indefinite"/></path><g transform="translate(730,215) scale(2.2)"><rect x="-4" y="-56" width="4" height="4" fill="#a8adbf"/><rect x="0" y="-56" width="4" height="4" fill="#7d84a0"/><rect x="-4" y="-56" width="8" height="4" fill="#f4f7fb"/><rect x="-4" y="-52" width="4" height="4" fill="#a8adbf"/><rect x="0" y="-52" width="4" height="4" fill="#7d84a0"/><rect x="4" y="-52" width="4" height="4" fill="#4e5570"/><rect x="-4" y="-52" width="8" height="4" fill="#f4f7fb"/><rect x="-8" y="-48" width="4" height="4" fill="#a8adbf"/><rect x="-4" y="-48" width="4" height="4" fill="#7d84a0"/><rect x="0" y="-48" width="8" height="4" fill="#4e5570"/><rect x="-8" y="-48" width="16" height="4" fill="#f4f7fb"/><rect x="-12" y="-44" width="8" height="4" fill="#a8adbf"/><rect x="-4" y="-44" width="4" height="4" fill="#7d84a0"/><rect x="0" y="-44" width="8" height="4" fill="#4e5570"/><rect x="-8" y="-44" width="8" height="4" fill="#f4f7fb"/><rect x="-12" y="-40" width="8" height="4" fill="#a8adbf"/><rect x="-4" y="-40" width="8" height="4" fill="#7d84a0"/><rect x="4" y="-40" width="8" height="4" fill="#4e5570"/><rect x="-8" y="-36" width="8" height="4" fill="#a8adbf"/><rect x="0" y="-36" width="4" height="4" fill="#7d84a0"/><rect x="4" y="-36" width="8" height="4" fill="#4e5570"/><rect x="-18" y="-32" width="12" height="4" fill="#a8adbf"/><rect x="-6" y="-32" width="8" height="4" fill="#7d84a0"/><rect x="2" y="-32" width="16" height="4" fill="#4e5570"/><rect x="-16" y="-28" width="12" height="4" fill="#a8adbf"/><rect x="-4" y="-28" width="8" height="4" fill="#7d84a0"/><rect x="4" y="-28" width="12" height="4" fill="#4e5570"/><rect x="-18" y="-24" width="16" height="4" fill="#a8adbf"/><rect x="-2" y="-24" width="8" height="4" fill="#7d84a0"/><rect x="6" y="-24" width="16" height="4" fill="#4e5570"/><rect x="-22" y="-20" width="16" height="4" fill="#a8adbf"/><rect x="-6" y="-20" width="12" height="4" fill="#7d84a0"/><rect x="6" y="-20" width="16" height="4" fill="#4e5570"/><rect x="-24" y="-16" width="16" height="4" fill="#a8adbf"/><rect x="-8" y="-16" width="12" height="4" fill="#7d84a0"/><rect x="4" y="-16" width="20" height="4" fill="#4e5570"/><rect x="-24" y="-12" width="20" height="4" fill="#a8adbf"/><rect x="-4" y="-12" width="12" height="4" fill="#7d84a0"/><rect x="8" y="-12" width="20" height="4" fill="#4e5570"/><rect x="-26" y="-8" width="20" height="4" fill="#a8adbf"/><rect x="-6" y="-8" width="12" height="4" fill="#7d84a0"/><rect x="6" y="-8" width="20" height="4" fill="#4e5570"/><rect x="-32" y="-4" width="24" height="4" fill="#a8adbf"/><rect x="-8" y="-4" width="16" height="4" fill="#7d84a0"/><rect x="8" y="-4" width="24" height="4" fill="#4e5570"/></g><path d="M430,215 C520,196 625,180 660,168" fill="none" stroke="#d8d8de" stroke-width="34"/><path d="M430,215 C520,196 625,180 660,168" fill="none" stroke="#55565e" stroke-width="26"/><path d="M430,215 C520,196 625,180 660,168" fill="none" stroke="#f2f2ec" stroke-width="6" stroke-dasharray="18 14"><animate attributeName="stroke-dashoffset" values="0;576;576;1152" keyTimes="0;0.375;0.625;1" dur="24s" repeatCount="indefinite"/></path><path d="M560,292 C615,262 650,246 640,232 C628,216 520,212 430,215" fill="none" stroke="#d8d8de" stroke-width="62"/><path d="M560,292 C615,262 650,246 640,232 C628,216 520,212 430,215" fill="none" stroke="#55565e" stroke-width="54"/><path d="M560,292 C615,262 650,246 640,232 C628,216 520,212 430,215" fill="none" stroke="#f2f2ec" stroke-width="10" stroke-dasharray="28 20"><animate attributeName="stroke-dashoffset" values="0;1152;1152;2304" keyTimes="0;0.375;0.625;1" dur="24s" repeatCount="indefinite"/></path><g transform="translate(400,262) scale(3.4)"><rect x="10" y="-52" width="4" height="4" fill="#7d84a0"/><rect x="14" y="-52" width="4" height="4" fill="#a8adbf"/><rect x="10" y="-52" width="8" height="4" fill="#f4f7fb"/><rect x="10" y="-48" width="4" height="4" fill="#7d84a0"/><rect x="14" y="-48" width="4" height="4" fill="#a8adbf"/><rect x="10" y="-48" width="8" height="4" fill="#f4f7fb"/><rect x="10" y="-44" width="4" height="4" fill="#4e5570"/><rect x="14" y="-44" width="4" height="4" fill="#7d84a0"/><rect x="18" y="-44" width="4" height="4" fill="#a8adbf"/><rect x="10" y="-44" width="8" height="4" fill="#f4f7fb"/><rect x="-20" y="-40" width="4" height="4" fill="#7d84a0"/><rect x="-16" y="-40" width="4" height="4" fill="#a8adbf"/><rect x="6" y="-40" width="8" height="4" fill="#4e5570"/><rect x="14" y="-40" width="4" height="4" fill="#7d84a0"/><rect x="18" y="-40" width="4" height="4" fill="#a8adbf"/><rect x="-20" y="-40" width="8" height="4" fill="#f4f7fb"/><rect x="14" y="-40" width="8" height="4" fill="#f4f7fb"/><rect x="-22" y="-36" width="4" height="4" fill="#4e5570"/><rect x="-18" y="-36" width="4" height="4" fill="#7d84a0"/><rect x="-14" y="-36" width="4" height="4" fill="#a8adbf"/><rect x="4" y="-36" width="8" height="4" fill="#4e5570"/><rect x="12" y="-36" width="4" height="4" fill="#7d84a0"/><rect x="16" y="-36" width="8" height="4" fill="#a8adbf"/><rect x="-20" y="-36" width="8" height="4" fill="#f4f7fb"/><rect x="-20" y="-32" width="4" height="4" fill="#4e5570"/><rect x="-16" y="-32" width="4" height="4" fill="#7d84a0"/><rect x="-12" y="-32" width="4" height="4" fill="#a8adbf"/><rect x="6" y="-32" width="8" height="4" fill="#4e5570"/><rect x="14" y="-32" width="4" height="4" fill="#7d84a0"/><rect x="18" y="-32" width="8" height="4" fill="#a8adbf"/><rect x="-24" y="-32" width="16" height="4" fill="#f4f7fb"/><rect x="-26" y="-28" width="8" height="4" fill="#4e5570"/><rect x="-18" y="-28" width="4" height="4" fill="#7d84a0"/><rect x="-14" y="-28" width="8" height="4" fill="#a8adbf"/><rect x="0" y="-28" width="12" height="4" fill="#4e5570"/><rect x="12" y="-28" width="8" height="4" fill="#7d84a0"/><rect x="20" y="-28" width="8" height="4" fill="#a8adbf"/><rect x="-16" y="-28" width="8" height="4" fill="#f4f7fb"/><rect x="-30" y="-24" width="8" height="4" fill="#4e5570"/><rect x="-22" y="-24" width="8" height="4" fill="#7d84a0"/><rect x="-14" y="-24" width="8" height="4" fill="#a8adbf"/><rect x="-4" y="-24" width="12" height="4" fill="#4e5570"/><rect x="8" y="-24" width="8" height="4" fill="#7d84a0"/><rect x="16" y="-24" width="12" height="4" fill="#a8adbf"/><rect x="-28" y="-20" width="8" height="4" fill="#4e5570"/><rect x="-20" y="-20" width="8" height="4" fill="#7d84a0"/><rect x="-12" y="-20" width="8" height="4" fill="#a8adbf"/><rect x="-2" y="-20" width="12" height="4" fill="#4e5570"/><rect x="10" y="-20" width="8" height="4" fill="#7d84a0"/><rect x="18" y="-20" width="12" height="4" fill="#a8adbf"/><rect x="-32" y="-16" width="30" height="4" fill="#4e5570"/><rect x="-2" y="-16" width="16" height="4" fill="#7d84a0"/><rect x="14" y="-16" width="24" height="4" fill="#a8adbf"/><rect x="-32" y="-12" width="26" height="4" fill="#4e5570"/><rect x="-6" y="-12" width="16" height="4" fill="#7d84a0"/><rect x="10" y="-12" width="24" height="4" fill="#a8adbf"/><rect x="-36" y="-8" width="30" height="4" fill="#4e5570"/><rect x="-6" y="-8" width="20" height="4" fill="#7d84a0"/><rect x="14" y="-8" width="24" height="4" fill="#a8adbf"/><rect x="-42" y="-4" width="34" height="4" fill="#4e5570"/><rect x="-8" y="-4" width="20" height="4" fill="#7d84a0"/><rect x="12" y="-4" width="28" height="4" fill="#a8adbf"/></g><g transform="translate(10,322) scale(4.6)"><rect x="-4" y="-56" width="4" height="4" fill="#7d84a0"/><rect x="0" y="-56" width="4" height="4" fill="#a8adbf"/><rect x="-4" y="-56" width="8" height="4" fill="#f4f7fb"/><rect x="-4" y="-52" width="4" height="4" fill="#4e5570"/><rect x="0" y="-52" width="4" height="4" fill="#7d84a0"/><rect x="4" y="-52" width="4" height="4" fill="#a8adbf"/><rect x="-4" y="-52" width="8" height="4" fill="#f4f7fb"/><rect x="-8" y="-48" width="8" height="4" fill="#4e5570"/><rect x="0" y="-48" width="4" height="4" fill="#7d84a0"/><rect x="4" y="-48" width="4" height="4" fill="#a8adbf"/><rect x="-8" y="-48" width="16" height="4" fill="#f4f7fb"/><rect x="-12" y="-44" width="8" height="4" fill="#4e5570"/><rect x="-4" y="-44" width="4" height="4" fill="#7d84a0"/><rect x="0" y="-44" width="8" height="4" fill="#a8adbf"/><rect x="0" y="-44" width="8" height="4" fill="#f4f7fb"/><rect x="-12" y="-40" width="8" height="4" fill="#4e5570"/><rect x="-4" y="-40" width="8" height="4" fill="#7d84a0"/><rect x="4" y="-40" width="8" height="4" fill="#a8adbf"/><rect x="-8" y="-36" width="8" height="4" fill="#4e5570"/><rect x="0" y="-36" width="4" height="4" fill="#7d84a0"/><rect x="4" y="-36" width="8" height="4" fill="#a8adbf"/><rect x="-18" y="-32" width="16" height="4" fill="#4e5570"/><rect x="-2" y="-32" width="8" height="4" fill="#7d84a0"/><rect x="6" y="-32" width="12" height="4" fill="#a8adbf"/><rect x="-16" y="-28" width="12" height="4" fill="#4e5570"/><rect x="-4" y="-28" width="8" height="4" fill="#7d84a0"/><rect x="4" y="-28" width="12" height="4" fill="#a8adbf"/><rect x="-18" y="-24" width="16" height="4" fill="#4e5570"/><rect x="-2" y="-24" width="8" height="4" fill="#7d84a0"/><rect x="6" y="-24" width="16" height="4" fill="#a8adbf"/><rect x="-22" y="-20" width="16" height="4" fill="#4e5570"/><rect x="-6" y="-20" width="12" height="4" fill="#7d84a0"/><rect x="6" y="-20" width="16" height="4" fill="#a8adbf"/><rect x="-24" y="-16" width="20" height="4" fill="#4e5570"/><rect x="-4" y="-16" width="12" height="4" fill="#7d84a0"/><rect x="8" y="-16" width="16" height="4" fill="#a8adbf"/><rect x="-24" y="-12" width="20" height="4" fill="#4e5570"/><rect x="-4" y="-12" width="12" height="4" fill="#7d84a0"/><rect x="8" y="-12" width="20" height="4" fill="#a8adbf"/><rect x="-26" y="-8" width="20" height="4" fill="#4e5570"/><rect x="-6" y="-8" width="12" height="4" fill="#7d84a0"/><rect x="6" y="-8" width="20" height="4" fill="#a8adbf"/><rect x="-32" y="-4" width="24" height="4" fill="#4e5570"/><rect x="-8" y="-4" width="16" height="4" fill="#7d84a0"/><rect x="8" y="-4" width="24" height="4" fill="#a8adbf"/></g><g transform="translate(1130,326) scale(4.8)"><rect x="-4" y="-56" width="4" height="4" fill="#a8adbf"/><rect x="0" y="-56" width="4" height="4" fill="#7d84a0"/><rect x="-4" y="-56" width="8" height="4" fill="#f4f7fb"/><rect x="-4" y="-52" width="4" height="4" fill="#a8adbf"/><rect x="0" y="-52" width="4" height="4" fill="#7d84a0"/><rect x="4" y="-52" width="4" height="4" fill="#4e5570"/><rect x="-4" y="-52" width="8" height="4" fill="#f4f7fb"/><rect x="-8" y="-48" width="4" height="4" fill="#a8adbf"/><rect x="-4" y="-48" width="4" height="4" fill="#7d84a0"/><rect x="0" y="-48" width="8" height="4" fill="#4e5570"/><rect x="-8" y="-48" width="16" height="4" fill="#f4f7fb"/><rect x="-12" y="-44" width="8" height="4" fill="#a8adbf"/><rect x="-4" y="-44" width="4" height="4" fill="#7d84a0"/><rect x="0" y="-44" width="8" height="4" fill="#4e5570"/><rect x="-8" y="-44" width="8" height="4" fill="#f4f7fb"/><rect x="-12" y="-40" width="8" height="4" fill="#a8adbf"/><rect x="-4" y="-40" width="8" height="4" fill="#7d84a0"/><rect x="4" y="-40" width="8" height="4" fill="#4e5570"/><rect x="-8" y="-36" width="8" height="4" fill="#a8adbf"/><rect x="0" y="-36" width="4" height="4" fill="#7d84a0"/><rect x="4" y="-36" width="8" height="4" fill="#4e5570"/><rect x="-18" y="-32" width="12" height="4" fill="#a8adbf"/><rect x="-6" y="-32" width="8" height="4" fill="#7d84a0"/><rect x="2" y="-32" width="16" height="4" fill="#4e5570"/><rect x="-16" y="-28" width="12" height="4" fill="#a8adbf"/><rect x="-4" y="-28" width="8" height="4" fill="#7d84a0"/><rect x="4" y="-28" width="12" height="4" fill="#4e5570"/><rect x="-18" y="-24" width="16" height="4" fill="#a8adbf"/><rect x="-2" y="-24" width="8" height="4" fill="#7d84a0"/><rect x="6" y="-24" width="16" height="4" fill="#4e5570"/><rect x="-22" y="-20" width="16" height="4" fill="#a8adbf"/><rect x="-6" y="-20" width="12" height="4" fill="#7d84a0"/><rect x="6" y="-20" width="16" height="4" fill="#4e5570"/><rect x="-24" y="-16" width="16" height="4" fill="#a8adbf"/><rect x="-8" y="-16" width="12" height="4" fill="#7d84a0"/><rect x="4" y="-16" width="20" height="4" fill="#4e5570"/><rect x="-24" y="-12" width="20" height="4" fill="#a8adbf"/><rect x="-4" y="-12" width="12" height="4" fill="#7d84a0"/><rect x="8" y="-12" width="20" height="4" fill="#4e5570"/><rect x="-26" y="-8" width="20" height="4" fill="#a8adbf"/><rect x="-6" y="-8" width="12" height="4" fill="#7d84a0"/><rect x="6" y="-8" width="20" height="4" fill="#4e5570"/><rect x="-32" y="-4" width="24" height="4" fill="#a8adbf"/><rect x="-8" y="-4" width="16" height="4" fill="#7d84a0"/><rect x="8" y="-4" width="24" height="4" fill="#4e5570"/></g><g><animateTransform attributeName="transform" type="rotate" calcMode="discrete" values="0,606,236;-8,606,236;0,606,236" keyTimes="0;0.375;0.625" dur="24s" repeatCount="indefinite"/><g transform="translate(606,222) scale(1.2)"><rect x="-8" y="-15" width="16" height="4" fill="#17171c"/><rect x="-12" y="-11" width="24" height="4" fill="#17171c"/><rect x="-16" y="-7" width="32" height="4" fill="#17171c"/><rect x="-16" y="-3" width="32" height="4" fill="#17171c"/><rect x="-16" y="1" width="32" height="4" fill="#17171c"/><rect x="-12" y="5" width="24" height="4" fill="#17171c"/><rect x="-12" y="9" width="24" height="4" fill="#17171c"/><rect x="-4" y="13" width="8" height="4" fill="#17171c"/><rect x="-4" y="-8" width="8" height="4" fill="#55565e"/><rect x="-8" y="-4" width="16" height="4" fill="#55565e"/><rect x="-8" y="0" width="16" height="4" fill="#55565e"/><rect x="-4" y="4" width="8" height="4" fill="#55565e"/><rect x="-2" y="-2" width="4" height="4" fill="#c0c6cf"/><rect x="-40" y="-18" width="16" height="4" fill="#17171c"/><rect x="-44" y="-14" width="24" height="4" fill="#17171c"/><rect x="-44" y="-10" width="24" height="4" fill="#17171c"/><rect x="-44" y="-6" width="24" height="4" fill="#17171c"/><rect x="-44" y="-2" width="24" height="4" fill="#17171c"/><rect x="-40" y="2" width="16" height="4" fill="#17171c"/><rect x="-36" y="-12" width="8" height="4" fill="#55565e"/><rect x="-40" y="-8" width="16" height="4" fill="#55565e"/><rect x="-36" y="-4" width="8" height="4" fill="#55565e"/><rect x="-34" y="-8" width="4" height="4" fill="#c0c6cf"/><rect x="-14" y="0" width="14" height="4" fill="#d8433f"/><rect x="-10" y="-8" width="4" height="8" fill="#d8433f"/><rect x="-8" y="-16" width="4" height="8" fill="#d8433f"/><rect x="-6" y="-24" width="4" height="8" fill="#d8433f"/><rect x="-26" y="-24" width="22" height="4" fill="#d8433f"/><rect x="-28" y="-16" width="4" height="8" fill="#d8433f"/><rect x="-24" y="-10" width="4" height="6" fill="#d8433f"/><rect x="-18" y="-4" width="4" height="6" fill="#d8433f"/><rect x="-30" y="-26" width="4" height="10" fill="#d8433f"/><rect x="-33" y="-16" width="4" height="10" fill="#d8433f"/><rect x="-12" y="-30" width="14" height="4" fill="#26262c"/><rect x="-38" y="-32" width="12" height="4" fill="#26262c"/><rect x="-38" y="-28" width="4" height="8" fill="#26262c"/><rect x="-16" y="2" width="10" height="4" fill="#c0c6cf"/><g opacity="0"><rect x="-9" y="12" width="18" height="3" fill="#17171c"/><animate attributeName="opacity" calcMode="discrete" values="0;1;0" keyTimes="0;0.375;0.625" dur="24s" repeatCount="indefinite"/></g></g></g><g opacity="1"><animate attributeName="opacity" calcMode="discrete" values="1;0;1" keyTimes="0;0.375;0.625" dur="24s" repeatCount="indefinite"/><g><rect x="624" y="238" width="4" height="4" fill="#c9c3b2"/><rect x="632" y="232" width="4" height="4" fill="#c9c3b2"/><rect x="640" y="240" width="4" height="4" fill="#c9c3b2"/><animate attributeName="opacity" calcMode="discrete" values="1;0" keyTimes="0;0.5" dur="0.4s" repeatCount="indefinite"/></g></g><g transform="translate(630,152)" opacity="0"><rect x="0" y="0" width="20" height="24" fill="#fffef2"/><rect x="8" y="4" width="4" height="10" fill="#26262c"/><rect x="8" y="17" width="4" height="4" fill="#26262c"/><animate attributeName="opacity" calcMode="discrete" values="0;1;0" keyTimes="0;0.375;0.425" dur="24s" repeatCount="indefinite"/></g><g transform="translate(634,222)" opacity="0"><animate attributeName="opacity" calcMode="discrete" values="0;1;0" keyTimes="0;0.425;0.475" dur="24s" repeatCount="indefinite"/><g><animateTransform attributeName="transform" type="rotate" calcMode="discrete" values="-18;14" keyTimes="0;0.5" dur="0.6s" repeatCount="indefinite"/><rect x="-2" y="-18" width="4" height="18" fill="#3f7fd4"/><rect x="-4" y="-22" width="8" height="4" fill="#3f7fd4"/></g></g><g transform="translate(646,198)" opacity="0"><animate attributeName="opacity" calcMode="discrete" values="0;1;0" keyTimes="0;0.475;0.541667" dur="24s" repeatCount="indefinite"/><rect x="-8" y="-12" width="16" height="4" fill="#2b2b31"/><rect x="-8" y="4" width="16" height="4" fill="#2b2b31"/><rect x="-12" y="-8" width="4" height="12" fill="#2b2b31"/><rect x="8" y="-8" width="4" height="12" fill="#2b2b31"/></g><g transform="translate(648,206)" opacity="0"><animate attributeName="opacity" calcMode="discrete" values="0;1;0" keyTimes="0;0.541667;0.625" dur="24s" repeatCount="indefinite"/><rect x="-6" y="22" width="16" height="4" fill="#d8433f"/><rect x="0" y="0" width="4" height="22" fill="#d8433f"/><rect x="-6" y="-6" width="16" height="4" fill="#26262c"><animate attributeName="y" calcMode="discrete" values="-6;8" keyTimes="0;0.5" dur="0.5s" repeatCount="indefinite"/></rect></g><g opacity="0"><animate attributeName="opacity" calcMode="discrete" values="0;1;0" keyTimes="0;0.608333;0.65" dur="24s" repeatCount="indefinite"/><rect x="584" y="186" width="4" height="4" fill="#49d97e"/><rect x="616" y="180" width="4" height="4" fill="#49d97e"/><rect x="602" y="208" width="4" height="4" fill="#49d97e"/></g></svg>