<svg xmlns="http://www.w3.org/2000/svg" viewBox="0 0 1160 280" width="1160" height="280" shape-rendering="crispEdges" role="img" aria-label="Pixel bike rides toward a mountain sunrise, gets a flat, fixes it with lever, tube, and pump, and rides on."><title>roll, break, fix, roll again</title><rect x="0" y="0" width="1160" height="14" fill="#101010"/><rect x="0" y="14" width="1160" height="14" fill="#101010"/><rect x="0" y="28" width="1160" height="14" fill="#101010"/><rect x="0" y="42" width="1160" height="14" fill="#4e4e4e"/><rect x="0" y="56" width="1160" height="14" fill="#4e4e4e"/><rect x="0" y="70" width="1160" height="14" fill="#9c9c9c"/><rect x="0" y="84" width="1160" height="14" fill="#9c9c9c"/><rect x="0" y="98" width="1160" height="14" fill="#eeeeee"/><rect x="90" y="12" width="4" height="4" fill="#eeeeee"><animate attributeName="opacity" calcMode="discrete" values="1;0" keyTimes="0;0.5" dur="1.4s" repeatCount="indefinite"/></rect><rect x="210" y="30" width="4" height="4" fill="#eeeeee"><animate attributeName="opacity" calcMode="discrete" values="1;0" keyTimes="0;0.5" dur="1.8s" repeatCount="indefinite"/></rect><rect x="700" y="8" width="4" height="4" fill="#eeeeee"><animate attributeName="opacity" calcMode="discrete" values="1;0" keyTimes="0;0.5" dur="2.2s" repeatCount="indefinite"/></rect><rect x="930" y="22" width="4" height="4" fill="#eeeeee"><animate attributeName="opacity" calcMode="discrete" values="1;0" keyTimes="0;0.5" dur="2.6s" repeatCount="indefinite"/></rect><rect x="1080" y="36" width="4" height="4" fill="#eeeeee"><animate attributeName="opacity" calcMode="discrete" values="1;0" keyTimes="0;0.5" dur="3s" repeatCount="indefinite"/></rect><rect x="0" y="102" width="48" height="10" fill="#101010"/><rect x="12" y="96" width="24" height="6" fill="#101010"/><rect x="18" y="92" width="12" height="4" fill="#4e4e4e"/><rect x="48" y="98" width="32" height="14" fill="#101010"/><rect x="56" y="92" width="16" height="6" fill="#101010"/><rect x="60" y="88" width="8" height="4" fill="#4e4e4e"/><rect x="80" y="90" width="56" height="22" fill="#101010"/><rect x="94" y="84" width="28" height="6" fill="#101010"/><rect x="101" y="80" width="14" height="4" fill="#4e4e4e"/><rect x="136" y="94" width="40" height="18" fill="#101010"/><rect x="146" y="88" width="20" height="6" fill="#101010"/><rect x="151" y="84" width="10" height="4" fill="#4e4e4e"/><rect x="176" y="104" width="64" height="8" fill="#101010"/><rect x="192" y="98" width="32" height="6" fill="#101010"/><rect x="200" y="94" width="16" height="4" fill="#4e4e4e"/><rect x="240" y="100" width="36" height="12" fill="#101010"/><rect x="249" y="94" width="18" height="6" fill="#101010"/><rect x="253.5" y="90" width="9" height="4" fill="#4e4e4e"/><rect x="276" y="86" width="52" height="26" fill="#101010"/><rect x="289" y="80" width="26" height="6" fill="#101010"/><rect x="295.5" y="76" width="13" height="4" fill="#4e4e4e"/><rect x="328" y="92" width="44" height="20" fill="#101010"/><rect x="339" y="86" width="22" height="6" fill="#101010"/><rect x="344.5" y="82" width="11" height="4" fill="#4e4e4e"/><rect x="372" y="102" width="60" height="10" fill="#101010"/><rect x="387" y="96" width="30" height="6" fill="#101010"/><rect x="394.5" y="92" width="15" height="4" fill="#4e4e4e"/><rect x="432" y="96" width="32" height="16" fill="#101010"/><rect x="440" y="90" width="16" height="6" fill="#101010"/><rect x="444" y="86" width="8" height="4" fill="#4e4e4e"/><rect x="464" y="82" width="48" height="30" fill="#101010"/><rect x="476" y="76" width="24" height="6" fill="#101010"/><rect x="482" y="72" width="12" height="4" fill="#4e4e4e"/><rect x="512" y="88" width="56" height="24" fill="#101010"/><rect x="526" y="82" width="28" height="6" fill="#101010"/><rect x="533" y="78" width="14" height="4" fill="#4e4e4e"/><rect x="568" y="98" width="36" height="14" fill="#101010"/><rect x="577" y="92" width="18" height="6" fill="#101010"/><rect x="581.5" y="88" width="9" height="4" fill="#4e4e4e"/><rect x="604" y="104" width="64" height="8" fill="#101010"/><rect x="620" y="98" width="32" height="6" fill="#101010"/><rect x="628" y="94" width="16" height="4" fill="#4e4e4e"/><rect x="668" y="94" width="40" height="18" fill="#101010"/><rect x="678" y="88" width="20" height="6" fill="#101010"/><rect x="683" y="84" width="10" height="4" fill="#4e4e4e"/><rect x="708" y="84" width="52" height="28" fill="#101010"/><rect x="721" y="78" width="26" height="6" fill="#101010"/><rect x="727.5" y="74" width="13" height="4" fill="#4e4e4e"/><rect x="760" y="96" width="32" height="16" fill="#101010"/><rect x="768" y="90" width="16" height="6" fill="#101010"/><rect x="772" y="86" width="8" height="4" fill="#4e4e4e"/><rect x="792" y="102" width="60" height="10" fill="#101010"/><rect x="807" y="96" width="30" height="6" fill="#101010"/><rect x="814.5" y="92" width="15" height="4" fill="#4e4e4e"/><rect x="852" y="90" width="44" height="22" fill="#101010"/><rect x="863" y="84" width="22" height="6" fill="#101010"/><rect x="868.5" y="80" width="11" height="4" fill="#4e4e4e"/><rect x="896" y="100" width="56" height="12" fill="#101010"/><rect x="910" y="94" width="28" height="6" fill="#101010"/><rect x="917" y="90" width="14" height="4" fill="#4e4e4e"/><rect x="952" y="102" width="48" height="10" fill="#101010"/><rect x="964" y="96" width="24" height="6" fill="#101010"/><rect x="970" y="92" width="12" height="4" fill="#4e4e4e"/><rect x="1000" y="98" width="32" height="14" fill="#101010"/><rect x="1008" y="92" width="16" height="6" fill="#101010"/><rect x="1012" y="88" width="8" height="4" fill="#4e4e4e"/><rect x="1032" y="90" width="56" height="22" fill="#101010"/><rect x="1046" y="84" width="28" height="6" fill="#101010"/><rect x="1053" y="80" width="14" height="4" fill="#4e4e4e"/><rect x="1088" y="94" width="40" height="18" fill="#101010"/><rect x="1098" y="88" width="20" height="6" fill="#101010"/><rect x="1103" y="84" width="10" height="4" fill="#4e4e4e"/><rect x="1128" y="104" width="64" height="8" fill="#101010"/><rect x="1144" y="98" width="32" height="6" fill="#101010"/><rect x="1152" y="94" width="16" height="4" fill="#4e4e4e"/><rect x="512" y="80" width="12" height="4" fill="#eeeeee"/><rect x="506" y="84" width="24" height="4" fill="#eeeeee"/><rect x="502" y="88" width="32" height="4" fill="#eeeeee"/><rect x="498" y="92" width="40" height="4" fill="#eeeeee"/><rect x="494" y="96" width="48" height="4" fill="#eeeeee"/><rect x="492" y="100" width="52" height="4" fill="#eeeeee"/><rect x="490" y="104" width="56" height="4" fill="#eeeeee"/><rect x="490" y="108" width="56" height="4" fill="#eeeeee"/><rect x="446" y="92" width="12" height="4" fill="#eeeeee"><animate attributeName="opacity" calcMode="discrete" values="1;0" keyTimes="0;0.5" dur="1.2s" repeatCount="indefinite"/></rect><rect x="578" y="92" width="12" height="4" fill="#eeeeee"><animate attributeName="opacity" calcMode="discrete" values="1;0" keyTimes="0;0.5" dur="1.2s" repeatCount="indefinite"/></rect><rect x="462" y="76" width="12" height="4" fill="#eeeeee"><animate attributeName="opacity" calcMode="discrete" values="1;0" keyTimes="0;0.5" dur="1.2s" repeatCount="indefinite"/></rect><rect x="562" y="76" width="12" height="4" fill="#eeeeee"><animate attributeName="opacity" calcMode="discrete" values="1;0" keyTimes="0;0.5" dur="1.2s" repeatCount="indefinite"/></rect><rect x="0" y="112" width="1160" height="8" fill="#9c9c9c"/><rect x="0" y="120" width="1160" height="10" fill="#9c9c9c"/><rect x="0" y="130" width="1160" height="12" fill="#4e4e4e"/><rect x="0" y="142" width="1160" height="16" fill="#4e4e4e"/><rect x="0" y="158" width="1160" height="20" fill="#4e4e4e"/><rect x="0" y="178" width="1160" height="26" fill="#4e4e4e"/><rect x="0" y="204" width="1160" height="34" fill="#4e4e4e"/><rect x="0" y="238" width="1160" height="42" fill="#4e4e4e"/><g transform="translate(492,114)"><animateTransform attributeName="transform" type="translate" calcMode="discrete" values="492,114;455,120;380,136;240,160;30,196;492,114;455,120;380,136;240,160;30,196;492,114;455,120;380,136;240,160;30,196;492,114;455,120;380,136;240,160;30,196" keyTimes="0;0.0375;0.075;0.1125;0.15;0.1875;0.225;0.2625;0.3;0.3375;0.625;0.6625;0.7;0.7375;0.775;0.8125;0.85;0.8875;0.925;0.9625" dur="24s" repeatCount="indefinite"/><g transform="scale(0.3)"><animateTransform attributeName="transform" type="scale" calcMode="discrete" values="0.3;0.6;1.1;1.8;2.8;0.3;0.6;1.1;1.8;2.8;0.3;0.6;1.1;1.8;2.8;0.3;0.6;1.1;1.8;2.8" keyTimes="0;0.0375;0.075;0.1125;0.15;0.1875;0.225;0.2625;0.3;0.3375;0.625;0.6625;0.7;0.7375;0.775;0.8125;0.85;0.8875;0.925;0.9625" dur="24s" repeatCount="indefinite"/><rect x="-4" y="-56" width="4" height="4" fill="#9c9c9c"/><rect x="0" y="-56" width="4" height="4" fill="#9c9c9c"/><rect x="-4" y="-56" width="8" height="4" fill="#eeeeee"/><rect x="-4" y="-52" width="4" height="4" fill="#4e4e4e"/><rect x="0" y="-52" width="4" height="4" fill="#9c9c9c"/><rect x="4" y="-52" width="4" height="4" fill="#9c9c9c"/><rect x="-4" y="-52" width="8" height="4" fill="#eeeeee"/><rect x="-4" y="-48" width="4" height="4" fill="#4e4e4e"/><rect x="0" y="-48" width="4" height="4" fill="#9c9c9c"/><rect x="4" y="-48" width="4" height="4" fill="#9c9c9c"/><rect x="-8" y="-48" width="16" height="4" fill="#eeeeee"/><rect x="-14" y="-44" width="8" height="4" fill="#4e4e4e"/><rect x="-6" y="-44" width="8" height="4" fill="#9c9c9c"/><rect x="2" y="-44" width="8" height="4" fill="#9c9c9c"/><rect x="0" y="-44" width="8" height="4" fill="#eeeeee"/><rect x="-12" y="-40" width="8" height="4" fill="#4e4e4e"/><rect x="-4" y="-40" width="8" height="4" fill="#9c9c9c"/><rect x="4" y="-40" width="8" height="4" fill="#9c9c9c"/><rect x="-6" y="-36" width="8" height="4" fill="#4e4e4e"/><rect x="2" y="-36" width="4" height="4" fill="#9c9c9c"/><rect x="6" y="-36" width="4" height="4" fill="#9c9c9c"/><rect x="-22" y="-32" width="16" height="4" fill="#4e4e4e"/><rect x="-6" y="-32" width="8" height="4" fill="#9c9c9c"/><rect x="2" y="-32" width="16" height="4" fill="#9c9c9c"/><rect x="-18" y="-28" width="16" height="4" fill="#4e4e4e"/><rect x="-2" y="-28" width="8" height="4" fill="#9c9c9c"/><rect x="6" y="-28" width="12" height="4" fill="#9c9c9c"/><rect x="-16" y="-24" width="16" height="4" fill="#4e4e4e"/><rect x="0" y="-24" width="8" height="4" fill="#9c9c9c"/><rect x="8" y="-24" width="12" height="4" fill="#9c9c9c"/><rect x="-28" y="-20" width="20" height="4" fill="#4e4e4e"/><rect x="-8" y="-20" width="12" height="4" fill="#9c9c9c"/><rect x="4" y="-20" width="20" height="4" fill="#9c9c9c"/><rect x="-24" y="-16" width="20" height="4" fill="#4e4e4e"/><rect x="-4" y="-16" width="12" height="4" fill="#9c9c9c"/><rect x="8" y="-16" width="16" height="4" fill="#9c9c9c"/><rect x="-26" y="-12" width="20" height="4" fill="#4e4e4e"/><rect x="-6" y="-12" width="16" height="4" fill="#9c9c9c"/><rect x="10" y="-12" width="20" height="4" fill="#9c9c9c"/><rect x="-24" y="-8" width="20" height="4" fill="#4e4e4e"/><rect x="-4" y="-8" width="12" height="4" fill="#9c9c9c"/><rect x="8" y="-8" width="16" height="4" fill="#9c9c9c"/><rect x="-34" y="-4" width="28" height="4" fill="#4e4e4e"/><rect x="-6" y="-4" width="16" height="4" fill="#9c9c9c"/><rect x="10" y="-4" width="24" height="4" fill="#9c9c9c"/></g></g><g transform="translate(380,136)"><animateTransform attributeName="transform" type="translate" calcMode="discrete" values="380,136;240,160;30,196;492,114;455,120;380,136;240,160;30,196;492,114;455,120;380,136;240,160;30,196;492,114;455,120;380,136;240,160;30,196;492,114;455,120" keyTimes="0;0.0375;0.075;0.1125;0.15;0.1875;0.225;0.2625;0.3;0.3375;0.625;0.6625;0.7;0.7375;0.775;0.8125;0.85;0.8875;0.925;0.9625" dur="24s" repeatCount="indefinite"/><g transform="scale(1.1)"><animateTransform attributeName="transform" type="scale" calcMode="discrete" values="1.1;1.8;2.8;0.3;0.6;1.1;1.8;2.8;0.3;0.6;1.1;1.8;2.8;0.3;0.6;1.1;1.8;2.8;0.3;0.6" keyTimes="0;0.0375;0.075;0.1125;0.15;0.1875;0.225;0.2625;0.3;0.3375;0.625;0.6625;0.7;0.7375;0.775;0.8125;0.85;0.8875;0.925;0.9625" dur="24s" repeatCount="indefinite"/><rect x="10" y="-52" width="4" height="4" fill="#9c9c9c"/><rect x="14" y="-52" width="4" height="4" fill="#9c9c9c"/><rect x="10" y="-52" width="8" height="4" fill="#eeeeee"/><rect x="10" y="-48" width="4" height="4" fill="#9c9c9c"/><rect x="14" y="-48" width="4" height="4" fill="#9c9c9c"/><rect x="10" y="-48" width="8" height="4" fill="#eeeeee"/><rect x="8" y="-44" width="8" height="4" fill="#4e4e4e"/><rect x="16" y="-44" width="4" height="4" fill="#9c9c9c"/><rect x="20" y="-44" width="4" height="4" fill="#9c9c9c"/><rect x="10" y="-44" width="8" height="4" fill="#eeeeee"/><rect x="-20" y="-40" width="4" height="4" fill="#9c9c9c"/><rect x="-16" y="-40" width="4" height="4" fill="#9c9c9c"/><rect x="6" y="-40" width="8" height="4" fill="#4e4e4e"/><rect x="14" y="-40" width="4" height="4" fill="#9c9c9c"/><rect x="18" y="-40" width="4" height="4" fill="#9c9c9c"/><rect x="-20" y="-40" width="8" height="4" fill="#eeeeee"/><rect x="14" y="-40" width="8" height="4" fill="#eeeeee"/><rect x="-24" y="-36" width="4" height="4" fill="#4e4e4e"/><rect x="-20" y="-36" width="4" height="4" fill="#9c9c9c"/><rect x="-16" y="-36" width="4" height="4" fill="#9c9c9c"/><rect x="2" y="-36" width="8" height="4" fill="#4e4e4e"/><rect x="10" y="-36" width="4" height="4" fill="#9c9c9c"/><rect x="14" y="-36" width="8" height="4" fill="#9c9c9c"/><rect x="-20" y="-36" width="8" height="4" fill="#eeeeee"/><rect x="-18" y="-32" width="4" height="4" fill="#9c9c9c"/><rect x="-14" y="-32" width="4" height="4" fill="#9c9c9c"/><rect x="8" y="-32" width="8" height="4" fill="#4e4e4e"/><rect x="16" y="-32" width="4" height="4" fill="#9c9c9c"/><rect x="20" y="-32" width="4" height="4" fill="#9c9c9c"/><rect x="-24" y="-32" width="16" height="4" fill="#eeeeee"/><rect x="-28" y="-28" width="8" height="4" fill="#4e4e4e"/><rect x="-20" y="-28" width="8" height="4" fill="#9c9c9c"/><rect x="-12" y="-28" width="8" height="4" fill="#9c9c9c"/><rect x="-2" y="-28" width="12" height="4" fill="#4e4e4e"/><rect x="10" y="-28" width="8" height="4" fill="#9c9c9c"/><rect x="18" y="-28" width="12" height="4" fill="#9c9c9c"/><rect x="-16" y="-28" width="8" height="4" fill="#eeeeee"/><rect x="-30" y="-24" width="8" height="4" fill="#4e4e4e"/><rect x="-22" y="-24" width="8" height="4" fill="#9c9c9c"/><rect x="-14" y="-24" width="8" height="4" fill="#9c9c9c"/><rect x="-4" y="-24" width="12" height="4" fill="#4e4e4e"/><rect x="8" y="-24" width="8" height="4" fill="#9c9c9c"/><rect x="16" y="-24" width="12" height="4" fill="#9c9c9c"/><rect x="-26" y="-20" width="8" height="4" fill="#4e4e4e"/><rect x="-18" y="-20" width="4" height="4" fill="#9c9c9c"/><rect x="-14" y="-20" width="8" height="4" fill="#9c9c9c"/><rect x="0" y="-20" width="12" height="4" fill="#4e4e4e"/><rect x="12" y="-20" width="8" height="4" fill="#9c9c9c"/><rect x="20" y="-20" width="8" height="4" fill="#9c9c9c"/><rect x="-34" y="-16" width="30" height="4" fill="#4e4e4e"/><rect x="-4" y="-16" width="20" height="4" fill="#9c9c9c"/><rect x="16" y="-16" width="24" height="4" fill="#9c9c9c"/><rect x="-34" y="-12" width="30" height="4" fill="#4e4e4e"/><rect x="-4" y="-12" width="16" height="4" fill="#9c9c9c"/><rect x="12" y="-12" width="24" height="4" fill="#9c9c9c"/><rect x="-38" y="-8" width="30" height="4" fill="#4e4e4e"/><rect x="-8" y="-8" width="20" height="4" fill="#9c9c9c"/><rect x="12" y="-8" width="24" height="4" fill="#9c9c9c"/><rect x="-44" y="-4" width="34" height="4" fill="#4e4e4e"/><rect x="-10" y="-4" width="20" height="4" fill="#9c9c9c"/><rect x="10" y="-4" width="32" height="4" fill="#9c9c9c"/></g></g><g transform="translate(590,120)"><animateTransform attributeName="transform" type="translate" calcMode="discrete" values="590,120;680,136;850,160;1130,196;546,114;590,120;680,136;850,160;1130,196;546,114;590,120;680,136;850,160;1130,196;546,114;590,120;680,136;850,160;1130,196;546,114" keyTimes="0;0.0375;0.075;0.1125;0.15;0.1875;0.225;0.2625;0.3;0.3375;0.625;0.6625;0.7;0.7375;0.775;0.8125;0.85;0.8875;0.925;0.9625" dur="24s" repeatCount="indefinite"/><g transform="scale(0.6)"><animateTransform attributeName="transform" type="scale" calcMode="discrete" values="0.6;1.1;1.8;2.8;0.3;0.6;1.1;1.8;2.8;0.3;0.6;1.1;1.8;2.8;0.3;0.6;1.1;1.8;2.8;0.3" keyTimes="0;0.0375;0.075;0.1125;0.15;0.1875;0.225;0.2625;0.3;0.3375;0.625;0.6625;0.7;0.7375;0.775;0.8125;0.85;0.8875;0.925;0.9625" dur="24s" repeatCount="indefinite"/><rect x="10" y="-52" width="4" height="4" fill="#9c9c9c"/><rect x="14" y="-52" width="4" height="4" fill="#9c9c9c"/><rect x="10" y="-52" width="8" height="4" fill="#eeeeee"/><rect x="10" y="-48" width="4" height="4" fill="#9c9c9c"/><rect x="14" y="-48" width="4" height="4" fill="#9c9c9c"/><rect x="10" y="-48" width="8" height="4" fill="#eeeeee"/><rect x="8" y="-44" width="4" height="4" fill="#9c9c9c"/><rect x="12" y="-44" width="4" height="4" fill="#9c9c9c"/><rect x="16" y="-44" width="8" height="4" fill="#4e4e4e"/><rect x="10" y="-44" width="8" height="4" fill="#eeeeee"/><rect x="-20" y="-40" width="4" height="4" fill="#9c9c9c"/><rect x="-16" y="-40" width="4" height="4" fill="#9c9c9c"/><rect x="6" y="-40" width="4" height="4" fill="#9c9c9c"/><rect x="10" y="-40" width="4" height="4" fill="#9c9c9c"/><rect x="14" y="-40" width="8" height="4" fill="#4e4e4e"/><rect x="-20" y="-40" width="8" height="4" fill="#eeeeee"/><rect x="6" y="-40" width="8" height="4" fill="#eeeeee"/><rect x="-24" y="-36" width="4" height="4" fill="#9c9c9c"/><rect x="-20" y="-36" width="4" height="4" fill="#9c9c9c"/><rect x="-16" y="-36" width="4" height="4" fill="#4e4e4e"/><rect x="2" y="-36" width="8" height="4" fill="#9c9c9c"/><rect x="10" y="-36" width="4" height="4" fill="#9c9c9c"/><rect x="14" y="-36" width="8" height="4" fill="#4e4e4e"/><rect x="-20" y="-36" width="8" height="4" fill="#eeeeee"/><rect x="-18" y="-32" width="4" height="4" fill="#9c9c9c"/><rect x="-14" y="-32" width="4" height="4" fill="#9c9c9c"/><rect x="8" y="-32" width="4" height="4" fill="#9c9c9c"/><rect x="12" y="-32" width="4" height="4" fill="#9c9c9c"/><rect x="16" y="-32" width="8" height="4" fill="#4e4e4e"/><rect x="-24" y="-32" width="16" height="4" fill="#eeeeee"/><rect x="-28" y="-28" width="8" height="4" fill="#9c9c9c"/><rect x="-20" y="-28" width="8" height="4" fill="#9c9c9c"/><rect x="-12" y="-28" width="8" height="4" fill="#4e4e4e"/><rect x="-2" y="-28" width="12" height="4" fill="#9c9c9c"/><rect x="10" y="-28" width="8" height="4" fill="#9c9c9c"/><rect x="18" y="-28" width="12" height="4" fill="#4e4e4e"/><rect x="-24" y="-28" width="8" height="4" fill="#eeeeee"/><rect x="-30" y="-24" width="8" height="4" fill="#9c9c9c"/><rect x="-22" y="-24" width="8" height="4" fill="#9c9c9c"/><rect x="-14" y="-24" width="8" height="4" fill="#4e4e4e"/><rect x="-4" y="-24" width="12" height="4" fill="#9c9c9c"/><rect x="8" y="-24" width="8" height="4" fill="#9c9c9c"/><rect x="16" y="-24" width="12" height="4" fill="#4e4e4e"/><rect x="-26" y="-20" width="8" height="4" fill="#9c9c9c"/><rect x="-18" y="-20" width="4" height="4" fill="#9c9c9c"/><rect x="-14" y="-20" width="8" height="4" fill="#4e4e4e"/><rect x="0" y="-20" width="8" height="4" fill="#9c9c9c"/><rect x="8" y="-20" width="8" height="4" fill="#9c9c9c"/><rect x="16" y="-20" width="12" height="4" fill="#4e4e4e"/><rect x="-34" y="-16" width="24" height="4" fill="#9c9c9c"/><rect x="-10" y="-16" width="20" height="4" fill="#9c9c9c"/><rect x="10" y="-16" width="30" height="4" fill="#4e4e4e"/><rect x="-34" y="-12" width="24" height="4" fill="#9c9c9c"/><rect x="-10" y="-12" width="16" height="4" fill="#9c9c9c"/><rect x="6" y="-12" width="30" height="4" fill="#4e4e4e"/><rect x="-38" y="-8" width="24" height="4" fill="#9c9c9c"/><rect x="-14" y="-8" width="20" height="4" fill="#9c9c9c"/><rect x="6" y="-8" width="30" height="4" fill="#4e4e4e"/><rect x="-44" y="-4" width="32" height="4" fill="#9c9c9c"/><rect x="-12" y="-4" width="20" height="4" fill="#9c9c9c"/><rect x="8" y="-4" width="34" height="4" fill="#4e4e4e"/></g></g><g transform="translate(850,160)"><animateTransform attributeName="transform" type="translate" calcMode="discrete" values="850,160;1130,196;546,114;590,120;680,136;850,160;1130,196;546,114;590,120;680,136;850,160;1130,196;546,114;590,120;680,136;850,160;1130,196;546,114;590,120;680,136" keyTimes="0;0.0375;0.075;0.1125;0.15;0.1875;0.225;0.2625;0.3;0.3375;0.625;0.6625;0.7;0.7375;0.775;0.8125;0.85;0.8875;0.925;0.9625" dur="24s" repeatCount="indefinite"/><g transform="scale(1.8)"><animateTransform attributeName="transform" type="scale" calcMode="discrete" values="1.8;2.8;0.3;0.6;1.1;1.8;2.8;0.3;0.6;1.1;1.8;2.8;0.3;0.6;1.1;1.8;2.8;0.3;0.6;1.1" keyTimes="0;0.0375;0.075;0.1125;0.15;0.1875;0.225;0.2625;0.3;0.3375;0.625;0.6625;0.7;0.7375;0.775;0.8125;0.85;0.8875;0.925;0.9625" dur="24s" repeatCount="indefinite"/><rect x="-4" y="-56" width="4" height="4" fill="#9c9c9c"/><rect x="0" y="-56" width="4" height="4" fill="#9c9c9c"/><rect x="-4" y="-56" width="8" height="4" fill="#eeeeee"/><rect x="-4" y="-52" width="4" height="4" fill="#9c9c9c"/><rect x="0" y="-52" width="4" height="4" fill="#9c9c9c"/><rect x="4" y="-52" width="4" height="4" fill="#4e4e4e"/><rect x="-4" y="-52" width="8" height="4" fill="#eeeeee"/><rect x="-4" y="-48" width="4" height="4" fill="#9c9c9c"/><rect x="0" y="-48" width="4" height="4" fill="#9c9c9c"/><rect x="4" y="-48" width="4" height="4" fill="#4e4e4e"/><rect x="-8" y="-48" width="16" height="4" fill="#eeeeee"/><rect x="-14" y="-44" width="8" height="4" fill="#9c9c9c"/><rect x="-6" y="-44" width="8" height="4" fill="#9c9c9c"/><rect x="2" y="-44" width="8" height="4" fill="#4e4e4e"/><rect x="-8" y="-44" width="8" height="4" fill="#eeeeee"/><rect x="-12" y="-40" width="8" height="4" fill="#9c9c9c"/><rect x="-4" y="-40" width="8" height="4" fill="#9c9c9c"/><rect x="4" y="-40" width="8" height="4" fill="#4e4e4e"/><rect x="-6" y="-36" width="4" height="4" fill="#9c9c9c"/><rect x="-2" y="-36" width="4" height="4" fill="#9c9c9c"/><rect x="2" y="-36" width="8" height="4" fill="#4e4e4e"/><rect x="-22" y="-32" width="16" height="4" fill="#9c9c9c"/><rect x="-6" y="-32" width="8" height="4" fill="#9c9c9c"/><rect x="2" y="-32" width="16" height="4" fill="#4e4e4e"/><rect x="-18" y="-28" width="12" height="4" fill="#9c9c9c"/><rect x="-6" y="-28" width="8" height="4" fill="#9c9c9c"/><rect x="2" y="-28" width="16" height="4" fill="#4e4e4e"/><rect x="-16" y="-24" width="12" height="4" fill="#9c9c9c"/><rect x="-4" y="-24" width="8" height="4" fill="#9c9c9c"/><rect x="4" y="-24" width="16" height="4" fill="#4e4e4e"/><rect x="-28" y="-20" width="20" height="4" fill="#9c9c9c"/><rect x="-8" y="-20" width="12" height="4" fill="#9c9c9c"/><rect x="4" y="-20" width="20" height="4" fill="#4e4e4e"/><rect x="-24" y="-16" width="16" height="4" fill="#9c9c9c"/><rect x="-8" y="-16" width="12" height="4" fill="#9c9c9c"/><rect x="4" y="-16" width="20" height="4" fill="#4e4e4e"/><rect x="-26" y="-12" width="20" height="4" fill="#9c9c9c"/><rect x="-6" y="-12" width="16" height="4" fill="#9c9c9c"/><rect x="10" y="-12" width="20" height="4" fill="#4e4e4e"/><rect x="-24" y="-8" width="16" height="4" fill="#9c9c9c"/><rect x="-8" y="-8" width="12" height="4" fill="#9c9c9c"/><rect x="4" y="-8" width="20" height="4" fill="#4e4e4e"/><rect x="-34" y="-4" width="24" height="4" fill="#9c9c9c"/><rect x="-10" y="-4" width="16" height="4" fill="#9c9c9c"/><rect x="6" y="-4" width="28" height="4" fill="#4e4e4e"/></g></g><polygon points="512,112 524,112 690,280 400,280" fill="#4e4e4e"/><polygon points="512,112 515,112 410,280 400,280" fill="#eeeeee"/><polygon points="521,112 524,112 690,280 680,280" fill="#eeeeee"/><g transform="translate(517,122)"><animateTransform attributeName="transform" type="translate" calcMode="discrete" values="517,122;519,146;523,182;529,230;517,122;519,146;523,182;529,230;517,122;519,146;523,182;529,230;517,122;519,146;523,182;529,230;517,122;519,146;523,182;529,230" keyTimes="0;0.0375;0.075;0.1125;0.15;0.1875;0.225;0.2625;0.3;0.3375;0.625;0.6625;0.7;0.7375;0.775;0.8125;0.85;0.8875;0.925;0.9625" dur="24s" repeatCount="indefinite"/><g transform="scale(1)"><animateTransform attributeName="transform" type="scale" calcMode="discrete" values="1;1.8;2.8;4.2;1;1.8;2.8;4.2;1;1.8;2.8;4.2;1;1.8;2.8;4.2;1;1.8;2.8;4.2" keyTimes="0;0.0375;0.075;0.1125;0.15;0.1875;0.225;0.2625;0.3;0.3375;0.625;0.6625;0.7;0.7375;0.775;0.8125;0.85;0.8875;0.925;0.9625" dur="24s" repeatCount="indefinite"/><rect x="0" y="0" width="4" height="7" fill="#eeeeee"/></g></g><g transform="translate(519,146)"><animateTransform attributeName="transform" type="translate" calcMode="discrete" values="519,146;523,182;529,230;517,122;519,146;523,182;529,230;517,122;519,146;523,182;529,230;517,122;519,146;523,182;529,230;517,122;519,146;523,182;529,230;517,122" keyTimes="0;0.0375;0.075;0.1125;0.15;0.1875;0.225;0.2625;0.3;0.3375;0.625;0.6625;0.7;0.7375;0.775;0.8125;0.85;0.8875;0.925;0.9625" dur="24s" repeatCount="indefinite"/><g transform="scale(1.8)"><animateTransform attributeName="transform" type="scale" calcMode="discrete" values="1.8;2.8;4.2;1;1.8;2.8;4.2;1;1.8;2.8;4.2;1;1.8;2.8;4.2;1;1.8;2.8;4.2;1" keyTimes="0;0.0375;0.075;0.1125;0.15;0.1875;0.225;0.2625;0.3;0.3375;0.625;0.6625;0.7;0.7375;0.775;0.8125;0.85;0.8875;0.925;0.9625" dur="24s" repeatCount="indefinite"/><rect x="0" y="0" width="4" height="7" fill="#eeeeee"/></g></g><g transform="translate(523,182)"><animateTransform attributeName="transform" type="translate" calcMode="discrete" values="523,182;529,230;517,122;519,146;523,182;529,230;517,122;519,146;523,182;529,230;517,122;519,146;523,182;529,230;517,122;519,146;523,182;529,230;517,122;519,146" keyTimes="0;0.0375;0.075;0.1125;0.15;0.1875;0.225;0.2625;0.3;0.3375;0.625;0.6625;0.7;0.7375;0.775;0.8125;0.85;0.8875;0.925;0.9625" dur="24s" repeatCount="indefinite"/><g transform="scale(2.8)"><animateTransform attributeName="transform" type="scale" calcMode="discrete" values="2.8;4.2;1;1.8;2.8;4.2;1;1.8;2.8;4.2;1;1.8;2.8;4.2;1;1.8;2.8;4.2;1;1.8" keyTimes="0;0.0375;0.075;0.1125;0.15;0.1875;0.225;0.2625;0.3;0.3375;0.625;0.6625;0.7;0.7375;0.775;0.8125;0.85;0.8875;0.925;0.9625" dur="24s" repeatCount="indefinite"/><rect x="0" y="0" width="4" height="7" fill="#eeeeee"/></g></g><g transform="translate(529,230)"><animateTransform attributeName="transform" type="translate" calcMode="discrete" values="529,230;517,122;519,146;523,182;529,230;517,122;519,146;523,182;529,230;517,122;519,146;523,182;529,230;517,122;519,146;523,182;529,230;517,122;519,146;523,182" keyTimes="0;0.0375;0.075;0.1125;0.15;0.1875;0.225;0.2625;0.3;0.3375;0.625;0.6625;0.7;0.7375;0.775;0.8125;0.85;0.8875;0.925;0.9625" dur="24s" repeatCount="indefinite"/><g transform="scale(4.2)"><animateTransform attributeName="transform" type="scale" calcMode="discrete" values="4.2;1;1.8;2.8;4.2;1;1.8;2.8;4.2;1;1.8;2.8;4.2;1;1.8;2.8;4.2;1;1.8;2.8" keyTimes="0;0.0375;0.075;0.1125;0.15;0.1875;0.225;0.2625;0.3;0.3375;0.625;0.6625;0.7;0.7375;0.775;0.8125;0.85;0.8875;0.925;0.9625" dur="24s" repeatCount="indefinite"/><rect x="0" y="0" width="4" height="7" fill="#eeeeee"/></g></g><g transform="translate(504,124)"><animateTransform attributeName="transform" type="translate" calcMode="discrete" values="504,124;492,150;472,188;442,238;504,124;492,150;472,188;442,238;504,124;492,150;472,188;442,238;504,124;492,150;472,188;442,238;504,124;492,150;472,188;442,238" keyTimes="0;0.0375;0.075;0.1125;0.15;0.1875;0.225;0.2625;0.3;0.3375;0.625;0.6625;0.7;0.7375;0.775;0.8125;0.85;0.8875;0.925;0.9625" dur="24s" repeatCount="indefinite"/><g transform="scale(1)"><animateTransform attributeName="transform" type="scale" calcMode="discrete" values="1;1.6;2.4;3.4;1;1.6;2.4;3.4;1;1.6;2.4;3.4;1;1.6;2.4;3.4;1;1.6;2.4;3.4" keyTimes="0;0.0375;0.075;0.1125;0.15;0.1875;0.225;0.2625;0.3;0.3375;0.625;0.6625;0.7;0.7375;0.775;0.8125;0.85;0.8875;0.925;0.9625" dur="24s" repeatCount="indefinite"/><rect x="0" y="-10" width="4" height="10" fill="#eeeeee"/><rect x="0" y="-10" width="4" height="3" fill="#4e4e4e"/></g></g><g transform="translate(472,188)"><animateTransform attributeName="transform" type="translate" calcMode="discrete" values="472,188;442,238;504,124;492,150;472,188;442,238;504,124;492,150;472,188;442,238;504,124;492,150;472,188;442,238;504,124;492,150;472,188;442,238;504,124;492,150" keyTimes="0;0.0375;0.075;0.1125;0.15;0.1875;0.225;0.2625;0.3;0.3375;0.625;0.6625;0.7;0.7375;0.775;0.8125;0.85;0.8875;0.925;0.9625" dur="24s" repeatCount="indefinite"/><g transform="scale(2.4)"><animateTransform attributeName="transform" type="scale" calcMode="discrete" values="2.4;3.4;1;1.6;2.4;3.4;1;1.6;2.4;3.4;1;1.6;2.4;3.4;1;1.6;2.4;3.4;1;1.6" keyTimes="0;0.0375;0.075;0.1125;0.15;0.1875;0.225;0.2625;0.3;0.3375;0.625;0.6625;0.7;0.7375;0.775;0.8125;0.85;0.8875;0.925;0.9625" dur="24s" repeatCount="indefinite"/><rect x="0" y="-10" width="4" height="10" fill="#eeeeee"/><rect x="0" y="-10" width="4" height="3" fill="#4e4e4e"/></g></g><g transform="translate(550,150)"><animateTransform attributeName="transform" type="translate" calcMode="discrete" values="550,150;576,188;614,238;534,124;550,150;576,188;614,238;534,124;550,150;576,188;614,238;534,124;550,150;576,188;614,238;534,124;550,150;576,188;614,238;534,124" keyTimes="0;0.0375;0.075;0.1125;0.15;0.1875;0.225;0.2625;0.3;0.3375;0.625;0.6625;0.7;0.7375;0.775;0.8125;0.85;0.8875;0.925;0.9625" dur="24s" repeatCount="indefinite"/><g transform="scale(1.6)"><animateTransform attributeName="transform" type="scale" calcMode="discrete" values="1.6;2.4;3.4;1;1.6;2.4;3.4;1;1.6;2.4;3.4;1;1.6;2.4;3.4;1;1.6;2.4;3.4;1" keyTimes="0;0.0375;0.075;0.1125;0.15;0.1875;0.225;0.2625;0.3;0.3375;0.625;0.6625;0.7;0.7375;0.775;0.8125;0.85;0.8875;0.925;0.9625" dur="24s" repeatCount="indefinite"/><rect x="0" y="-10" width="4" height="10" fill="#eeeeee"/><rect x="0" y="-10" width="4" height="3" fill="#4e4e4e"/></g></g><g transform="translate(614,238)"><animateTransform attributeName="transform" type="translate" calcMode="discrete" values="614,238;534,124;550,150;576,188;614,238;534,124;550,150;576,188;614,238;534,124;550,150;576,188;614,238;534,124;550,150;576,188;614,238;534,124;550,150;576,188" keyTimes="0;0.0375;0.075;0.1125;0.15;0.1875;0.225;0.2625;0.3;0.3375;0.625;0.6625;0.7;0.7375;0.775;0.8125;0.85;0.8875;0.925;0.9625" dur="24s" repeatCount="indefinite"/><g transform="scale(3.4)"><animateTransform attributeName="transform" type="scale" calcMode="discrete" values="3.4;1;1.6;2.4;3.4;1;1.6;2.4;3.4;1;1.6;2.4;3.4;1;1.6;2.4;3.4;1;1.6;2.4" keyTimes="0;0.0375;0.075;0.1125;0.15;0.1875;0.225;0.2625;0.3;0.3375;0.625;0.6625;0.7;0.7375;0.775;0.8125;0.85;0.8875;0.925;0.9625" dur="24s" repeatCount="indefinite"/><rect x="0" y="-10" width="4" height="10" fill="#eeeeee"/><rect x="0" y="-10" width="4" height="3" fill="#4e4e4e"/></g></g><g><animateTransform attributeName="transform" type="rotate" calcMode="discrete" values="0,560,212;-8,560,212;0,560,212" keyTimes="0;0.375;0.625" dur="24s" repeatCount="indefinite"/><g transform="translate(560,212)"><rect x="-9" y="-30" width="8" height="24" fill="#101010"/><rect x="-5" y="-26" width="10" height="26" fill="#101010"/><rect x="-3" y="-16" width="6" height="4" fill="#eeeeee"/><rect x="-3" y="-36" width="6" height="10" fill="#4e4e4e"/><rect x="-10" y="-41" width="14" height="5" fill="#101010"/><rect x="-7" y="-34" width="4" height="4" fill="#4e4e4e"/><rect x="-11" y="-32" width="4" height="4" fill="#4e4e4e"/><rect x="-15" y="-36" width="4" height="8" fill="#4e4e4e"/><rect x="-25" y="-38" width="24" height="4" fill="#101010"/><rect x="-25" y="-34" width="4" height="6" fill="#101010"/><rect x="-5" y="-34" width="4" height="6" fill="#101010"/><rect x="-10" y="-12" width="6" height="4" fill="#eeeeee"/><g opacity="0"><rect x="-8" y="-3" width="16" height="3" fill="#101010"/><animate attributeName="opacity" calcMode="discrete" values="0;1;0" keyTimes="0;0.375;0.625" dur="24s" repeatCount="indefinite"/></g></g></g><g transform="translate(584,150)" opacity="0"><rect x="0" y="0" width="20" height="24" fill="#eeeeee"/><rect x="8" y="4" width="4" height="10" fill="#101010"/><rect x="8" y="17" width="4" height="4" fill="#101010"/><animate attributeName="opacity" calcMode="discrete" values="0;1;0" keyTimes="0;0.375;0.425" dur="24s" repeatCount="indefinite"/></g><g transform="translate(576,196)" opacity="0"><animate attributeName="opacity" calcMode="discrete" values="0;1;0" keyTimes="0;0.425;0.475" dur="24s" repeatCount="indefinite"/><g><animateTransform attributeName="transform" type="rotate" calcMode="discrete" values="-18;14" keyTimes="0;0.5" dur="0.6s" repeatCount="indefinite"/><rect x="-2" y="-18" width="4" height="18" fill="#4e4e4e"/><rect x="-4" y="-22" width="8" height="4" fill="#4e4e4e"/></g></g><g transform="translate(592,178)" opacity="0"><animate attributeName="opacity" calcMode="discrete" values="0;1;0" keyTimes="0;0.475;0.541667" dur="24s" repeatCount="indefinite"/><rect x="-8" y="-12" width="16" height="4" fill="#101010"/><rect x="-8" y="4" width="16" height="4" fill="#101010"/><rect x="-12" y="-8" width="4" height="12" fill="#101010"/><rect x="8" y="-8" width="4" height="12" fill="#101010"/></g><g transform="translate(594,186)" opacity="0"><animate attributeName="opacity" calcMode="discrete" values="0;1;0" keyTimes="0;0.541667;0.625" dur="24s" repeatCount="indefinite"/><rect x="-6" y="22" width="16" height="4" fill="#4e4e4e"/><rect x="0" y="0" width="4" height="22" fill="#4e4e4e"/><rect x="-6" y="-6" width="16" height="4" fill="#101010"><animate attributeName="y" calcMode="discrete" values="-6;8" keyTimes="0;0.5" dur="0.5s" repeatCount="indefinite"/></rect></g><g opacity="0"><animate attributeName="opacity" calcMode="discrete" values="0;1;0" keyTimes="0;0.608333;0.65" dur="24s" repeatCount="indefinite"/><rect x="540" y="174" width="4" height="4" fill="#9c9c9c"/><rect x="566" y="168" width="4" height="4" fill="#9c9c9c"/><rect x="556" y="192" width="4" height="4" fill="#9c9c9c"/></g></svg>