<svg xmlns="http://www.w3.org/2000/svg" viewBox="0 0 1160 280" width="1160" height="280" shape-rendering="crispEdges" role="img" aria-label="Pixel bike rides a winding road through moving mountains toward a sunrise pass, gets a flat, fixes it with lever, tube, and pump, and rides on."><title>roll, break, fix, roll again</title><rect x="0" y="0" width="1160" height="14" fill="#141a44"/><rect x="0" y="14" width="1160" height="14" fill="#232457"/><rect x="0" y="28" width="1160" height="14" fill="#3c2f6b"/><rect x="0" y="42" width="1160" height="14" fill="#63407c"/><rect x="0" y="56" width="1160" height="14" fill="#95517f"/><rect x="0" y="70" width="1160" height="14" fill="#c66a70"/><rect x="0" y="84" width="1160" height="14" fill="#e98d5a"/><rect x="0" y="98" width="1160" height="14" fill="#f7b96b"/><rect x="90" y="12" width="4" height="4" fill="#ffffff"><animate attributeName="opacity" calcMode="discrete" values="1;0" keyTimes="0;0.5" dur="1.4s" repeatCount="indefinite"/></rect><rect x="210" y="30" width="4" height="4" fill="#ffffff"><animate attributeName="opacity" calcMode="discrete" values="1;0" keyTimes="0;0.5" dur="1.8s" repeatCount="indefinite"/></rect><rect x="700" y="8" width="4" height="4" fill="#ffffff"><animate attributeName="opacity" calcMode="discrete" values="1;0" keyTimes="0;0.5" dur="2.2s" repeatCount="indefinite"/></rect><rect x="930" y="22" width="4" height="4" fill="#ffffff"><animate attributeName="opacity" calcMode="discrete" values="1;0" keyTimes="0;0.5" dur="2.6s" repeatCount="indefinite"/></rect><rect x="1080" y="36" width="4" height="4" fill="#ffffff"><animate attributeName="opacity" calcMode="discrete" values="1;0" keyTimes="0;0.5" dur="3s" repeatCount="indefinite"/></rect><rect x="0" y="102" width="48" height="10" fill="#3a3160"/><rect x="12" y="96" width="24" height="6" fill="#3a3160"/><rect x="18" y="92" width="12" height="4" fill="#4b4278"/><rect x="48" y="98" width="32" height="14" fill="#3a3160"/><rect x="56" y="92" width="16" height="6" fill="#3a3160"/><rect x="60" y="88" width="8" height="4" fill="#4b4278"/><rect x="80" y="90" width="56" height="22" fill="#3a3160"/><rect x="94" y="84" width="28" height="6" fill="#3a3160"/><rect x="101" y="80" width="14" height="4" fill="#4b4278"/><rect x="136" y="94" width="40" height="18" fill="#3a3160"/><rect x="146" y="88" width="20" height="6" fill="#3a3160"/><rect x="151" y="84" width="10" height="4" fill="#4b4278"/><rect x="176" y="104" width="64" height="8" fill="#3a3160"/><rect x="192" y="98" width="32" height="6" fill="#3a3160"/><rect x="200" y="94" width="16" height="4" fill="#4b4278"/><rect x="240" y="100" width="36" height="12" fill="#3a3160"/><rect x="249" y="94" width="18" height="6" fill="#3a3160"/><rect x="253.5" y="90" width="9" height="4" fill="#4b4278"/><rect x="276" y="86" width="52" height="26" fill="#3a3160"/><rect x="289" y="80" width="26" height="6" fill="#3a3160"/><rect x="295.5" y="76" width="13" height="4" fill="#4b4278"/><rect x="328" y="92" width="44" height="20" fill="#3a3160"/><rect x="339" y="86" width="22" height="6" fill="#3a3160"/><rect x="344.5" y="82" width="11" height="4" fill="#4b4278"/><rect x="372" y="102" width="60" height="10" fill="#3a3160"/><rect x="387" y="96" width="30" height="6" fill="#3a3160"/><rect x="394.5" y="92" width="15" height="4" fill="#4b4278"/><rect x="432" y="96" width="32" height="16" fill="#3a3160"/><rect x="440" y="90" width="16" height="6" fill="#3a3160"/><rect x="444" y="86" width="8" height="4" fill="#4b4278"/><rect x="464" y="82" width="48" height="30" fill="#3a3160"/><rect x="476" y="76" width="24" height="6" fill="#3a3160"/><rect x="482" y="72" width="12" height="4" fill="#4b4278"/><rect x="512" y="88" width="56" height="24" fill="#3a3160"/><rect x="526" y="82" width="28" height="6" fill="#3a3160"/><rect x="533" y="78" width="14" height="4" fill="#4b4278"/><rect x="568" y="98" width="36" height="14" fill="#3a3160"/><rect x="577" y="92" width="18" height="6" fill="#3a3160"/><rect x="581.5" y="88" width="9" height="4" fill="#4b4278"/><rect x="604" y="104" width="64" height="8" fill="#3a3160"/><rect x="620" y="98" width="32" height="6" fill="#3a3160"/><rect x="628" y="94" width="16" height="4" fill="#4b4278"/><rect x="668" y="94" width="40" height="18" fill="#3a3160"/><rect x="678" y="88" width="20" height="6" fill="#3a3160"/><rect x="683" y="84" width="10" height="4" fill="#4b4278"/><rect x="708" y="84" width="52" height="28" fill="#3a3160"/><rect x="721" y="78" width="26" height="6" fill="#3a3160"/><rect x="727.5" y="74" width="13" height="4" fill="#4b4278"/><rect x="760" y="96" width="32" height="16" fill="#3a3160"/><rect x="768" y="90" width="16" height="6" fill="#3a3160"/><rect x="772" y="86" width="8" height="4" fill="#4b4278"/><rect x="792" y="102" width="60" height="10" fill="#3a3160"/><rect x="807" y="96" width="30" height="6" fill="#3a3160"/><rect x="814.5" y="92" width="15" height="4" fill="#4b4278"/><rect x="852" y="90" width="44" height="22" fill="#3a3160"/><rect x="863" y="84" width="22" height="6" fill="#3a3160"/><rect x="868.5" y="80" width="11" height="4" fill="#4b4278"/><rect x="896" y="100" width="56" height="12" fill="#3a3160"/><rect x="910" y="94" width="28" height="6" fill="#3a3160"/><rect x="917" y="90" width="14" height="4" fill="#4b4278"/><rect x="952" y="102" width="48" height="10" fill="#3a3160"/><rect x="964" y="96" width="24" height="6" fill="#3a3160"/><rect x="970" y="92" width="12" height="4" fill="#4b4278"/><rect x="1000" y="98" width="32" height="14" fill="#3a3160"/><rect x="1008" y="92" width="16" height="6" fill="#3a3160"/><rect x="1012" y="88" width="8" height="4" fill="#4b4278"/><rect x="1032" y="90" width="56" height="22" fill="#3a3160"/><rect x="1046" y="84" width="28" height="6" fill="#3a3160"/><rect x="1053" y="80" width="14" height="4" fill="#4b4278"/><rect x="1088" y="94" width="40" height="18" fill="#3a3160"/><rect x="1098" y="88" width="20" height="6" fill="#3a3160"/><rect x="1103" y="84" width="10" height="4" fill="#4b4278"/><rect x="1128" y="104" width="64" height="8" fill="#3a3160"/><rect x="1144" y="98" width="32" height="6" fill="#3a3160"/><rect x="1152" y="94" width="16" height="4" fill="#4b4278"/><rect x="0" y="112" width="1160" height="8" fill="#7c9757"/><rect x="0" y="120" width="1160" height="10" fill="#7c9757"/><rect x="0" y="130" width="1160" height="12" fill="#688a4c"/><rect x="0" y="142" width="1160" height="16" fill="#688a4c"/><rect x="0" y="158" width="1160" height="20" fill="#547842"/><rect x="0" y="178" width="1160" height="26" fill="#547842"/><rect x="0" y="204" width="1160" height="34" fill="#436639"/><rect x="0" y="238" width="1160" height="42" fill="#436639"/><rect x="576" y="80" width="12" height="4" fill="#ffd98a"/><rect x="572" y="84" width="20" height="4" fill="#ffd98a"/><rect x="568" y="88" width="28" height="4" fill="#ffd98a"/><rect x="564" y="92" width="36" height="4" fill="#ffd98a"/><rect x="560" y="96" width="44" height="4" fill="#fff3c4"/><rect x="558" y="100" width="48" height="4" fill="#fff3c4"/><rect x="556" y="104" width="52" height="4" fill="#fff3c4"/><rect x="554" y="108" width="56" height="4" fill="#fff3c4"/><rect x="552" y="112" width="60" height="4" fill="#fff3c4"/><rect x="510" y="92" width="12" height="4" fill="#ffd98a"><animate attributeName="opacity" calcMode="discrete" values="1;0" keyTimes="0;0.5" dur="1.2s" repeatCount="indefinite"/></rect><rect x="626" y="92" width="12" height="4" fill="#ffd98a"><animate attributeName="opacity" calcMode="discrete" values="1;0" keyTimes="0;0.5" dur="1.2s" repeatCount="indefinite"/></rect><rect x="518" y="70" width="12" height="4" fill="#ffd98a"><animate attributeName="opacity" calcMode="discrete" values="1;0" keyTimes="0;0.5" dur="1.2s" repeatCount="indefinite"/></rect><rect x="622" y="70" width="12" height="4" fill="#ffd98a"><animate attributeName="opacity" calcMode="discrete" values="1;0" keyTimes="0;0.5" dur="1.2s" repeatCount="indefinite"/></rect><g transform="translate(525,118)"><animateTransform attributeName="transform" type="translate" calcMode="discrete" values="525,118;465,126;370,142;210,172;0,240;525,118;465,126;370,142;210,172;0,240;525,118;465,126;370,142;210,172;0,240;525,118;465,126;370,142;210,172;0,240" keyTimes="0;0.0375;0.075;0.1125;0.15;0.1875;0.225;0.2625;0.3;0.3375;0.625;0.6625;0.7;0.7375;0.775;0.8125;0.85;0.8875;0.925;0.9625" dur="24s" repeatCount="indefinite"/><g transform="scale(0.35)"><animateTransform attributeName="transform" type="scale" calcMode="discrete" values="0.35;0.7;1.3;2.2;3.6;0.35;0.7;1.3;2.2;3.6;0.35;0.7;1.3;2.2;3.6;0.35;0.7;1.3;2.2;3.6" keyTimes="0;0.0375;0.075;0.1125;0.15;0.1875;0.225;0.2625;0.3;0.3375;0.625;0.6625;0.7;0.7375;0.775;0.8125;0.85;0.8875;0.925;0.9625" dur="24s" repeatCount="indefinite"/><rect x="-4" y="-56" width="4" height="4" fill="#7d84a0"/><rect x="0" y="-56" width="4" height="4" fill="#a8adbf"/><rect x="-4" y="-56" width="8" height="4" fill="#f4f7fb"/><rect x="-4" y="-52" width="4" height="4" fill="#4e5570"/><rect x="0" y="-52" width="4" height="4" fill="#7d84a0"/><rect x="4" y="-52" width="4" height="4" fill="#a8adbf"/><rect x="-4" y="-52" width="8" height="4" fill="#f4f7fb"/><rect x="-8" y="-48" width="8" height="4" fill="#4e5570"/><rect x="0" y="-48" width="4" height="4" fill="#7d84a0"/><rect x="4" y="-48" width="4" height="4" fill="#a8adbf"/><rect x="-8" y="-48" width="16" height="4" fill="#f4f7fb"/><rect x="-12" y="-44" width="8" height="4" fill="#4e5570"/><rect x="-4" y="-44" width="4" height="4" fill="#7d84a0"/><rect x="0" y="-44" width="8" height="4" fill="#a8adbf"/><rect x="0" y="-44" width="8" height="4" fill="#f4f7fb"/><rect x="-12" y="-40" width="8" height="4" fill="#4e5570"/><rect x="-4" y="-40" width="8" height="4" fill="#7d84a0"/><rect x="4" y="-40" width="8" height="4" fill="#a8adbf"/><rect x="-8" y="-36" width="8" height="4" fill="#4e5570"/><rect x="0" y="-36" width="4" height="4" fill="#7d84a0"/><rect x="4" y="-36" width="8" height="4" fill="#a8adbf"/><rect x="-18" y="-32" width="16" height="4" fill="#4e5570"/><rect x="-2" y="-32" width="8" height="4" fill="#7d84a0"/><rect x="6" y="-32" width="12" height="4" fill="#a8adbf"/><rect x="-16" y="-28" width="12" height="4" fill="#4e5570"/><rect x="-4" y="-28" width="8" height="4" fill="#7d84a0"/><rect x="4" y="-28" width="12" height="4" fill="#a8adbf"/><rect x="-18" y="-24" width="16" height="4" fill="#4e5570"/><rect x="-2" y="-24" width="8" height="4" fill="#7d84a0"/><rect x="6" y="-24" width="16" height="4" fill="#a8adbf"/><rect x="-22" y="-20" width="16" height="4" fill="#4e5570"/><rect x="-6" y="-20" width="12" height="4" fill="#7d84a0"/><rect x="6" y="-20" width="16" height="4" fill="#a8adbf"/><rect x="-24" y="-16" width="20" height="4" fill="#4e5570"/><rect x="-4" y="-16" width="12" height="4" fill="#7d84a0"/><rect x="8" y="-16" width="16" height="4" fill="#a8adbf"/><rect x="-24" y="-12" width="20" height="4" fill="#4e5570"/><rect x="-4" y="-12" width="12" height="4" fill="#7d84a0"/><rect x="8" y="-12" width="20" height="4" fill="#a8adbf"/><rect x="-26" y="-8" width="20" height="4" fill="#4e5570"/><rect x="-6" y="-8" width="12" height="4" fill="#7d84a0"/><rect x="6" y="-8" width="20" height="4" fill="#a8adbf"/><rect x="-32" y="-4" width="24" height="4" fill="#4e5570"/><rect x="-8" y="-4" width="16" height="4" fill="#7d84a0"/><rect x="8" y="-4" width="24" height="4" fill="#a8adbf"/></g></g><g transform="translate(370,142)"><animateTransform attributeName="transform" type="translate" calcMode="discrete" values="370,142;210,172;0,240;525,118;465,126;370,142;210,172;0,240;525,118;465,126;370,142;210,172;0,240;525,118;465,126;370,142;210,172;0,240;525,118;465,126" keyTimes="0;0.0375;0.075;0.1125;0.15;0.1875;0.225;0.2625;0.3;0.3375;0.625;0.6625;0.7;0.7375;0.775;0.8125;0.85;0.8875;0.925;0.9625" dur="24s" repeatCount="indefinite"/><g transform="scale(1.3)"><animateTransform attributeName="transform" type="scale" calcMode="discrete" values="1.3;2.2;3.6;0.35;0.7;1.3;2.2;3.6;0.35;0.7;1.3;2.2;3.6;0.35;0.7;1.3;2.2;3.6;0.35;0.7" keyTimes="0;0.0375;0.075;0.1125;0.15;0.1875;0.225;0.2625;0.3;0.3375;0.625;0.6625;0.7;0.7375;0.775;0.8125;0.85;0.8875;0.925;0.9625" dur="24s" repeatCount="indefinite"/><rect x="10" y="-52" width="4" height="4" fill="#7d84a0"/><rect x="14" y="-52" width="4" height="4" fill="#a8adbf"/><rect x="10" y="-52" width="8" height="4" fill="#f4f7fb"/><rect x="10" y="-48" width="4" height="4" fill="#7d84a0"/><rect x="14" y="-48" width="4" height="4" fill="#a8adbf"/><rect x="10" y="-48" width="8" height="4" fill="#f4f7fb"/><rect x="10" y="-44" width="4" height="4" fill="#4e5570"/><rect x="14" y="-44" width="4" height="4" fill="#7d84a0"/><rect x="18" y="-44" width="4" height="4" fill="#a8adbf"/><rect x="10" y="-44" width="8" height="4" fill="#f4f7fb"/><rect x="-20" y="-40" width="4" height="4" fill="#7d84a0"/><rect x="-16" y="-40" width="4" height="4" fill="#a8adbf"/><rect x="6" y="-40" width="8" height="4" fill="#4e5570"/><rect x="14" y="-40" width="4" height="4" fill="#7d84a0"/><rect x="18" y="-40" width="4" height="4" fill="#a8adbf"/><rect x="-20" y="-40" width="8" height="4" fill="#f4f7fb"/><rect x="14" y="-40" width="8" height="4" fill="#f4f7fb"/><rect x="-22" y="-36" width="4" height="4" fill="#4e5570"/><rect x="-18" y="-36" width="4" height="4" fill="#7d84a0"/><rect x="-14" y="-36" width="4" height="4" fill="#a8adbf"/><rect x="4" y="-36" width="8" height="4" fill="#4e5570"/><rect x="12" y="-36" width="4" height="4" fill="#7d84a0"/><rect x="16" y="-36" width="8" height="4" fill="#a8adbf"/><rect x="-20" y="-36" width="8" height="4" fill="#f4f7fb"/><rect x="-20" y="-32" width="4" height="4" fill="#4e5570"/><rect x="-16" y="-32" width="4" height="4" fill="#7d84a0"/><rect x="-12" y="-32" width="4" height="4" fill="#a8adbf"/><rect x="6" y="-32" width="8" height="4" fill="#4e5570"/><rect x="14" y="-32" width="4" height="4" fill="#7d84a0"/><rect x="18" y="-32" width="8" height="4" fill="#a8adbf"/><rect x="-24" y="-32" width="16" height="4" fill="#f4f7fb"/><rect x="-26" y="-28" width="8" height="4" fill="#4e5570"/><rect x="-18" y="-28" width="4" height="4" fill="#7d84a0"/><rect x="-14" y="-28" width="8" height="4" fill="#a8adbf"/><rect x="0" y="-28" width="12" height="4" fill="#4e5570"/><rect x="12" y="-28" width="8" height="4" fill="#7d84a0"/><rect x="20" y="-28" width="8" height="4" fill="#a8adbf"/><rect x="-16" y="-28" width="8" height="4" fill="#f4f7fb"/><rect x="-30" y="-24" width="8" height="4" fill="#4e5570"/><rect x="-22" y="-24" width="8" height="4" fill="#7d84a0"/><rect x="-14" y="-24" width="8" height="4" fill="#a8adbf"/><rect x="-4" y="-24" width="12" height="4" fill="#4e5570"/><rect x="8" y="-24" width="8" height="4" fill="#7d84a0"/><rect x="16" y="-24" width="12" height="4" fill="#a8adbf"/><rect x="-28" y="-20" width="8" height="4" fill="#4e5570"/><rect x="-20" y="-20" width="8" height="4" fill="#7d84a0"/><rect x="-12" y="-20" width="8" height="4" fill="#a8adbf"/><rect x="-2" y="-20" width="12" height="4" fill="#4e5570"/><rect x="10" y="-20" width="8" height="4" fill="#7d84a0"/><rect x="18" y="-20" width="12" height="4" fill="#a8adbf"/><rect x="-32" y="-16" width="30" height="4" fill="#4e5570"/><rect x="-2" y="-16" width="16" height="4" fill="#7d84a0"/><rect x="14" y="-16" width="24" height="4" fill="#a8adbf"/><rect x="-32" y="-12" width="26" height="4" fill="#4e5570"/><rect x="-6" y="-12" width="16" height="4" fill="#7d84a0"/><rect x="10" y="-12" width="24" height="4" fill="#a8adbf"/><rect x="-36" y="-8" width="30" height="4" fill="#4e5570"/><rect x="-6" y="-8" width="20" height="4" fill="#7d84a0"/><rect x="14" y="-8" width="24" height="4" fill="#a8adbf"/><rect x="-42" y="-4" width="34" height="4" fill="#4e5570"/><rect x="-8" y="-4" width="20" height="4" fill="#7d84a0"/><rect x="12" y="-4" width="28" height="4" fill="#a8adbf"/></g></g><g transform="translate(705,126)"><animateTransform attributeName="transform" type="translate" calcMode="discrete" values="705,126;800,142;960,172;1180,240;655,118;705,126;800,142;960,172;1180,240;655,118;705,126;800,142;960,172;1180,240;655,118;705,126;800,142;960,172;1180,240;655,118" keyTimes="0;0.0375;0.075;0.1125;0.15;0.1875;0.225;0.2625;0.3;0.3375;0.625;0.6625;0.7;0.7375;0.775;0.8125;0.85;0.8875;0.925;0.9625" dur="24s" repeatCount="indefinite"/><g transform="scale(0.7)"><animateTransform attributeName="transform" type="scale" calcMode="discrete" values="0.7;1.3;2.2;3.8;0.35;0.7;1.3;2.2;3.8;0.35;0.7;1.3;2.2;3.8;0.35;0.7;1.3;2.2;3.8;0.35" keyTimes="0;0.0375;0.075;0.1125;0.15;0.1875;0.225;0.2625;0.3;0.3375;0.625;0.6625;0.7;0.7375;0.775;0.8125;0.85;0.8875;0.925;0.9625" dur="24s" repeatCount="indefinite"/><rect x="10" y="-52" width="4" height="4" fill="#a8adbf"/><rect x="14" y="-52" width="4" height="4" fill="#7d84a0"/><rect x="10" y="-52" width="8" height="4" fill="#f4f7fb"/><rect x="10" y="-48" width="4" height="4" fill="#a8adbf"/><rect x="14" y="-48" width="4" height="4" fill="#7d84a0"/><rect x="10" y="-48" width="8" height="4" fill="#f4f7fb"/><rect x="10" y="-44" width="4" height="4" fill="#a8adbf"/><rect x="14" y="-44" width="4" height="4" fill="#7d84a0"/><rect x="18" y="-44" width="4" height="4" fill="#4e5570"/><rect x="10" y="-44" width="8" height="4" fill="#f4f7fb"/><rect x="-20" y="-40" width="4" height="4" fill="#a8adbf"/><rect x="-16" y="-40" width="4" height="4" fill="#7d84a0"/><rect x="6" y="-40" width="4" height="4" fill="#a8adbf"/><rect x="10" y="-40" width="4" height="4" fill="#7d84a0"/><rect x="14" y="-40" width="8" height="4" fill="#4e5570"/><rect x="-20" y="-40" width="8" height="4" fill="#f4f7fb"/><rect x="6" y="-40" width="8" height="4" fill="#f4f7fb"/><rect x="-22" y="-36" width="4" height="4" fill="#a8adbf"/><rect x="-18" y="-36" width="4" height="4" fill="#7d84a0"/><rect x="-14" y="-36" width="4" height="4" fill="#4e5570"/><rect x="4" y="-36" width="8" height="4" fill="#a8adbf"/><rect x="12" y="-36" width="4" height="4" fill="#7d84a0"/><rect x="16" y="-36" width="8" height="4" fill="#4e5570"/><rect x="-20" y="-36" width="8" height="4" fill="#f4f7fb"/><rect x="-20" y="-32" width="4" height="4" fill="#a8adbf"/><rect x="-16" y="-32" width="4" height="4" fill="#7d84a0"/><rect x="-12" y="-32" width="4" height="4" fill="#4e5570"/><rect x="6" y="-32" width="8" height="4" fill="#a8adbf"/><rect x="14" y="-32" width="4" height="4" fill="#7d84a0"/><rect x="18" y="-32" width="8" height="4" fill="#4e5570"/><rect x="-24" y="-32" width="16" height="4" fill="#f4f7fb"/><rect x="-26" y="-28" width="8" height="4" fill="#a8adbf"/><rect x="-18" y="-28" width="4" height="4" fill="#7d84a0"/><rect x="-14" y="-28" width="8" height="4" fill="#4e5570"/><rect x="0" y="-28" width="8" height="4" fill="#a8adbf"/><rect x="8" y="-28" width="8" height="4" fill="#7d84a0"/><rect x="16" y="-28" width="12" height="4" fill="#4e5570"/><rect x="-24" y="-28" width="8" height="4" fill="#f4f7fb"/><rect x="-30" y="-24" width="8" height="4" fill="#a8adbf"/><rect x="-22" y="-24" width="8" height="4" fill="#7d84a0"/><rect x="-14" y="-24" width="8" height="4" fill="#4e5570"/><rect x="-4" y="-24" width="12" height="4" fill="#a8adbf"/><rect x="8" y="-24" width="8" height="4" fill="#7d84a0"/><rect x="16" y="-24" width="12" height="4" fill="#4e5570"/><rect x="-28" y="-20" width="8" height="4" fill="#a8adbf"/><rect x="-20" y="-20" width="8" height="4" fill="#7d84a0"/><rect x="-12" y="-20" width="8" height="4" fill="#4e5570"/><rect x="-2" y="-20" width="12" height="4" fill="#a8adbf"/><rect x="10" y="-20" width="8" height="4" fill="#7d84a0"/><rect x="18" y="-20" width="12" height="4" fill="#4e5570"/><rect x="-32" y="-16" width="24" height="4" fill="#a8adbf"/><rect x="-8" y="-16" width="16" height="4" fill="#7d84a0"/><rect x="8" y="-16" width="30" height="4" fill="#4e5570"/><rect x="-32" y="-12" width="24" height="4" fill="#a8adbf"/><rect x="-8" y="-12" width="16" height="4" fill="#7d84a0"/><rect x="8" y="-12" width="26" height="4" fill="#4e5570"/><rect x="-36" y="-8" width="24" height="4" fill="#a8adbf"/><rect x="-12" y="-8" width="20" height="4" fill="#7d84a0"/><rect x="8" y="-8" width="30" height="4" fill="#4e5570"/><rect x="-42" y="-4" width="28" height="4" fill="#a8adbf"/><rect x="-14" y="-4" width="20" height="4" fill="#7d84a0"/><rect x="6" y="-4" width="34" height="4" fill="#4e5570"/></g></g><g transform="translate(960,172)"><animateTransform attributeName="transform" type="translate" calcMode="discrete" values="960,172;1180,240;655,118;705,126;800,142;960,172;1180,240;655,118;705,126;800,142;960,172;1180,240;655,118;705,126;800,142;960,172;1180,240;655,118;705,126;800,142" keyTimes="0;0.0375;0.075;0.1125;0.15;0.1875;0.225;0.2625;0.3;0.3375;0.625;0.6625;0.7;0.7375;0.775;0.8125;0.85;0.8875;0.925;0.9625" dur="24s" repeatCount="indefinite"/><g transform="scale(2.2)"><animateTransform attributeName="transform" type="scale" calcMode="discrete" values="2.2;3.8;0.35;0.7;1.3;2.2;3.8;0.35;0.7;1.3;2.2;3.8;0.35;0.7;1.3;2.2;3.8;0.35;0.7;1.3" keyTimes="0;0.0375;0.075;0.1125;0.15;0.1875;0.225;0.2625;0.3;0.3375;0.625;0.6625;0.7;0.7375;0.775;0.8125;0.85;0.8875;0.925;0.9625" dur="24s" repeatCount="indefinite"/><rect x="-4" y="-56" width="4" height="4" fill="#a8adbf"/><rect x="0" y="-56" width="4" height="4" fill="#7d84a0"/><rect x="-4" y="-56" width="8" height="4" fill="#f4f7fb"/><rect x="-4" y="-52" width="4" height="4" fill="#a8adbf"/><rect x="0" y="-52" width="4" height="4" fill="#7d84a0"/><rect x="4" y="-52" width="4" height="4" fill="#4e5570"/><rect x="-4" y="-52" width="8" height="4" fill="#f4f7fb"/><rect x="-8" y="-48" width="4" height="4" fill="#a8adbf"/><rect x="-4" y="-48" width="4" height="4" fill="#7d84a0"/><rect x="0" y="-48" width="8" height="4" fill="#4e5570"/><rect x="-8" y="-48" width="16" height="4" fill="#f4f7fb"/><rect x="-12" y="-44" width="8" height="4" fill="#a8adbf"/><rect x="-4" y="-44" width="4" height="4" fill="#7d84a0"/><rect x="0" y="-44" width="8" height="4" fill="#4e5570"/><rect x="-8" y="-44" width="8" height="4" fill="#f4f7fb"/><rect x="-12" y="-40" width="8" height="4" fill="#a8adbf"/><rect x="-4" y="-40" width="8" height="4" fill="#7d84a0"/><rect x="4" y="-40" width="8" height="4" fill="#4e5570"/><rect x="-8" y="-36" width="8" height="4" fill="#a8adbf"/><rect x="0" y="-36" width="4" height="4" fill="#7d84a0"/><rect x="4" y="-36" width="8" height="4" fill="#4e5570"/><rect x="-18" y="-32" width="12" height="4" fill="#a8adbf"/><rect x="-6" y="-32" width="8" height="4" fill="#7d84a0"/><rect x="2" y="-32" width="16" height="4" fill="#4e5570"/><rect x="-16" y="-28" width="12" height="4" fill="#a8adbf"/><rect x="-4" y="-28" width="8" height="4" fill="#7d84a0"/><rect x="4" y="-28" width="12" height="4" fill="#4e5570"/><rect x="-18" y="-24" width="16" height="4" fill="#a8adbf"/><rect x="-2" y="-24" width="8" height="4" fill="#7d84a0"/><rect x="6" y="-24" width="16" height="4" fill="#4e5570"/><rect x="-22" y="-20" width="16" height="4" fill="#a8adbf"/><rect x="-6" y="-20" width="12" height="4" fill="#7d84a0"/><rect x="6" y="-20" width="16" height="4" fill="#4e5570"/><rect x="-24" y="-16" width="16" height="4" fill="#a8adbf"/><rect x="-8" y="-16" width="12" height="4" fill="#7d84a0"/><rect x="4" y="-16" width="20" height="4" fill="#4e5570"/><rect x="-24" y="-12" width="20" height="4" fill="#a8adbf"/><rect x="-4" y="-12" width="12" height="4" fill="#7d84a0"/><rect x="8" y="-12" width="20" height="4" fill="#4e5570"/><rect x="-26" y="-8" width="20" height="4" fill="#a8adbf"/><rect x="-6" y="-8" width="12" height="4" fill="#7d84a0"/><rect x="6" y="-8" width="20" height="4" fill="#4e5570"/><rect x="-32" y="-4" width="24" height="4" fill="#a8adbf"/><rect x="-8" y="-4" width="16" height="4" fill="#7d84a0"/><rect x="8" y="-4" width="24" height="4" fill="#4e5570"/></g></g><defs><clipPath id="band0"><rect x="0" y="244" width="1160" height="48"/></clipPath><clipPath id="band1"><rect x="0" y="216" width="1160" height="28"/></clipPath><clipPath id="band2"><rect x="0" y="192" width="1160" height="24"/></clipPath><clipPath id="band3"><rect x="0" y="172" width="1160" height="20"/></clipPath><clipPath id="band4"><rect x="0" y="156" width="1160" height="16"/></clipPath><clipPath id="band5"><rect x="0" y="142" width="1160" height="14"/></clipPath><clipPath id="band6"><rect x="0" y="128" width="1160" height="14"/></clipPath><clipPath id="band7"><rect x="0" y="100" width="1160" height="28"/></clipPath></defs><g clip-path="url(#band0)"><path d="M700,292 C666,266 634,250 602,240 C570,230 496,212 478,186 C462,162 540,142 578,124" fill="none" stroke="#d8d8de" stroke-width="60"><animate attributeName="d" values="M700,292 C666,266 634,250 602,240 C570,230 496,212 478,186 C462,162 540,142 578,124;M700,292 C666,266 634,250 602,240 C566,228 546,204 560,180 C574,156 616,142 596,124;M700,292 C666,266 634,250 602,240 C574,230 470,214 498,188 C526,162 508,142 544,124;M700,292 C666,266 634,250 602,240 C574,230 470,214 498,188 C526,162 508,142 544,124;M700,292 C666,266 634,250 602,240 C568,229 520,208 532,182 C544,158 590,142 612,124;M700,292 C666,266 634,250 602,240 C570,230 496,212 478,186 C462,162 540,142 578,124" keyTimes="0;0.1875;0.375;0.625;0.8125;1" dur="24s" repeatCount="indefinite"/></path><path d="M700,292 C666,266 634,250 602,240 C570,230 496,212 478,186 C462,162 540,142 578,124" fill="none" stroke="#55565e" stroke-width="54"><animate attributeName="d" values="M700,292 C666,266 634,250 602,240 C570,230 496,212 478,186 C462,162 540,142 578,124;M700,292 C666,266 634,250 602,240 C566,228 546,204 560,180 C574,156 616,142 596,124;M700,292 C666,266 634,250 602,240 C574,230 470,214 498,188 C526,162 508,142 544,124;M700,292 C666,266 634,250 602,240 C574,230 470,214 498,188 C526,162 508,142 544,124;M700,292 C666,266 634,250 602,240 C568,229 520,208 532,182 C544,158 590,142 612,124;M700,292 C666,266 634,250 602,240 C570,230 496,212 478,186 C462,162 540,142 578,124" keyTimes="0;0.1875;0.375;0.625;0.8125;1" dur="24s" repeatCount="indefinite"/></path><path d="M700,292 C666,266 634,250 602,240 C570,230 496,212 478,186 C462,162 540,142 578,124" fill="none" stroke="#f2f2ec" stroke-width="10" stroke-dasharray="28 20"><animate attributeName="d" values="M700,292 C666,266 634,250 602,240 C570,230 496,212 478,186 C462,162 540,142 578,124;M700,292 C666,266 634,250 602,240 C566,228 546,204 560,180 C574,156 616,142 596,124;M700,292 C666,266 634,250 602,240 C574,230 470,214 498,188 C526,162 508,142 544,124;M700,292 C666,266 634,250 602,240 C574,230 470,214 498,188 C526,162 508,142 544,124;M700,292 C666,266 634,250 602,240 C568,229 520,208 532,182 C544,158 590,142 612,124;M700,292 C666,266 634,250 602,240 C570,230 496,212 478,186 C462,162 540,142 578,124" keyTimes="0;0.1875;0.375;0.625;0.8125;1" dur="24s" repeatCount="indefinite"/><animate attributeName="stroke-dashoffset" values="0;1152;1152;2304" keyTimes="0;0.375;0.625;1" dur="24s" repeatCount="indefinite"/></path></g><g clip-path="url(#band1)"><path d="M700,292 C666,266 634,250 602,240 C570,230 496,212 478,186 C462,162 540,142 578,124" fill="none" stroke="#d8d8de" stroke-width="50"><animate attributeName="d" values="M700,292 C666,266 634,250 602,240 C570,230 496,212 478,186 C462,162 540,142 578,124;M700,292 C666,266 634,250 602,240 C566,228 546,204 560,180 C574,156 616,142 596,124;M700,292 C666,266 634,250 602,240 C574,230 470,214 498,188 C526,162 508,142 544,124;M700,292 C666,266 634,250 602,240 C574,230 470,214 498,188 C526,162 508,142 544,124;M700,292 C666,266 634,250 602,240 C568,229 520,208 532,182 C544,158 590,142 612,124;M700,292 C666,266 634,250 602,240 C570,230 496,212 478,186 C462,162 540,142 578,124" keyTimes="0;0.1875;0.375;0.625;0.8125;1" dur="24s" repeatCount="indefinite"/></path><path d="M700,292 C666,266 634,250 602,240 C570,230 496,212 478,186 C462,162 540,142 578,124" fill="none" stroke="#55565e" stroke-width="44"><animate attributeName="d" values="M700,292 C666,266 634,250 602,240 C570,230 496,212 478,186 C462,162 540,142 578,124;M700,292 C666,266 634,250 602,240 C566,228 546,204 560,180 C574,156 616,142 596,124;M700,292 C666,266 634,250 602,240 C574,230 470,214 498,188 C526,162 508,142 544,124;M700,292 C666,266 634,250 602,240 C574,230 470,214 498,188 C526,162 508,142 544,124;M700,292 C666,266 634,250 602,240 C568,229 520,208 532,182 C544,158 590,142 612,124;M700,292 C666,266 634,250 602,240 C570,230 496,212 478,186 C462,162 540,142 578,124" keyTimes="0;0.1875;0.375;0.625;0.8125;1" dur="24s" repeatCount="indefinite"/></path><path d="M700,292 C666,266 634,250 602,240 C570,230 496,212 478,186 C462,162 540,142 578,124" fill="none" stroke="#f2f2ec" stroke-width="9" stroke-dasharray="24 18"><animate attributeName="d" values="M700,292 C666,266 634,250 602,240 C570,230 496,212 478,186 C462,162 540,142 578,124;M700,292 C666,266 634,250 602,240 C566,228 546,204 560,180 C574,156 616,142 596,124;M700,292 C666,266 634,250 602,240 C574,230 470,214 498,188 C526,162 508,142 544,124;M700,292 C666,266 634,250 602,240 C574,230 470,214 498,188 C526,162 508,142 544,124;M700,292 C666,266 634,250 602,240 C568,229 520,208 532,182 C544,158 590,142 612,124;M700,292 C666,266 634,250 602,240 C570,230 496,212 478,186 C462,162 540,142 578,124" keyTimes="0;0.1875;0.375;0.625;0.8125;1" dur="24s" repeatCount="indefinite"/><animate attributeName="stroke-dashoffset" values="0;945;945;1890" keyTimes="0;0.375;0.625;1" dur="24s" repeatCount="indefinite"/></path></g><g clip-path="url(#band2)"><path d="M700,292 C666,266 634,250 602,240 C570,230 496,212 478,186 C462,162 540,142 578,124" fill="none" stroke="#d8d8de" stroke-width="41"><animate attributeName="d" values="M700,292 C666,266 634,250 602,240 C570,230 496,212 478,186 C462,162 540,142 578,124;M700,292 C666,266 634,250 602,240 C566,228 546,204 560,180 C574,156 616,142 596,124;M700,292 C666,266 634,250 602,240 C574,230 470,214 498,188 C526,162 508,142 544,124;M700,292 C666,266 634,250 602,240 C574,230 470,214 498,188 C526,162 508,142 544,124;M700,292 C666,266 634,250 602,240 C568,229 520,208 532,182 C544,158 590,142 612,124;M700,292 C666,266 634,250 602,240 C570,230 496,212 478,186 C462,162 540,142 578,124" keyTimes="0;0.1875;0.375;0.625;0.8125;1" dur="24s" repeatCount="indefinite"/></path><path d="M700,292 C666,266 634,250 602,240 C570,230 496,212 478,186 C462,162 540,142 578,124" fill="none" stroke="#55565e" stroke-width="35"><animate attributeName="d" values="M700,292 C666,266 634,250 602,240 C570,230 496,212 478,186 C462,162 540,142 578,124;M700,292 C666,266 634,250 602,240 C566,228 546,204 560,180 C574,156 616,142 596,124;M700,292 C666,266 634,250 602,240 C574,230 470,214 498,188 C526,162 508,142 544,124;M700,292 C666,266 634,250 602,240 C574,230 470,214 498,188 C526,162 508,142 544,124;M700,292 C666,266 634,250 602,240 C568,229 520,208 532,182 C544,158 590,142 612,124;M700,292 C666,266 634,250 602,240 C570,230 496,212 478,186 C462,162 540,142 578,124" keyTimes="0;0.1875;0.375;0.625;0.8125;1" dur="24s" repeatCount="indefinite"/></path><path d="M700,292 C666,266 634,250 602,240 C570,230 496,212 478,186 C462,162 540,142 578,124" fill="none" stroke="#f2f2ec" stroke-width="8" stroke-dasharray="21 15"><animate attributeName="d" values="M700,292 C666,266 634,250 602,240 C570,230 496,212 478,186 C462,162 540,142 578,124;M700,292 C666,266 634,250 602,240 C566,228 546,204 560,180 C574,156 616,142 596,124;M700,292 C666,266 634,250 602,240 C574,230 470,214 498,188 C526,162 508,142 544,124;M700,292 C666,266 634,250 602,240 C574,230 470,214 498,188 C526,162 508,142 544,124;M700,292 C666,266 634,250 602,240 C568,229 520,208 532,182 C544,158 590,142 612,124;M700,292 C666,266 634,250 602,240 C570,230 496,212 478,186 C462,162 540,142 578,124" keyTimes="0;0.1875;0.375;0.625;0.8125;1" dur="24s" repeatCount="indefinite"/><animate attributeName="stroke-dashoffset" values="0;648;648;1296" keyTimes="0;0.375;0.625;1" dur="24s" repeatCount="indefinite"/></path></g><g clip-path="url(#band3)"><path d="M700,292 C666,266 634,250 602,240 C570,230 496,212 478,186 C462,162 540,142 578,124" fill="none" stroke="#d8d8de" stroke-width="33"><animate attributeName="d" values="M700,292 C666,266 634,250 602,240 C570,230 496,212 478,186 C462,162 540,142 578,124;M700,292 C666,266 634,250 602,240 C566,228 546,204 560,180 C574,156 616,142 596,124;M700,292 C666,266 634,250 602,240 C574,230 470,214 498,188 C526,162 508,142 544,124;M700,292 C666,266 634,250 602,240 C574,230 470,214 498,188 C526,162 508,142 544,124;M700,292 C666,266 634,250 602,240 C568,229 520,208 532,182 C544,158 590,142 612,124;M700,292 C666,266 634,250 602,240 C570,230 496,212 478,186 C462,162 540,142 578,124" keyTimes="0;0.1875;0.375;0.625;0.8125;1" dur="24s" repeatCount="indefinite"/></path><path d="M700,292 C666,266 634,250 602,240 C570,230 496,212 478,186 C462,162 540,142 578,124" fill="none" stroke="#55565e" stroke-width="27"><animate attributeName="d" values="M700,292 C666,266 634,250 602,240 C570,230 496,212 478,186 C462,162 540,142 578,124;M700,292 C666,266 634,250 602,240 C566,228 546,204 560,180 C574,156 616,142 596,124;M700,292 C666,266 634,250 602,240 C574,230 470,214 498,188 C526,162 508,142 544,124;M700,292 C666,266 634,250 602,240 C574,230 470,214 498,188 C526,162 508,142 544,124;M700,292 C666,266 634,250 602,240 C568,229 520,208 532,182 C544,158 590,142 612,124;M700,292 C666,266 634,250 602,240 C570,230 496,212 478,186 C462,162 540,142 578,124" keyTimes="0;0.1875;0.375;0.625;0.8125;1" dur="24s" repeatCount="indefinite"/></path><path d="M700,292 C666,266 634,250 602,240 C570,230 496,212 478,186 C462,162 540,142 578,124" fill="none" stroke="#f2f2ec" stroke-width="7" stroke-dasharray="18 12"><animate attributeName="d" values="M700,292 C666,266 634,250 602,240 C570,230 496,212 478,186 C462,162 540,142 578,124;M700,292 C666,266 634,250 602,240 C566,228 546,204 560,180 C574,156 616,142 596,124;M700,292 C666,266 634,250 602,240 C574,230 470,214 498,188 C526,162 508,142 544,124;M700,292 C666,266 634,250 602,240 C574,230 470,214 498,188 C526,162 508,142 544,124;M700,292 C666,266 634,250 602,240 C568,229 520,208 532,182 C544,158 590,142 612,124;M700,292 C666,266 634,250 602,240 C570,230 496,212 478,186 C462,162 540,142 578,124" keyTimes="0;0.1875;0.375;0.625;0.8125;1" dur="24s" repeatCount="indefinite"/><animate attributeName="stroke-dashoffset" values="0;450;450;900" keyTimes="0;0.375;0.625;1" dur="24s" repeatCount="indefinite"/></path></g><g clip-path="url(#band4)"><path d="M700,292 C666,266 634,250 602,240 C570,230 496,212 478,186 C462,162 540,142 578,124" fill="none" stroke="#d8d8de" stroke-width="26"><animate attributeName="d" values="M700,292 C666,266 634,250 602,240 C570,230 496,212 478,186 C462,162 540,142 578,124;M700,292 C666,266 634,250 602,240 C566,228 546,204 560,180 C574,156 616,142 596,124;M700,292 C666,266 634,250 602,240 C574,230 470,214 498,188 C526,162 508,142 544,124;M700,292 C666,266 634,250 602,240 C574,230 470,214 498,188 C526,162 508,142 544,124;M700,292 C666,266 634,250 602,240 C568,229 520,208 532,182 C544,158 590,142 612,124;M700,292 C666,266 634,250 602,240 C570,230 496,212 478,186 C462,162 540,142 578,124" keyTimes="0;0.1875;0.375;0.625;0.8125;1" dur="24s" repeatCount="indefinite"/></path><path d="M700,292 C666,266 634,250 602,240 C570,230 496,212 478,186 C462,162 540,142 578,124" fill="none" stroke="#55565e" stroke-width="20"><animate attributeName="d" values="M700,292 C666,266 634,250 602,240 C570,230 496,212 478,186 C462,162 540,142 578,124;M700,292 C666,266 634,250 602,240 C566,228 546,204 560,180 C574,156 616,142 596,124;M700,292 C666,266 634,250 602,240 C574,230 470,214 498,188 C526,162 508,142 544,124;M700,292 C666,266 634,250 602,240 C574,230 470,214 498,188 C526,162 508,142 544,124;M700,292 C666,266 634,250 602,240 C568,229 520,208 532,182 C544,158 590,142 612,124;M700,292 C666,266 634,250 602,240 C570,230 496,212 478,186 C462,162 540,142 578,124" keyTimes="0;0.1875;0.375;0.625;0.8125;1" dur="24s" repeatCount="indefinite"/></path><path d="M700,292 C666,266 634,250 602,240 C570,230 496,212 478,186 C462,162 540,142 578,124" fill="none" stroke="#f2f2ec" stroke-width="6" stroke-dasharray="15 11"><animate attributeName="d" values="M700,292 C666,266 634,250 602,240 C570,230 496,212 478,186 C462,162 540,142 578,124;M700,292 C666,266 634,250 602,240 C566,228 546,204 560,180 C574,156 616,142 596,124;M700,292 C666,266 634,250 602,240 C574,230 470,214 498,188 C526,162 508,142 544,124;M700,292 C666,266 634,250 602,240 C574,230 470,214 498,188 C526,162 508,142 544,124;M700,292 C666,266 634,250 602,240 C568,229 520,208 532,182 C544,158 590,142 612,124;M700,292 C666,266 634,250 602,240 C570,230 496,212 478,186 C462,162 540,142 578,124" keyTimes="0;0.1875;0.375;0.625;0.8125;1" dur="24s" repeatCount="indefinite"/><animate attributeName="stroke-dashoffset" values="0;351;351;702" keyTimes="0;0.375;0.625;1" dur="24s" repeatCount="indefinite"/></path></g><g clip-path="url(#band5)"><path d="M700,292 C666,266 634,250 602,240 C570,230 496,212 478,186 C462,162 540,142 578,124" fill="none" stroke="#d8d8de" stroke-width="20"><animate attributeName="d" values="M700,292 C666,266 634,250 602,240 C570,230 496,212 478,186 C462,162 540,142 578,124;M700,292 C666,266 634,250 602,240 C566,228 546,204 560,180 C574,156 616,142 596,124;M700,292 C666,266 634,250 602,240 C574,230 470,214 498,188 C526,162 508,142 544,124;M700,292 C666,266 634,250 602,240 C574,230 470,214 498,188 C526,162 508,142 544,124;M700,292 C666,266 634,250 602,240 C568,229 520,208 532,182 C544,158 590,142 612,124;M700,292 C666,266 634,250 602,240 C570,230 496,212 478,186 C462,162 540,142 578,124" keyTimes="0;0.1875;0.375;0.625;0.8125;1" dur="24s" repeatCount="indefinite"/></path><path d="M700,292 C666,266 634,250 602,240 C570,230 496,212 478,186 C462,162 540,142 578,124" fill="none" stroke="#55565e" stroke-width="14"><animate attributeName="d" values="M700,292 C666,266 634,250 602,240 C570,230 496,212 478,186 C462,162 540,142 578,124;M700,292 C666,266 634,250 602,240 C566,228 546,204 560,180 C574,156 616,142 596,124;M700,292 C666,266 634,250 602,240 C574,230 470,214 498,188 C526,162 508,142 544,124;M700,292 C666,266 634,250 602,240 C574,230 470,214 498,188 C526,162 508,142 544,124;M700,292 C666,266 634,250 602,240 C568,229 520,208 532,182 C544,158 590,142 612,124;M700,292 C666,266 634,250 602,240 C570,230 496,212 478,186 C462,162 540,142 578,124" keyTimes="0;0.1875;0.375;0.625;0.8125;1" dur="24s" repeatCount="indefinite"/></path><path d="M700,292 C666,266 634,250 602,240 C570,230 496,212 478,186 C462,162 540,142 578,124" fill="none" stroke="#f2f2ec" stroke-width="5" stroke-dasharray="13 9"><animate attributeName="d" values="M700,292 C666,266 634,250 602,240 C570,230 496,212 478,186 C462,162 540,142 578,124;M700,292 C666,266 634,250 602,240 C566,228 546,204 560,180 C574,156 616,142 596,124;M700,292 C666,266 634,250 602,240 C574,230 470,214 498,188 C526,162 508,142 544,124;M700,292 C666,266 634,250 602,240 C574,230 470,214 498,188 C526,162 508,142 544,124;M700,292 C666,266 634,250 602,240 C568,229 520,208 532,182 C544,158 590,142 612,124;M700,292 C666,266 634,250 602,240 C570,230 496,212 478,186 C462,162 540,142 578,124" keyTimes="0;0.1875;0.375;0.625;0.8125;1" dur="24s" repeatCount="indefinite"/><animate attributeName="stroke-dashoffset" values="0;264;264;528" keyTimes="0;0.375;0.625;1" dur="24s" repeatCount="indefinite"/></path></g><g clip-path="url(#band6)"><path d="M700,292 C666,266 634,250 602,240 C570,230 496,212 478,186 C462,162 540,142 578,124" fill="none" stroke="#d8d8de" stroke-width="16"><animate attributeName="d" values="M700,292 C666,266 634,250 602,240 C570,230 496,212 478,186 C462,162 540,142 578,124;M700,292 C666,266 634,250 602,240 C566,228 546,204 560,180 C574,156 616,142 596,124;M700,292 C666,266 634,250 602,240 C574,230 470,214 498,188 C526,162 508,142 544,124;M700,292 C666,266 634,250 602,240 C574,230 470,214 498,188 C526,162 508,142 544,124;M700,292 C666,266 634,250 602,240 C568,229 520,208 532,182 C544,158 590,142 612,124;M700,292 C666,266 634,250 602,240 C570,230 496,212 478,186 C462,162 540,142 578,124" keyTimes="0;0.1875;0.375;0.625;0.8125;1" dur="24s" repeatCount="indefinite"/></path><path d="M700,292 C666,266 634,250 602,240 C570,230 496,212 478,186 C462,162 540,142 578,124" fill="none" stroke="#55565e" stroke-width="10"><animate attributeName="d" values="M700,292 C666,266 634,250 602,240 C570,230 496,212 478,186 C462,162 540,142 578,124;M700,292 C666,266 634,250 602,240 C566,228 546,204 560,180 C574,156 616,142 596,124;M700,292 C666,266 634,250 602,240 C574,230 470,214 498,188 C526,162 508,142 544,124;M700,292 C666,266 634,250 602,240 C574,230 470,214 498,188 C526,162 508,142 544,124;M700,292 C666,266 634,250 602,240 C568,229 520,208 532,182 C544,158 590,142 612,124;M700,292 C666,266 634,250 602,240 C570,230 496,212 478,186 C462,162 540,142 578,124" keyTimes="0;0.1875;0.375;0.625;0.8125;1" dur="24s" repeatCount="indefinite"/></path><path d="M700,292 C666,266 634,250 602,240 C570,230 496,212 478,186 C462,162 540,142 578,124" fill="none" stroke="#f2f2ec" stroke-width="4" stroke-dasharray="11 7"><animate attributeName="d" values="M700,292 C666,266 634,250 602,240 C570,230 496,212 478,186 C462,162 540,142 578,124;M700,292 C666,266 634,250 602,240 C566,228 546,204 560,180 C574,156 616,142 596,124;M700,292 C666,266 634,250 602,240 C574,230 470,214 498,188 C526,162 508,142 544,124;M700,292 C666,266 634,250 602,240 C574,230 470,214 498,188 C526,162 508,142 544,124;M700,292 C666,266 634,250 602,240 C568,229 520,208 532,182 C544,158 590,142 612,124;M700,292 C666,266 634,250 602,240 C570,230 496,212 478,186 C462,162 540,142 578,124" keyTimes="0;0.1875;0.375;0.625;0.8125;1" dur="24s" repeatCount="indefinite"/><animate attributeName="stroke-dashoffset" values="0;198;198;396" keyTimes="0;0.375;0.625;1" dur="24s" repeatCount="indefinite"/></path></g><g clip-path="url(#band7)"><path d="M700,292 C666,266 634,250 602,240 C570,230 496,212 478,186 C462,162 540,142 578,124" fill="none" stroke="#d8d8de" stroke-width="13"><animate attributeName="d" values="M700,292 C666,266 634,250 602,240 C570,230 496,212 478,186 C462,162 540,142 578,124;M700,292 C666,266 634,250 602,240 C566,228 546,204 560,180 C574,156 616,142 596,124;M700,292 C666,266 634,250 602,240 C574,230 470,214 498,188 C526,162 508,142 544,124;M700,292 C666,266 634,250 602,240 C574,230 470,214 498,188 C526,162 508,142 544,124;M700,292 C666,266 634,250 602,240 C568,229 520,208 532,182 C544,158 590,142 612,124;M700,292 C666,266 634,250 602,240 C570,230 496,212 478,186 C462,162 540,142 578,124" keyTimes="0;0.1875;0.375;0.625;0.8125;1" dur="24s" repeatCount="indefinite"/></path><path d="M700,292 C666,266 634,250 602,240 C570,230 496,212 478,186 C462,162 540,142 578,124" fill="none" stroke="#55565e" stroke-width="7"><animate attributeName="d" values="M700,292 C666,266 634,250 602,240 C570,230 496,212 478,186 C462,162 540,142 578,124;M700,292 C666,266 634,250 602,240 C566,228 546,204 560,180 C574,156 616,142 596,124;M700,292 C666,266 634,250 602,240 C574,230 470,214 498,188 C526,162 508,142 544,124;M700,292 C666,266 634,250 602,240 C574,230 470,214 498,188 C526,162 508,142 544,124;M700,292 C666,266 634,250 602,240 C568,229 520,208 532,182 C544,158 590,142 612,124;M700,292 C666,266 634,250 602,240 C570,230 496,212 478,186 C462,162 540,142 578,124" keyTimes="0;0.1875;0.375;0.625;0.8125;1" dur="24s" repeatCount="indefinite"/></path><path d="M700,292 C666,266 634,250 602,240 C570,230 496,212 478,186 C462,162 540,142 578,124" fill="none" stroke="#f2f2ec" stroke-width="3" stroke-dasharray="8 6"><animate attributeName="d" values="M700,292 C666,266 634,250 602,240 C570,230 496,212 478,186 C462,162 540,142 578,124;M700,292 C666,266 634,250 602,240 C566,228 546,204 560,180 C574,156 616,142 596,124;M700,292 C666,266 634,250 602,240 C574,230 470,214 498,188 C526,162 508,142 544,124;M700,292 C666,266 634,250 602,240 C574,230 470,214 498,188 C526,162 508,142 544,124;M700,292 C666,266 634,250 602,240 C568,229 520,208 532,182 C544,158 590,142 612,124;M700,292 C666,266 634,250 602,240 C570,230 496,212 478,186 C462,162 540,142 578,124" keyTimes="0;0.1875;0.375;0.625;0.8125;1" dur="24s" repeatCount="indefinite"/><animate attributeName="stroke-dashoffset" values="0;189;189;378" keyTimes="0;0.375;0.625;1" dur="24s" repeatCount="indefinite"/></path></g><g><animateTransform attributeName="transform" type="rotate" calcMode="discrete" values="0,606,236;-8,606,236;0,606,236" keyTimes="0;0.375;0.625" dur="24s" repeatCount="indefinite"/><g transform="translate(606,222) scale(1.2)"><rect x="-8" y="-15" width="16" height="4" fill="#17171c"/><rect x="-12" y="-11" width="24" height="4" fill="#17171c"/><rect x="-16" y="-7" width="32" height="4" fill="#17171c"/><rect x="-16" y="-3" width="32" height="4" fill="#17171c"/><rect x="-16" y="1" width="32" height="4" fill="#17171c"/><rect x="-12" y="5" width="24" height="4" fill="#17171c"/><rect x="-12" y="9" width="24" height="4" fill="#17171c"/><rect x="-4" y="13" width="8" height="4" fill="#17171c"/><rect x="-4" y="-8" width="8" height="4" fill="#55565e"/><rect x="-8" y="-4" width="16" height="4" fill="#55565e"/><rect x="-8" y="0" width="16" height="4" fill="#55565e"/><rect x="-4" y="4" width="8" height="4" fill="#55565e"/><rect x="-2" y="-2" width="4" height="4" fill="#c0c6cf"/><rect x="-40" y="-18" width="16" height="4" fill="#17171c"/><rect x="-44" y="-14" width="24" height="4" fill="#17171c"/><rect x="-44" y="-10" width="24" height="4" fill="#17171c"/><rect x="-44" y="-6" width="24" height="4" fill="#17171c"/><rect x="-44" y="-2" width="24" height="4" fill="#17171c"/><rect x="-40" y="2" width="16" height="4" fill="#17171c"/><rect x="-36" y="-12" width="8" height="4" fill="#55565e"/><rect x="-40" y="-8" width="16" height="4" fill="#55565e"/><rect x="-36" y="-4" width="8" height="4" fill="#55565e"/><rect x="-34" y="-8" width="4" height="4" fill="#c0c6cf"/><rect x="-14" y="0" width="14" height="4" fill="#d8433f"/><rect x="-10" y="-8" width="4" height="8" fill="#d8433f"/><rect x="-8" y="-16" width="4" height="8" fill="#d8433f"/><rect x="-6" y="-24" width="4" height="8" fill="#d8433f"/><rect x="-26" y="-24" width="22" height="4" fill="#d8433f"/><rect x="-28" y="-16" width="4" height="8" fill="#d8433f"/><rect x="-24" y="-10" width="4" height="6" fill="#d8433f"/><rect x="-18" y="-4" width="4" height="6" fill="#d8433f"/><rect x="-30" y="-26" width="4" height="10" fill="#d8433f"/><rect x="-33" y="-16" width="4" height="10" fill="#d8433f"/><rect x="-12" y="-30" width="14" height="4" fill="#26262c"/><rect x="-38" y="-32" width="12" height="4" fill="#26262c"/><rect x="-38" y="-28" width="4" height="8" fill="#26262c"/><rect x="-16" y="2" width="10" height="4" fill="#c0c6cf"/><g opacity="0"><rect x="-9" y="12" width="18" height="3" fill="#17171c"/><animate attributeName="opacity" calcMode="discrete" values="0;1;0" keyTimes="0;0.375;0.625" dur="24s" repeatCount="indefinite"/></g></g></g><g opacity="1"><animate attributeName="opacity" calcMode="discrete" values="1;0;1" keyTimes="0;0.375;0.625" dur="24s" repeatCount="indefinite"/><g><rect x="624" y="238" width="4" height="4" fill="#c9c3b2"/><rect x="632" y="232" width="4" height="4" fill="#c9c3b2"/><rect x="640" y="240" width="4" height="4" fill="#c9c3b2"/><animate attributeName="opacity" calcMode="discrete" values="1;0" keyTimes="0;0.5" dur="0.4s" repeatCount="indefinite"/></g></g><g transform="translate(630,152)" opacity="0"><rect x="0" y="0" width="20" height="24" fill="#fffef2"/><rect x="8" y="4" width="4" height="10" fill="#26262c"/><rect x="8" y="17" width="4" height="4" fill="#26262c"/><animate attributeName="opacity" calcMode="discrete" values="0;1;0" keyTimes="0;0.375;0.425" dur="24s" repeatCount="indefinite"/></g><g transform="translate(634,222)" opacity="0"><animate attributeName="opacity" calcMode="discrete" values="0;1;0" keyTimes="0;0.425;0.475" dur="24s" repeatCount="indefinite"/><g><animateTransform attributeName="transform" type="rotate" calcMode="discrete" values="-18;14" keyTimes="0;0.5" dur="0.6s" repeatCount="indefinite"/><rect x="-2" y="-18" width="4" height="18" fill="#3f7fd4"/><rect x="-4" y="-22" width="8" height="4" fill="#3f7fd4"/></g></g><g transform="translate(646,198)" opacity="0"><animate attributeName="opacity" calcMode="discrete" values="0;1;0" keyTimes="0;0.475;0.541667" dur="24s" repeatCount="indefinite"/><rect x="-8" y="-12" width="16" height="4" fill="#2b2b31"/><rect x="-8" y="4" width="16" height="4" fill="#2b2b31"/><rect x="-12" y="-8" width="4" height="12" fill="#2b2b31"/><rect x="8" y="-8" width="4" height="12" fill="#2b2b31"/></g><g transform="translate(648,206)" opacity="0"><animate attributeName="opacity" calcMode="discrete" values="0;1;0" keyTimes="0;0.541667;0.625" dur="24s" repeatCount="indefinite"/><rect x="-6" y="22" width="16" height="4" fill="#d8433f"/><rect x="0" y="0" width="4" height="22" fill="#d8433f"/><rect x="-6" y="-6" width="16" height="4" fill="#26262c"><animate attributeName="y" calcMode="discrete" values="-6;8" keyTimes="0;0.5" dur="0.5s" repeatCount="indefinite"/></rect></g><g opacity="0"><animate attributeName="opacity" calcMode="discrete" values="0;1;0" keyTimes="0;0.608333;0.65" dur="24s" repeatCount="indefinite"/><rect x="584" y="186" width="4" height="4" fill="#49d97e"/><rect x="616" y="180" width="4" height="4" fill="#49d97e"/><rect x="602" y="208" width="4" height="4" fill="#49d97e"/></g></svg>