<svg xmlns="http://www.w3.org/2000/svg" viewBox="0 0 1160 280" width="1160" height="280" shape-rendering="crispEdges" role="img" aria-label="Pixel bike rides a dirt trail over rolling hills and beneath an oak, gets flats at three spots, fixes each, and rolls out of frame."><title>roll, break, fix, roll again</title><rect x="0" y="0" width="1160" height="60" fill="#a9d6ea"/><rect x="0" y="60" width="1160" height="30" fill="#bfe2ef"/><rect x="0" y="90" width="1160" height="22" fill="#d3ecf2"/><g><animateTransform attributeName="transform" type="translate" values="0,0;-1160,0" keyTimes="0;1" dur="90s" repeatCount="indefinite"/><rect x="150" y="28" width="48" height="8" fill="#f6fbfd"/><rect x="160" y="22" width="28" height="6" fill="#f6fbfd"/><rect x="156" y="36" width="32" height="4" fill="#dceef4"/><rect x="520" y="14" width="48" height="8" fill="#f6fbfd"/><rect x="530" y="8" width="28" height="6" fill="#f6fbfd"/><rect x="526" y="22" width="32" height="4" fill="#dceef4"/><rect x="900" y="40" width="48" height="8" fill="#f6fbfd"/><rect x="910" y="34" width="28" height="6" fill="#f6fbfd"/><rect x="906" y="48" width="32" height="4" fill="#dceef4"/><rect x="1310" y="28" width="48" height="8" fill="#f6fbfd"/><rect x="1320" y="22" width="28" height="6" fill="#f6fbfd"/><rect x="1316" y="36" width="32" height="4" fill="#dceef4"/><rect x="1680" y="14" width="48" height="8" fill="#f6fbfd"/><rect x="1690" y="8" width="28" height="6" fill="#f6fbfd"/><rect x="1686" y="22" width="32" height="4" fill="#dceef4"/><rect x="2060" y="40" width="48" height="8" fill="#f6fbfd"/><rect x="2070" y="34" width="28" height="6" fill="#f6fbfd"/><rect x="2066" y="48" width="32" height="4" fill="#dceef4"/></g><rect x="0" y="100" width="220" height="12" fill="#8fb4a0"/><rect x="55" y="92" width="110" height="8" fill="#8fb4a0"/><rect x="180" y="94" width="260" height="18" fill="#8fb4a0"/><rect x="245" y="86" width="130" height="8" fill="#8fb4a0"/><rect x="400" y="102" width="240" height="10" fill="#8fb4a0"/><rect x="460" y="94" width="120" height="8" fill="#8fb4a0"/><rect x="600" y="92" width="280" height="20" fill="#8fb4a0"/><rect x="670" y="84" width="140" height="8" fill="#8fb4a0"/><rect x="840" y="98" width="240" height="14" fill="#8fb4a0"/><rect x="900" y="90" width="120" height="8" fill="#8fb4a0"/><rect x="1040" y="94" width="220" height="18" fill="#8fb4a0"/><rect x="1095" y="86" width="110" height="8" fill="#8fb4a0"/><rect x="80" y="104" width="260" height="8" fill="#7aa287"/><rect x="145" y="98" width="130" height="6" fill="#7aa287"/><rect x="360" y="98" width="300" height="14" fill="#7aa287"/><rect x="435" y="92" width="150" height="6" fill="#7aa287"/><rect x="700" y="102" width="280" height="10" fill="#7aa287"/><rect x="770" y="96" width="140" height="6" fill="#7aa287"/><rect x="980" y="100" width="240" height="12" fill="#7aa287"/><rect x="1040" y="94" width="120" height="6" fill="#7aa287"/><rect x="0" y="112" width="1160" height="8" fill="#93b06f"/><rect x="0" y="120" width="1160" height="10" fill="#9cba78"/><rect x="0" y="130" width="1160" height="12" fill="#a6c383"/><rect x="0" y="142" width="1160" height="16" fill="#aecb8d"/><rect x="0" y="158" width="1160" height="20" fill="#b4d094"/><rect x="0" y="178" width="1160" height="26" fill="#b9d29a"/><rect x="0" y="204" width="1160" height="34" fill="#bdd6a0"/><rect x="0" y="238" width="1160" height="42" fill="#c0d8a4"/><g transform="translate(990,170) scale(1.2)"><rect x="-8" y="-40" width="16" height="4" fill="#a3c284"/><rect x="-24" y="-36" width="48" height="4" fill="#a3c284"/><rect x="-32" y="-32" width="64" height="4" fill="#84a968"/><rect x="-40" y="-28" width="80" height="4" fill="#84a968"/><rect x="-44" y="-24" width="88" height="4" fill="#84a968"/><rect x="-48" y="-20" width="96" height="4" fill="#84a968"/><rect x="-52" y="-16" width="104" height="4" fill="#84a968"/><rect x="-52" y="-12" width="104" height="4" fill="#84a968"/><rect x="-56" y="-8" width="112" height="4" fill="#84a968"/><rect x="-56" y="-4" width="112" height="4" fill="#69905a"/><rect x="-24" y="-12" width="12" height="6" fill="#3f5f3d"/><rect x="-22" y="-16" width="8" height="4" fill="#3f5f3d"/><rect x="10" y="-18" width="12" height="6" fill="#3f5f3d"/><rect x="12" y="-22" width="8" height="4" fill="#3f5f3d"/><rect x="-4" y="-6" width="12" height="6" fill="#3f5f3d"/><rect x="-2" y="-10" width="8" height="4" fill="#3f5f3d"/></g><g transform="translate(1100,205) scale(0.9)"><rect x="-8" y="-40" width="16" height="4" fill="#a3c284"/><rect x="-24" y="-36" width="48" height="4" fill="#a3c284"/><rect x="-32" y="-32" width="64" height="4" fill="#84a968"/><rect x="-40" y="-28" width="80" height="4" fill="#84a968"/><rect x="-44" y="-24" width="88" height="4" fill="#84a968"/><rect x="-48" y="-20" width="96" height="4" fill="#84a968"/><rect x="-52" y="-16" width="104" height="4" fill="#84a968"/><rect x="-52" y="-12" width="104" height="4" fill="#84a968"/><rect x="-56" y="-8" width="112" height="4" fill="#84a968"/><rect x="-56" y="-4" width="112" height="4" fill="#69905a"/><rect x="-24" y="-12" width="12" height="6" fill="#3f5f3d"/><rect x="-22" y="-16" width="8" height="4" fill="#3f5f3d"/><rect x="10" y="-18" width="12" height="6" fill="#3f5f3d"/><rect x="12" y="-22" width="8" height="4" fill="#3f5f3d"/><rect x="-4" y="-6" width="12" height="6" fill="#3f5f3d"/><rect x="-2" y="-10" width="8" height="4" fill="#3f5f3d"/></g><g transform="translate(830,215) scale(1.9)"><rect x="-8" y="-40" width="16" height="4" fill="#a3c284"/><rect x="-24" y="-36" width="48" height="4" fill="#a3c284"/><rect x="-32" y="-32" width="64" height="4" fill="#84a968"/><rect x="-40" y="-28" width="80" height="4" fill="#84a968"/><rect x="-44" y="-24" width="88" height="4" fill="#84a968"/><rect x="-48" y="-20" width="96" height="4" fill="#84a968"/><rect x="-52" y="-16" width="104" height="4" fill="#84a968"/><rect x="-52" y="-12" width="104" height="4" fill="#84a968"/><rect x="-56" y="-8" width="112" height="4" fill="#84a968"/><rect x="-56" y="-4" width="112" height="4" fill="#69905a"/><rect x="-24" y="-12" width="12" height="6" fill="#3f5f3d"/><rect x="-22" y="-16" width="8" height="4" fill="#3f5f3d"/><rect x="10" y="-18" width="12" height="6" fill="#3f5f3d"/><rect x="12" y="-22" width="8" height="4" fill="#3f5f3d"/><rect x="-4" y="-6" width="12" height="6" fill="#3f5f3d"/><rect x="-2" y="-10" width="8" height="4" fill="#3f5f3d"/></g><g transform="translate(140,238) scale(1.4)"><rect x="-8" y="-40" width="16" height="4" fill="#a3c284"/><rect x="-24" y="-36" width="48" height="4" fill="#a3c284"/><rect x="-32" y="-32" width="64" height="4" fill="#84a968"/><rect x="-40" y="-28" width="80" height="4" fill="#84a968"/><rect x="-44" y="-24" width="88" height="4" fill="#84a968"/><rect x="-48" y="-20" width="96" height="4" fill="#84a968"/><rect x="-52" y="-16" width="104" height="4" fill="#84a968"/><rect x="-52" y="-12" width="104" height="4" fill="#84a968"/><rect x="-56" y="-8" width="112" height="4" fill="#84a968"/><rect x="-56" y="-4" width="112" height="4" fill="#69905a"/><rect x="-24" y="-12" width="12" height="6" fill="#3f5f3d"/><rect x="-22" y="-16" width="8" height="4" fill="#3f5f3d"/><rect x="10" y="-18" width="12" height="6" fill="#3f5f3d"/><rect x="12" y="-22" width="8" height="4" fill="#3f5f3d"/><rect x="-4" y="-6" width="12" height="6" fill="#3f5f3d"/><rect x="-2" y="-10" width="8" height="4" fill="#3f5f3d"/><rect x="-4" y="-56" width="8" height="18" fill="#6b4a2f"/><rect x="-18" y="-66" width="36" height="8" fill="#4d7247"/><rect x="-26" y="-60" width="52" height="8" fill="#4d7247"/><rect x="-12" y="-72" width="24" height="6" fill="#4d7247"/><rect x="-22" y="-52" width="44" height="4" fill="#3c5c38"/></g><g transform="translate(480,260) scale(1.6)"><rect x="-8" y="-40" width="16" height="4" fill="#a3c284"/><rect x="-24" y="-36" width="48" height="4" fill="#a3c284"/><rect x="-32" y="-32" width="64" height="4" fill="#84a968"/><rect x="-40" y="-28" width="80" height="4" fill="#84a968"/><rect x="-44" y="-24" width="88" height="4" fill="#84a968"/><rect x="-48" y="-20" width="96" height="4" fill="#84a968"/><rect x="-52" y="-16" width="104" height="4" fill="#84a968"/><rect x="-52" y="-12" width="104" height="4" fill="#84a968"/><rect x="-56" y="-8" width="112" height="4" fill="#84a968"/><rect x="-56" y="-4" width="112" height="4" fill="#69905a"/><rect x="-24" y="-12" width="12" height="6" fill="#3f5f3d"/><rect x="-22" y="-16" width="8" height="4" fill="#3f5f3d"/><rect x="10" y="-18" width="12" height="6" fill="#3f5f3d"/><rect x="12" y="-22" width="8" height="4" fill="#3f5f3d"/><rect x="-4" y="-6" width="12" height="6" fill="#3f5f3d"/><rect x="-2" y="-10" width="8" height="4" fill="#3f5f3d"/></g><g transform="translate(402,208) scale(1.2)"><rect x="-10" y="-8" width="20" height="8" fill="#3f5f3d"/><rect x="-6" y="-12" width="12" height="4" fill="#3f5f3d"/><rect x="-2" y="-14" width="6" height="4" fill="#5a7c52"/></g><g transform="translate(228,244) scale(1.3)"><rect x="-10" y="-8" width="20" height="8" fill="#3f5f3d"/><rect x="-6" y="-12" width="12" height="4" fill="#3f5f3d"/><rect x="-2" y="-14" width="6" height="4" fill="#5a7c52"/></g><g transform="translate(930,182) scale(1)"><rect x="-10" y="-8" width="20" height="8" fill="#3f5f3d"/><rect x="-6" y="-12" width="12" height="4" fill="#3f5f3d"/><rect x="-2" y="-14" width="6" height="4" fill="#5a7c52"/></g><g transform="translate(80,224) scale(1.1)"><rect x="-10" y="-8" width="20" height="8" fill="#3f5f3d"/><rect x="-6" y="-12" width="12" height="4" fill="#3f5f3d"/><rect x="-2" y="-14" width="6" height="4" fill="#5a7c52"/></g><g transform="translate(560,150) scale(0.6)"><rect x="-10" y="-8" width="20" height="8" fill="#3f5f3d"/><rect x="-6" y="-12" width="12" height="4" fill="#3f5f3d"/><rect x="-2" y="-14" width="6" height="4" fill="#5a7c52"/></g><g transform="translate(1020,152) scale(0.5)"><rect x="-10" y="-8" width="20" height="8" fill="#3f5f3d"/><rect x="-6" y="-12" width="12" height="4" fill="#3f5f3d"/><rect x="-2" y="-14" width="6" height="4" fill="#5a7c52"/></g><defs><clipPath id="band0"><rect x="0" y="100" width="1160" height="50"/></clipPath><clipPath id="band1"><rect x="0" y="150" width="1160" height="22"/></clipPath><clipPath id="band2"><rect x="0" y="172" width="1160" height="33"/></clipPath><clipPath id="band3"><rect x="0" y="205" width="1160" height="35"/></clipPath><clipPath id="band4"><rect x="0" y="240" width="1160" height="52"/></clipPath></defs><g clip-path="url(#band0)"><path d="M-90,280 L-80,278 L0,270 L55,264 L105,258 L150,252 L190,247 L225,241 L260,235 L295,229 L330,222 L365,214 L400,205 L435,196 L470,190 L505,196 L540,200 L575,197 L610,192 L645,185 L680,184 L715,178 L750,160 L780,150 L830,141 L858,148 L885,152 L915,148 L945,140 L975,133 L1005,128 L1018,124" fill="none" stroke="#8a6b42" stroke-width="12"/><path d="M-90,280 L-80,278 L0,270 L55,264 L105,258 L150,252 L190,247 L225,241 L260,235 L295,229 L330,222 L365,214 L400,205 L435,196 L470,190 L505,196 L540,200 L575,197 L610,192 L645,185 L680,184 L715,178 L750,160 L780,150 L830,141 L858,148 L885,152 L915,148 L945,140 L975,133 L1005,128 L1018,124" fill="none" stroke="#c9a36a" stroke-width="8"/></g><g clip-path="url(#band1)"><path d="M-90,280 L-80,278 L0,270 L55,264 L105,258 L150,252 L190,247 L225,241 L260,235 L295,229 L330,222 L365,214 L400,205 L435,196 L470,190 L505,196 L540,200 L575,197 L610,192 L645,185 L680,184 L715,178 L750,160 L780,150 L830,141 L858,148 L885,152 L915,148 L945,140 L975,133 L1005,128 L1018,124" fill="none" stroke="#8a6b42" stroke-width="16"/><path d="M-90,280 L-80,278 L0,270 L55,264 L105,258 L150,252 L190,247 L225,241 L260,235 L295,229 L330,222 L365,214 L400,205 L435,196 L470,190 L505,196 L540,200 L575,197 L610,192 L645,185 L680,184 L715,178 L750,160 L780,150 L830,141 L858,148 L885,152 L915,148 L945,140 L975,133 L1005,128 L1018,124" fill="none" stroke="#c9a36a" stroke-width="12"/></g><g clip-path="url(#band2)"><path d="M-90,280 L-80,278 L0,270 L55,264 L105,258 L150,252 L190,247 L225,241 L260,235 L295,229 L330,222 L365,214 L400,205 L435,196 L470,190 L505,196 L540,200 L575,197 L610,192 L645,185 L680,184 L715,178 L750,160 L780,150 L830,141 L858,148 L885,152 L915,148 L945,140 L975,133 L1005,128 L1018,124" fill="none" stroke="#8a6b42" stroke-width="22"/><path d="M-90,280 L-80,278 L0,270 L55,264 L105,258 L150,252 L190,247 L225,241 L260,235 L295,229 L330,222 L365,214 L400,205 L435,196 L470,190 L505,196 L540,200 L575,197 L610,192 L645,185 L680,184 L715,178 L750,160 L780,150 L830,141 L858,148 L885,152 L915,148 L945,140 L975,133 L1005,128 L1018,124" fill="none" stroke="#c9a36a" stroke-width="18"/></g><g clip-path="url(#band3)"><path d="M-90,280 L-80,278 L0,270 L55,264 L105,258 L150,252 L190,247 L225,241 L260,235 L295,229 L330,222 L365,214 L400,205 L435,196 L470,190 L505,196 L540,200 L575,197 L610,192 L645,185 L680,184 L715,178 L750,160 L780,150 L830,141 L858,148 L885,152 L915,148 L945,140 L975,133 L1005,128 L1018,124" fill="none" stroke="#8a6b42" stroke-width="30"/><path d="M-90,280 L-80,278 L0,270 L55,264 L105,258 L150,252 L190,247 L225,241 L260,235 L295,229 L330,222 L365,214 L400,205 L435,196 L470,190 L505,196 L540,200 L575,197 L610,192 L645,185 L680,184 L715,178 L750,160 L780,150 L830,141 L858,148 L885,152 L915,148 L945,140 L975,133 L1005,128 L1018,124" fill="none" stroke="#c9a36a" stroke-width="26"/></g><g clip-path="url(#band4)"><path d="M-90,280 L-80,278 L0,270 L55,264 L105,258 L150,252 L190,247 L225,241 L260,235 L295,229 L330,222 L365,214 L400,205 L435,196 L470,190 L505,196 L540,200 L575,197 L610,192 L645,185 L680,184 L715,178 L750,160 L780,150 L830,141 L858,148 L885,152 L915,148 L945,140 L975,133 L1005,128 L1018,124" fill="none" stroke="#8a6b42" stroke-width="36"/><path d="M-90,280 L-80,278 L0,270 L55,264 L105,258 L150,252 L190,247 L225,241 L260,235 L295,229 L330,222 L365,214 L400,205 L435,196 L470,190 L505,196 L540,200 L575,197 L610,192 L645,185 L680,184 L715,178 L750,160 L780,150 L830,141 L858,148 L885,152 L915,148 L945,140 L975,133 L1005,128 L1018,124" fill="none" stroke="#c9a36a" stroke-width="32"/></g><g transform="translate(1005,121.7)"><animateTransform attributeName="transform" type="translate" calcMode="discrete" values="1005,121.7;975,125.8;945,131.9;915,139;885,142.1;858,137.2;830,129.3;780,137.4;750,147.04;715,164.5;680,169.96;645,170.6;610,176.7;575,180.8;540,182.9;505,178;470,171.1;435,176.2;400,184.3;365,192.4;330,199.5;295,205.6;260,211.24;225,216.7;190,221.8;150,225.9;105,231;55,237;0,243;-80,251" keyTimes="0;0.019048;0.038095;0.057143;0.07619;0.095238;0.114286;0.27619;0.295238;0.314286;0.333333;0.352381;0.371429;0.390476;0.409524;0.428571;0.447619;0.609524;0.628571;0.647619;0.666667;0.685714;0.704762;0.866667;0.885714;0.904762;0.92381;0.942857;0.961905;0.980952" dur="42s" repeatCount="indefinite"/><g transform="scale(0.42)"><animateTransform attributeName="transform" type="scale" calcMode="discrete" values="0.42;0.48;0.54;0.6;0.66;0.72;0.78;0.84;0.864;0.9;0.936;0.96;1.02;1.08;1.14;1.2;1.26;1.32;1.38;1.44;1.5;1.56;1.584;1.62;1.68;1.74;1.8;1.8;1.8;1.8" keyTimes="0;0.019048;0.038095;0.057143;0.07619;0.095238;0.114286;0.27619;0.295238;0.314286;0.333333;0.352381;0.371429;0.390476;0.409524;0.428571;0.447619;0.609524;0.628571;0.647619;0.666667;0.685714;0.704762;0.866667;0.885714;0.904762;0.92381;0.942857;0.961905;0.980952" dur="42s" repeatCount="indefinite"/><g><animateTransform attributeName="transform" type="rotate" calcMode="discrete" values="0,0,12;-8,0,12;0,0,12;-8,0,12;0,0,12;-8,0,12;0,0,12" keyTimes="0;0.114286;0.257143;0.447619;0.590476;0.704762;0.847619" dur="42s" repeatCount="indefinite"/><rect x="-8" y="-15" width="16" height="4" fill="#17171c"/><rect x="-12" y="-11" width="24" height="4" fill="#17171c"/><rect x="-16" y="-7" width="32" height="4" fill="#17171c"/><rect x="-16" y="-3" width="32" height="4" fill="#17171c"/><rect x="-16" y="1" width="32" height="4" fill="#17171c"/><rect x="-12" y="5" width="24" height="4" fill="#17171c"/><rect x="-12" y="9" width="24" height="4" fill="#17171c"/><rect x="-4" y="13" width="8" height="4" fill="#17171c"/><rect x="-4" y="-8" width="8" height="4" fill="#c9a36a"/><rect x="-8" y="-4" width="16" height="4" fill="#c9a36a"/><rect x="-8" y="0" width="16" height="4" fill="#c9a36a"/><rect x="-4" y="4" width="8" height="4" fill="#c9a36a"/><rect x="-2" y="-2" width="4" height="4" fill="#c0c6cf"/><rect x="-40" y="-18" width="16" height="4" fill="#17171c"/><rect x="-44" y="-14" width="24" height="4" fill="#17171c"/><rect x="-44" y="-10" width="24" height="4" fill="#17171c"/><rect x="-44" y="-6" width="24" height="4" fill="#17171c"/><rect x="-44" y="-2" width="24" height="4" fill="#17171c"/><rect x="-40" y="2" width="16" height="4" fill="#17171c"/><rect x="-36" y="-12" width="8" height="4" fill="#c9a36a"/><rect x="-40" y="-8" width="16" height="4" fill="#c9a36a"/><rect x="-36" y="-4" width="8" height="4" fill="#c9a36a"/><rect x="-34" y="-8" width="4" height="4" fill="#c0c6cf"/><rect x="-14" y="0" width="14" height="4" fill="#d8433f"/><rect x="-10" y="-8" width="4" height="8" fill="#d8433f"/><rect x="-8" y="-16" width="4" height="8" fill="#d8433f"/><rect x="-6" y="-24" width="4" height="8" fill="#d8433f"/><rect x="-26" y="-24" width="22" height="4" fill="#d8433f"/><rect x="-28" y="-16" width="4" height="8" fill="#d8433f"/><rect x="-24" y="-10" width="4" height="6" fill="#d8433f"/><rect x="-18" y="-4" width="4" height="6" fill="#d8433f"/><rect x="-30" y="-26" width="4" height="10" fill="#d8433f"/><rect x="-33" y="-16" width="4" height="10" fill="#d8433f"/><rect x="-12" y="-30" width="14" height="4" fill="#26262c"/><rect x="-38" y="-32" width="12" height="4" fill="#26262c"/><rect x="-38" y="-28" width="4" height="8" fill="#26262c"/><rect x="-16" y="2" width="10" height="4" fill="#c0c6cf"/><g opacity="0"><rect x="-9" y="12" width="18" height="3" fill="#17171c"/><animate attributeName="opacity" calcMode="discrete" values="0;1;0;1;0;1;0" keyTimes="0;0.114286;0.257143;0.447619;0.590476;0.704762;0.847619" dur="42s" repeatCount="indefinite"/></g></g><g opacity="1"><animate attributeName="opacity" calcMode="discrete" values="1;0;1;0;1;0;1" keyTimes="0;0.114286;0.257143;0.447619;0.590476;0.704762;0.847619" dur="42s" repeatCount="indefinite"/><g><rect x="15" y="13" width="4" height="4" fill="#d9c9a8"/><rect x="22" y="8" width="4" height="4" fill="#d9c9a8"/><rect x="28" y="15" width="4" height="4" fill="#d9c9a8"/><animate attributeName="opacity" calcMode="discrete" values="1;0" keyTimes="0;0.5" dur="0.4s" repeatCount="indefinite"/></g></g><g transform="translate(20,-58)" opacity="0"><rect x="0" y="0" width="20" height="24" fill="#fffef2"/><rect x="8" y="4" width="4" height="10" fill="#26262c"/><rect x="8" y="17" width="4" height="4" fill="#26262c"/><animate attributeName="opacity" calcMode="discrete" values="0;1;0;1;0;1;0" keyTimes="0;0.114286;0.138095;0.447619;0.471429;0.704762;0.728571" dur="42s" repeatCount="indefinite"/></g><g transform="translate(23,0)" opacity="0"><animate attributeName="opacity" calcMode="discrete" values="0;1;0;1;0;1;0" keyTimes="0;0.138095;0.171429;0.471429;0.504762;0.728571;0.761905" dur="42s" repeatCount="indefinite"/><g><animateTransform attributeName="transform" type="rotate" calcMode="discrete" values="-18;14" keyTimes="0;0.5" dur="0.6s" repeatCount="indefinite"/><rect x="-2" y="-18" width="4" height="18" fill="#3f7fd4"/><rect x="-4" y="-22" width="8" height="4" fill="#3f7fd4"/></g></g><g transform="translate(33,-20)" opacity="0"><animate attributeName="opacity" calcMode="discrete" values="0;1;0;1;0;1;0" keyTimes="0;0.171429;0.204762;0.504762;0.538095;0.761905;0.795238" dur="42s" repeatCount="indefinite"/><rect x="-8" y="-12" width="16" height="4" fill="#2b2b31"/><rect x="-8" y="4" width="16" height="4" fill="#2b2b31"/><rect x="-12" y="-8" width="4" height="12" fill="#2b2b31"/><rect x="8" y="-8" width="4" height="12" fill="#2b2b31"/></g><g transform="translate(35,-13)" opacity="0"><animate attributeName="opacity" calcMode="discrete" values="0;1;0;1;0;1;0" keyTimes="0;0.204762;0.252381;0.538095;0.585714;0.795238;0.842857" dur="42s" repeatCount="indefinite"/><rect x="-6" y="22" width="16" height="4" fill="#d8433f"/><rect x="0" y="0" width="4" height="22" fill="#d8433f"/><rect x="-6" y="-6" width="16" height="4" fill="#26262c"><animate attributeName="y" calcMode="discrete" values="-6;8" keyTimes="0;0.5" dur="0.5s" repeatCount="indefinite"/></rect></g><g opacity="0"><animate attributeName="opacity" calcMode="discrete" values="0;1;0;1;0;1;0" keyTimes="0;0.247619;0.271429;0.580952;0.604762;0.838095;0.861905" dur="42s" repeatCount="indefinite"/><rect x="-18" y="-30" width="4" height="4" fill="#2f9e57"/><rect x="8" y="-35" width="4" height="4" fill="#2f9e57"/><rect x="-3" y="-16" width="4" height="4" fill="#2f9e57"/></g></g></g><rect x="688" y="208" width="26" height="72" fill="#6b4a2f"/><rect x="680" y="272" width="42" height="8" fill="#6b4a2f"/><rect x="666" y="196" width="24" height="10" fill="#6b4a2f"/><rect x="630" y="216" width="140" height="6" fill="#3c5c38"/><rect x="612" y="196" width="176" height="20" fill="#4d7247"/><rect x="604" y="170" width="192" height="26" fill="#4d7247"/><rect x="610" y="144" width="180" height="26" fill="#4d7247"/><rect x="626" y="126" width="148" height="18" fill="#4d7247"/><rect x="650" y="112" width="100" height="14" fill="#4d7247"/><rect x="658" y="104" width="84" height="8" fill="#5e8455"/><rect x="626" y="122" width="60" height="4" fill="#5e8455"/></svg>