<svg xmlns="http://www.w3.org/2000/svg" viewBox="0 0 1160 280" width="1160" height="280" shape-rendering="crispEdges" role="img" aria-label="Pixel bike rides a dirt trail through rolling green hills, gets flats at three different points, fixes each with lever, tube, and pump, and rides on."><title>roll, break, fix, roll again</title><rect x="0" y="0" width="1160" height="60" fill="#a9d6ea"/><rect x="0" y="60" width="1160" height="30" fill="#bfe2ef"/><rect x="0" y="90" width="1160" height="22" fill="#d3ecf2"/><g><animateTransform attributeName="transform" type="translate" values="0,0;-1160,0" keyTimes="0;1" dur="90s" repeatCount="indefinite"/><rect x="150" y="28" width="48" height="8" fill="#f6fbfd"/><rect x="160" y="22" width="28" height="6" fill="#f6fbfd"/><rect x="156" y="36" width="32" height="4" fill="#dceef4"/><rect x="520" y="14" width="48" height="8" fill="#f6fbfd"/><rect x="530" y="8" width="28" height="6" fill="#f6fbfd"/><rect x="526" y="22" width="32" height="4" fill="#dceef4"/><rect x="900" y="40" width="48" height="8" fill="#f6fbfd"/><rect x="910" y="34" width="28" height="6" fill="#f6fbfd"/><rect x="906" y="48" width="32" height="4" fill="#dceef4"/><rect x="1310" y="28" width="48" height="8" fill="#f6fbfd"/><rect x="1320" y="22" width="28" height="6" fill="#f6fbfd"/><rect x="1316" y="36" width="32" height="4" fill="#dceef4"/><rect x="1680" y="14" width="48" height="8" fill="#f6fbfd"/><rect x="1690" y="8" width="28" height="6" fill="#f6fbfd"/><rect x="1686" y="22" width="32" height="4" fill="#dceef4"/><rect x="2060" y="40" width="48" height="8" fill="#f6fbfd"/><rect x="2070" y="34" width="28" height="6" fill="#f6fbfd"/><rect x="2066" y="48" width="32" height="4" fill="#dceef4"/></g><rect x="0" y="100" width="220" height="12" fill="#8fb4a0"/><rect x="55" y="92" width="110" height="8" fill="#8fb4a0"/><rect x="180" y="94" width="260" height="18" fill="#8fb4a0"/><rect x="245" y="86" width="130" height="8" fill="#8fb4a0"/><rect x="400" y="102" width="240" height="10" fill="#8fb4a0"/><rect x="460" y="94" width="120" height="8" fill="#8fb4a0"/><rect x="600" y="92" width="280" height="20" fill="#8fb4a0"/><rect x="670" y="84" width="140" height="8" fill="#8fb4a0"/><rect x="840" y="98" width="240" height="14" fill="#8fb4a0"/><rect x="900" y="90" width="120" height="8" fill="#8fb4a0"/><rect x="1040" y="94" width="220" height="18" fill="#8fb4a0"/><rect x="1095" y="86" width="110" height="8" fill="#8fb4a0"/><rect x="80" y="104" width="260" height="8" fill="#7aa287"/><rect x="145" y="98" width="130" height="6" fill="#7aa287"/><rect x="360" y="98" width="300" height="14" fill="#7aa287"/><rect x="435" y="92" width="150" height="6" fill="#7aa287"/><rect x="700" y="102" width="280" height="10" fill="#7aa287"/><rect x="770" y="96" width="140" height="6" fill="#7aa287"/><rect x="980" y="100" width="240" height="12" fill="#7aa287"/><rect x="1040" y="94" width="120" height="6" fill="#7aa287"/><rect x="0" y="112" width="1160" height="8" fill="#93b06f"/><rect x="0" y="120" width="1160" height="10" fill="#9cba78"/><rect x="0" y="130" width="1160" height="12" fill="#a6c383"/><rect x="0" y="142" width="1160" height="16" fill="#aecb8d"/><rect x="0" y="158" width="1160" height="20" fill="#b4d094"/><rect x="0" y="178" width="1160" height="26" fill="#b9d29a"/><rect x="0" y="204" width="1160" height="34" fill="#bdd6a0"/><rect x="0" y="238" width="1160" height="42" fill="#c0d8a4"/><g transform="translate(525,116)"><animateTransform attributeName="transform" type="translate" calcMode="discrete" values="525,116;465,124;370,140;210,170;0,238;525,116;465,124;370,140;210,170;0,238;525,116;465,124;370,140;210,170;0,238;525,116;465,124;370,140;210,170;0,238;525,116;465,124;370,140;210,170;0,238;525,116;465,124;370,140;210,170;0,238;525,116;465,124;370,140;210,170;0,238;525,116;465,124;370,140;210,170;0,238;525,116;465,124;370,140;210,170;0,238;525,116;465,124;370,140;210,170;0,238" keyTimes="0;0.014706;0.029412;0.044118;0.058824;0.073529;0.088235;0.102941;0.117647;0.132353;0.235294;0.25;0.264706;0.279412;0.294118;0.308824;0.323529;0.338235;0.352941;0.367647;0.382353;0.397059;0.411765;0.426471;0.441176;0.544118;0.558824;0.573529;0.588235;0.602941;0.617647;0.632353;0.647059;0.661765;0.676471;0.691176;0.705882;0.720588;0.735294;0.75;0.852941;0.867647;0.882353;0.897059;0.911765;0.926471;0.941176;0.955882;0.970588;0.985294" dur="68s" repeatCount="indefinite"/><g transform="scale(0.35)"><animateTransform attributeName="transform" type="scale" calcMode="discrete" values="0.35;0.7;1.3;2.2;3.4;0.35;0.7;1.3;2.2;3.4;0.35;0.7;1.3;2.2;3.4;0.35;0.7;1.3;2.2;3.4;0.35;0.7;1.3;2.2;3.4;0.35;0.7;1.3;2.2;3.4;0.35;0.7;1.3;2.2;3.4;0.35;0.7;1.3;2.2;3.4;0.35;0.7;1.3;2.2;3.4;0.35;0.7;1.3;2.2;3.4" keyTimes="0;0.014706;0.029412;0.044118;0.058824;0.073529;0.088235;0.102941;0.117647;0.132353;0.235294;0.25;0.264706;0.279412;0.294118;0.308824;0.323529;0.338235;0.352941;0.367647;0.382353;0.397059;0.411765;0.426471;0.441176;0.544118;0.558824;0.573529;0.588235;0.602941;0.617647;0.632353;0.647059;0.661765;0.676471;0.691176;0.705882;0.720588;0.735294;0.75;0.852941;0.867647;0.882353;0.897059;0.911765;0.926471;0.941176;0.955882;0.970588;0.985294" dur="68s" repeatCount="indefinite"/><rect x="-8" y="-40" width="16" height="4" fill="#a3c284"/><rect x="-24" y="-36" width="48" height="4" fill="#a3c284"/><rect x="-32" y="-32" width="64" height="4" fill="#84a968"/><rect x="-40" y="-28" width="80" height="4" fill="#84a968"/><rect x="-44" y="-24" width="88" height="4" fill="#84a968"/><rect x="-48" y="-20" width="96" height="4" fill="#84a968"/><rect x="-52" y="-16" width="104" height="4" fill="#84a968"/><rect x="-52" y="-12" width="104" height="4" fill="#84a968"/><rect x="-56" y="-8" width="112" height="4" fill="#84a968"/><rect x="-56" y="-4" width="112" height="4" fill="#69905a"/><rect x="-24" y="-12" width="12" height="6" fill="#3f5f3d"/><rect x="-22" y="-16" width="8" height="4" fill="#3f5f3d"/><rect x="10" y="-18" width="12" height="6" fill="#3f5f3d"/><rect x="12" y="-22" width="8" height="4" fill="#3f5f3d"/><rect x="-4" y="-6" width="12" height="6" fill="#3f5f3d"/><rect x="-2" y="-10" width="8" height="4" fill="#3f5f3d"/></g></g><g transform="translate(370,140)"><animateTransform attributeName="transform" type="translate" calcMode="discrete" values="370,140;210,170;0,238;525,116;465,124;370,140;210,170;0,238;525,116;465,124;370,140;210,170;0,238;525,116;465,124;370,140;210,170;0,238;525,116;465,124;370,140;210,170;0,238;525,116;465,124;370,140;210,170;0,238;525,116;465,124;370,140;210,170;0,238;525,116;465,124;370,140;210,170;0,238;525,116;465,124;370,140;210,170;0,238;525,116;465,124;370,140;210,170;0,238;525,116;465,124" keyTimes="0;0.014706;0.029412;0.044118;0.058824;0.073529;0.088235;0.102941;0.117647;0.132353;0.235294;0.25;0.264706;0.279412;0.294118;0.308824;0.323529;0.338235;0.352941;0.367647;0.382353;0.397059;0.411765;0.426471;0.441176;0.544118;0.558824;0.573529;0.588235;0.602941;0.617647;0.632353;0.647059;0.661765;0.676471;0.691176;0.705882;0.720588;0.735294;0.75;0.852941;0.867647;0.882353;0.897059;0.911765;0.926471;0.941176;0.955882;0.970588;0.985294" dur="68s" repeatCount="indefinite"/><g transform="scale(1.3)"><animateTransform attributeName="transform" type="scale" calcMode="discrete" values="1.3;2.2;3.4;0.35;0.7;1.3;2.2;3.4;0.35;0.7;1.3;2.2;3.4;0.35;0.7;1.3;2.2;3.4;0.35;0.7;1.3;2.2;3.4;0.35;0.7;1.3;2.2;3.4;0.35;0.7;1.3;2.2;3.4;0.35;0.7;1.3;2.2;3.4;0.35;0.7;1.3;2.2;3.4;0.35;0.7;1.3;2.2;3.4;0.35;0.7" keyTimes="0;0.014706;0.029412;0.044118;0.058824;0.073529;0.088235;0.102941;0.117647;0.132353;0.235294;0.25;0.264706;0.279412;0.294118;0.308824;0.323529;0.338235;0.352941;0.367647;0.382353;0.397059;0.411765;0.426471;0.441176;0.544118;0.558824;0.573529;0.588235;0.602941;0.617647;0.632353;0.647059;0.661765;0.676471;0.691176;0.705882;0.720588;0.735294;0.75;0.852941;0.867647;0.882353;0.897059;0.911765;0.926471;0.941176;0.955882;0.970588;0.985294" dur="68s" repeatCount="indefinite"/><rect x="-8" y="-40" width="16" height="4" fill="#a3c284"/><rect x="-24" y="-36" width="48" height="4" fill="#a3c284"/><rect x="-32" y="-32" width="64" height="4" fill="#84a968"/><rect x="-40" y="-28" width="80" height="4" fill="#84a968"/><rect x="-44" y="-24" width="88" height="4" fill="#84a968"/><rect x="-48" y="-20" width="96" height="4" fill="#84a968"/><rect x="-52" y="-16" width="104" height="4" fill="#84a968"/><rect x="-52" y="-12" width="104" height="4" fill="#84a968"/><rect x="-56" y="-8" width="112" height="4" fill="#84a968"/><rect x="-56" y="-4" width="112" height="4" fill="#69905a"/><rect x="-24" y="-12" width="12" height="6" fill="#3f5f3d"/><rect x="-22" y="-16" width="8" height="4" fill="#3f5f3d"/><rect x="10" y="-18" width="12" height="6" fill="#3f5f3d"/><rect x="12" y="-22" width="8" height="4" fill="#3f5f3d"/><rect x="-4" y="-6" width="12" height="6" fill="#3f5f3d"/><rect x="-2" y="-10" width="8" height="4" fill="#3f5f3d"/><rect x="-4" y="-56" width="8" height="18" fill="#6b4a2f"/><rect x="-18" y="-66" width="36" height="8" fill="#4d7247"/><rect x="-26" y="-60" width="52" height="8" fill="#4d7247"/><rect x="-12" y="-72" width="24" height="6" fill="#4d7247"/><rect x="-22" y="-52" width="44" height="4" fill="#3c5c38"/></g></g><g transform="translate(705,124)"><animateTransform attributeName="transform" type="translate" calcMode="discrete" values="705,124;800,140;960,170;1180,238;655,116;705,124;800,140;960,170;1180,238;655,116;705,124;800,140;960,170;1180,238;655,116;705,124;800,140;960,170;1180,238;655,116;705,124;800,140;960,170;1180,238;655,116;705,124;800,140;960,170;1180,238;655,116;705,124;800,140;960,170;1180,238;655,116;705,124;800,140;960,170;1180,238;655,116;705,124;800,140;960,170;1180,238;655,116;705,124;800,140;960,170;1180,238;655,116" keyTimes="0;0.014706;0.029412;0.044118;0.058824;0.073529;0.088235;0.102941;0.117647;0.132353;0.235294;0.25;0.264706;0.279412;0.294118;0.308824;0.323529;0.338235;0.352941;0.367647;0.382353;0.397059;0.411765;0.426471;0.441176;0.544118;0.558824;0.573529;0.588235;0.602941;0.617647;0.632353;0.647059;0.661765;0.676471;0.691176;0.705882;0.720588;0.735294;0.75;0.852941;0.867647;0.882353;0.897059;0.911765;0.926471;0.941176;0.955882;0.970588;0.985294" dur="68s" repeatCount="indefinite"/><g transform="scale(0.7)"><animateTransform attributeName="transform" type="scale" calcMode="discrete" values="0.7;1.3;2.2;3.6;0.35;0.7;1.3;2.2;3.6;0.35;0.7;1.3;2.2;3.6;0.35;0.7;1.3;2.2;3.6;0.35;0.7;1.3;2.2;3.6;0.35;0.7;1.3;2.2;3.6;0.35;0.7;1.3;2.2;3.6;0.35;0.7;1.3;2.2;3.6;0.35;0.7;1.3;2.2;3.6;0.35;0.7;1.3;2.2;3.6;0.35" keyTimes="0;0.014706;0.029412;0.044118;0.058824;0.073529;0.088235;0.102941;0.117647;0.132353;0.235294;0.25;0.264706;0.279412;0.294118;0.308824;0.323529;0.338235;0.352941;0.367647;0.382353;0.397059;0.411765;0.426471;0.441176;0.544118;0.558824;0.573529;0.588235;0.602941;0.617647;0.632353;0.647059;0.661765;0.676471;0.691176;0.705882;0.720588;0.735294;0.75;0.852941;0.867647;0.882353;0.897059;0.911765;0.926471;0.941176;0.955882;0.970588;0.985294" dur="68s" repeatCount="indefinite"/><rect x="-8" y="-40" width="16" height="4" fill="#a3c284"/><rect x="-24" y="-36" width="48" height="4" fill="#a3c284"/><rect x="-32" y="-32" width="64" height="4" fill="#84a968"/><rect x="-40" y="-28" width="80" height="4" fill="#84a968"/><rect x="-44" y="-24" width="88" height="4" fill="#84a968"/><rect x="-48" y="-20" width="96" height="4" fill="#84a968"/><rect x="-52" y="-16" width="104" height="4" fill="#84a968"/><rect x="-52" y="-12" width="104" height="4" fill="#84a968"/><rect x="-56" y="-8" width="112" height="4" fill="#84a968"/><rect x="-56" y="-4" width="112" height="4" fill="#69905a"/><rect x="-24" y="-12" width="12" height="6" fill="#3f5f3d"/><rect x="-22" y="-16" width="8" height="4" fill="#3f5f3d"/><rect x="10" y="-18" width="12" height="6" fill="#3f5f3d"/><rect x="12" y="-22" width="8" height="4" fill="#3f5f3d"/><rect x="-4" y="-6" width="12" height="6" fill="#3f5f3d"/><rect x="-2" y="-10" width="8" height="4" fill="#3f5f3d"/><rect x="-4" y="-56" width="8" height="18" fill="#6b4a2f"/><rect x="-18" y="-66" width="36" height="8" fill="#4d7247"/><rect x="-26" y="-60" width="52" height="8" fill="#4d7247"/><rect x="-12" y="-72" width="24" height="6" fill="#4d7247"/><rect x="-22" y="-52" width="44" height="4" fill="#3c5c38"/></g></g><g transform="translate(960,170)"><animateTransform attributeName="transform" type="translate" calcMode="discrete" values="960,170;1180,238;655,116;705,124;800,140;960,170;1180,238;655,116;705,124;800,140;960,170;1180,238;655,116;705,124;800,140;960,170;1180,238;655,116;705,124;800,140;960,170;1180,238;655,116;705,124;800,140;960,170;1180,238;655,116;705,124;800,140;960,170;1180,238;655,116;705,124;800,140;960,170;1180,238;655,116;705,124;800,140;960,170;1180,238;655,116;705,124;800,140;960,170;1180,238;655,116;705,124;800,140" keyTimes="0;0.014706;0.029412;0.044118;0.058824;0.073529;0.088235;0.102941;0.117647;0.132353;0.235294;0.25;0.264706;0.279412;0.294118;0.308824;0.323529;0.338235;0.352941;0.367647;0.382353;0.397059;0.411765;0.426471;0.441176;0.544118;0.558824;0.573529;0.588235;0.602941;0.617647;0.632353;0.647059;0.661765;0.676471;0.691176;0.705882;0.720588;0.735294;0.75;0.852941;0.867647;0.882353;0.897059;0.911765;0.926471;0.941176;0.955882;0.970588;0.985294" dur="68s" repeatCount="indefinite"/><g transform="scale(2.2)"><animateTransform attributeName="transform" type="scale" calcMode="discrete" values="2.2;3.6;0.35;0.7;1.3;2.2;3.6;0.35;0.7;1.3;2.2;3.6;0.35;0.7;1.3;2.2;3.6;0.35;0.7;1.3;2.2;3.6;0.35;0.7;1.3;2.2;3.6;0.35;0.7;1.3;2.2;3.6;0.35;0.7;1.3;2.2;3.6;0.35;0.7;1.3;2.2;3.6;0.35;0.7;1.3;2.2;3.6;0.35;0.7;1.3" keyTimes="0;0.014706;0.029412;0.044118;0.058824;0.073529;0.088235;0.102941;0.117647;0.132353;0.235294;0.25;0.264706;0.279412;0.294118;0.308824;0.323529;0.338235;0.352941;0.367647;0.382353;0.397059;0.411765;0.426471;0.441176;0.544118;0.558824;0.573529;0.588235;0.602941;0.617647;0.632353;0.647059;0.661765;0.676471;0.691176;0.705882;0.720588;0.735294;0.75;0.852941;0.867647;0.882353;0.897059;0.911765;0.926471;0.941176;0.955882;0.970588;0.985294" dur="68s" repeatCount="indefinite"/><rect x="-8" y="-40" width="16" height="4" fill="#a3c284"/><rect x="-24" y="-36" width="48" height="4" fill="#a3c284"/><rect x="-32" y="-32" width="64" height="4" fill="#84a968"/><rect x="-40" y="-28" width="80" height="4" fill="#84a968"/><rect x="-44" y="-24" width="88" height="4" fill="#84a968"/><rect x="-48" y="-20" width="96" height="4" fill="#84a968"/><rect x="-52" y="-16" width="104" height="4" fill="#84a968"/><rect x="-52" y="-12" width="104" height="4" fill="#84a968"/><rect x="-56" y="-8" width="112" height="4" fill="#84a968"/><rect x="-56" y="-4" width="112" height="4" fill="#69905a"/><rect x="-24" y="-12" width="12" height="6" fill="#3f5f3d"/><rect x="-22" y="-16" width="8" height="4" fill="#3f5f3d"/><rect x="10" y="-18" width="12" height="6" fill="#3f5f3d"/><rect x="12" y="-22" width="8" height="4" fill="#3f5f3d"/><rect x="-4" y="-6" width="12" height="6" fill="#3f5f3d"/><rect x="-2" y="-10" width="8" height="4" fill="#3f5f3d"/></g></g><g transform="translate(516,138)"><animateTransform attributeName="transform" type="translate" calcMode="discrete" values="516,138;470,158;390,196;240,268;542,126;516,138;470,158;390,196;240,268;542,126;516,138;470,158;390,196;240,268;542,126;516,138;470,158;390,196;240,268;542,126;516,138;470,158;390,196;240,268;542,126;516,138;470,158;390,196;240,268;542,126;516,138;470,158;390,196;240,268;542,126;516,138;470,158;390,196;240,268;542,126;516,138;470,158;390,196;240,268;542,126;516,138;470,158;390,196;240,268;542,126" keyTimes="0;0.014706;0.029412;0.044118;0.058824;0.073529;0.088235;0.102941;0.117647;0.132353;0.235294;0.25;0.264706;0.279412;0.294118;0.308824;0.323529;0.338235;0.352941;0.367647;0.382353;0.397059;0.411765;0.426471;0.441176;0.544118;0.558824;0.573529;0.588235;0.602941;0.617647;0.632353;0.647059;0.661765;0.676471;0.691176;0.705882;0.720588;0.735294;0.75;0.852941;0.867647;0.882353;0.897059;0.911765;0.926471;0.941176;0.955882;0.970588;0.985294" dur="68s" repeatCount="indefinite"/><g transform="scale(0.8)"><animateTransform attributeName="transform" type="scale" calcMode="discrete" values="0.8;1.4;2.3;3.6;0.4;0.8;1.4;2.3;3.6;0.4;0.8;1.4;2.3;3.6;0.4;0.8;1.4;2.3;3.6;0.4;0.8;1.4;2.3;3.6;0.4;0.8;1.4;2.3;3.6;0.4;0.8;1.4;2.3;3.6;0.4;0.8;1.4;2.3;3.6;0.4;0.8;1.4;2.3;3.6;0.4;0.8;1.4;2.3;3.6;0.4" keyTimes="0;0.014706;0.029412;0.044118;0.058824;0.073529;0.088235;0.102941;0.117647;0.132353;0.235294;0.25;0.264706;0.279412;0.294118;0.308824;0.323529;0.338235;0.352941;0.367647;0.382353;0.397059;0.411765;0.426471;0.441176;0.544118;0.558824;0.573529;0.588235;0.602941;0.617647;0.632353;0.647059;0.661765;0.676471;0.691176;0.705882;0.720588;0.735294;0.75;0.852941;0.867647;0.882353;0.897059;0.911765;0.926471;0.941176;0.955882;0.970588;0.985294" dur="68s" repeatCount="indefinite"/><rect x="-10" y="-8" width="20" height="8" fill="#3f5f3d"/><rect x="-6" y="-12" width="12" height="4" fill="#3f5f3d"/><rect x="-2" y="-14" width="6" height="4" fill="#5a7c52"/></g></g><g transform="translate(240,268)"><animateTransform attributeName="transform" type="translate" calcMode="discrete" values="240,268;542,126;516,138;470,158;390,196;240,268;542,126;516,138;470,158;390,196;240,268;542,126;516,138;470,158;390,196;240,268;542,126;516,138;470,158;390,196;240,268;542,126;516,138;470,158;390,196;240,268;542,126;516,138;470,158;390,196;240,268;542,126;516,138;470,158;390,196;240,268;542,126;516,138;470,158;390,196;240,268;542,126;516,138;470,158;390,196;240,268;542,126;516,138;470,158;390,196" keyTimes="0;0.014706;0.029412;0.044118;0.058824;0.073529;0.088235;0.102941;0.117647;0.132353;0.235294;0.25;0.264706;0.279412;0.294118;0.308824;0.323529;0.338235;0.352941;0.367647;0.382353;0.397059;0.411765;0.426471;0.441176;0.544118;0.558824;0.573529;0.588235;0.602941;0.617647;0.632353;0.647059;0.661765;0.676471;0.691176;0.705882;0.720588;0.735294;0.75;0.852941;0.867647;0.882353;0.897059;0.911765;0.926471;0.941176;0.955882;0.970588;0.985294" dur="68s" repeatCount="indefinite"/><g transform="scale(3.6)"><animateTransform attributeName="transform" type="scale" calcMode="discrete" values="3.6;0.4;0.8;1.4;2.3;3.6;0.4;0.8;1.4;2.3;3.6;0.4;0.8;1.4;2.3;3.6;0.4;0.8;1.4;2.3;3.6;0.4;0.8;1.4;2.3;3.6;0.4;0.8;1.4;2.3;3.6;0.4;0.8;1.4;2.3;3.6;0.4;0.8;1.4;2.3;3.6;0.4;0.8;1.4;2.3;3.6;0.4;0.8;1.4;2.3" keyTimes="0;0.014706;0.029412;0.044118;0.058824;0.073529;0.088235;0.102941;0.117647;0.132353;0.235294;0.25;0.264706;0.279412;0.294118;0.308824;0.323529;0.338235;0.352941;0.367647;0.382353;0.397059;0.411765;0.426471;0.441176;0.544118;0.558824;0.573529;0.588235;0.602941;0.617647;0.632353;0.647059;0.661765;0.676471;0.691176;0.705882;0.720588;0.735294;0.75;0.852941;0.867647;0.882353;0.897059;0.911765;0.926471;0.941176;0.955882;0.970588;0.985294" dur="68s" repeatCount="indefinite"/><rect x="-10" y="-8" width="20" height="8" fill="#3f5f3d"/><rect x="-6" y="-12" width="12" height="4" fill="#3f5f3d"/><rect x="-2" y="-14" width="6" height="4" fill="#5a7c52"/></g></g><g transform="translate(585,126)"><animateTransform attributeName="transform" type="translate" calcMode="discrete" values="585,126;610,138;655,158;730,196;880,268;585,126;610,138;655,158;730,196;880,268;585,126;610,138;655,158;730,196;880,268;585,126;610,138;655,158;730,196;880,268;585,126;610,138;655,158;730,196;880,268;585,126;610,138;655,158;730,196;880,268;585,126;610,138;655,158;730,196;880,268;585,126;610,138;655,158;730,196;880,268;585,126;610,138;655,158;730,196;880,268;585,126;610,138;655,158;730,196;880,268" keyTimes="0;0.014706;0.029412;0.044118;0.058824;0.073529;0.088235;0.102941;0.117647;0.132353;0.235294;0.25;0.264706;0.279412;0.294118;0.308824;0.323529;0.338235;0.352941;0.367647;0.382353;0.397059;0.411765;0.426471;0.441176;0.544118;0.558824;0.573529;0.588235;0.602941;0.617647;0.632353;0.647059;0.661765;0.676471;0.691176;0.705882;0.720588;0.735294;0.75;0.852941;0.867647;0.882353;0.897059;0.911765;0.926471;0.941176;0.955882;0.970588;0.985294" dur="68s" repeatCount="indefinite"/><g transform="scale(0.4)"><animateTransform attributeName="transform" type="scale" calcMode="discrete" values="0.4;0.8;1.4;2.3;3.6;0.4;0.8;1.4;2.3;3.6;0.4;0.8;1.4;2.3;3.6;0.4;0.8;1.4;2.3;3.6;0.4;0.8;1.4;2.3;3.6;0.4;0.8;1.4;2.3;3.6;0.4;0.8;1.4;2.3;3.6;0.4;0.8;1.4;2.3;3.6;0.4;0.8;1.4;2.3;3.6;0.4;0.8;1.4;2.3;3.6" keyTimes="0;0.014706;0.029412;0.044118;0.058824;0.073529;0.088235;0.102941;0.117647;0.132353;0.235294;0.25;0.264706;0.279412;0.294118;0.308824;0.323529;0.338235;0.352941;0.367647;0.382353;0.397059;0.411765;0.426471;0.441176;0.544118;0.558824;0.573529;0.588235;0.602941;0.617647;0.632353;0.647059;0.661765;0.676471;0.691176;0.705882;0.720588;0.735294;0.75;0.852941;0.867647;0.882353;0.897059;0.911765;0.926471;0.941176;0.955882;0.970588;0.985294" dur="68s" repeatCount="indefinite"/><rect x="-10" y="-8" width="20" height="8" fill="#3f5f3d"/><rect x="-6" y="-12" width="12" height="4" fill="#3f5f3d"/><rect x="-2" y="-14" width="6" height="4" fill="#5a7c52"/></g></g><g transform="translate(730,196)"><animateTransform attributeName="transform" type="translate" calcMode="discrete" values="730,196;880,268;585,126;610,138;655,158;730,196;880,268;585,126;610,138;655,158;730,196;880,268;585,126;610,138;655,158;730,196;880,268;585,126;610,138;655,158;730,196;880,268;585,126;610,138;655,158;730,196;880,268;585,126;610,138;655,158;730,196;880,268;585,126;610,138;655,158;730,196;880,268;585,126;610,138;655,158;730,196;880,268;585,126;610,138;655,158;730,196;880,268;585,126;610,138;655,158" keyTimes="0;0.014706;0.029412;0.044118;0.058824;0.073529;0.088235;0.102941;0.117647;0.132353;0.235294;0.25;0.264706;0.279412;0.294118;0.308824;0.323529;0.338235;0.352941;0.367647;0.382353;0.397059;0.411765;0.426471;0.441176;0.544118;0.558824;0.573529;0.588235;0.602941;0.617647;0.632353;0.647059;0.661765;0.676471;0.691176;0.705882;0.720588;0.735294;0.75;0.852941;0.867647;0.882353;0.897059;0.911765;0.926471;0.941176;0.955882;0.970588;0.985294" dur="68s" repeatCount="indefinite"/><g transform="scale(2.3)"><animateTransform attributeName="transform" type="scale" calcMode="discrete" values="2.3;3.6;0.4;0.8;1.4;2.3;3.6;0.4;0.8;1.4;2.3;3.6;0.4;0.8;1.4;2.3;3.6;0.4;0.8;1.4;2.3;3.6;0.4;0.8;1.4;2.3;3.6;0.4;0.8;1.4;2.3;3.6;0.4;0.8;1.4;2.3;3.6;0.4;0.8;1.4;2.3;3.6;0.4;0.8;1.4;2.3;3.6;0.4;0.8;1.4" keyTimes="0;0.014706;0.029412;0.044118;0.058824;0.073529;0.088235;0.102941;0.117647;0.132353;0.235294;0.25;0.264706;0.279412;0.294118;0.308824;0.323529;0.338235;0.352941;0.367647;0.382353;0.397059;0.411765;0.426471;0.441176;0.544118;0.558824;0.573529;0.588235;0.602941;0.617647;0.632353;0.647059;0.661765;0.676471;0.691176;0.705882;0.720588;0.735294;0.75;0.852941;0.867647;0.882353;0.897059;0.911765;0.926471;0.941176;0.955882;0.970588;0.985294" dur="68s" repeatCount="indefinite"/><rect x="-10" y="-8" width="20" height="8" fill="#3f5f3d"/><rect x="-6" y="-12" width="12" height="4" fill="#3f5f3d"/><rect x="-2" y="-14" width="6" height="4" fill="#5a7c52"/></g></g><defs><clipPath id="band0"><rect x="0" y="244" width="1160" height="48"/></clipPath><clipPath id="band1"><rect x="0" y="216" width="1160" height="28"/></clipPath><clipPath id="band2"><rect x="0" y="192" width="1160" height="24"/></clipPath><clipPath id="band3"><rect x="0" y="172" width="1160" height="20"/></clipPath><clipPath id="band4"><rect x="0" y="156" width="1160" height="16"/></clipPath><clipPath id="band5"><rect x="0" y="142" width="1160" height="14"/></clipPath><clipPath id="band6"><rect x="0" y="128" width="1160" height="14"/></clipPath><clipPath id="band7"><rect x="0" y="100" width="1160" height="28"/></clipPath></defs><g clip-path="url(#band0)"><path d="M660,292 C630,264 612,252 600,240 C574,222 542,214 546,198 C550,182 576,176 570,160 C564,146 556,134 556,116" fill="none" stroke="#8a6b42" stroke-width="54"/><path d="M660,292 C630,264 612,252 600,240 C574,222 542,214 546,198 C550,182 576,176 570,160 C564,146 556,134 556,116" fill="none" stroke="#c9a36a" stroke-width="48"/><path d="M660,292 C630,264 612,252 600,240 C574,222 542,214 546,198 C550,182 576,176 570,160 C564,146 556,134 556,116" fill="none" stroke="#b08a52" stroke-width="9" stroke-dasharray="26 18"><animate attributeName="stroke-dashoffset" calcMode="discrete" values="0;17.6;35.2;52.8;70.4;88;105.6;123.2;140.8;158.4;176;193.6;211.2;228.8;246.4;264;281.6;299.2;316.8;334.4;352;369.6;387.2;404.8;422.4;440;457.6;475.2;492.8;510.4;528;545.6;563.2;580.8;598.4;616;633.6;651.2;668.8;686.4;704;721.6;739.2;756.8;774.4;792;809.6;827.2;844.8;862.4" keyTimes="0;0.014706;0.029412;0.044118;0.058824;0.073529;0.088235;0.102941;0.117647;0.132353;0.235294;0.25;0.264706;0.279412;0.294118;0.308824;0.323529;0.338235;0.352941;0.367647;0.382353;0.397059;0.411765;0.426471;0.441176;0.544118;0.558824;0.573529;0.588235;0.602941;0.617647;0.632353;0.647059;0.661765;0.676471;0.691176;0.705882;0.720588;0.735294;0.75;0.852941;0.867647;0.882353;0.897059;0.911765;0.926471;0.941176;0.955882;0.970588;0.985294" dur="68s" repeatCount="indefinite"/></path></g><g clip-path="url(#band1)"><path d="M660,292 C630,264 612,252 600,240 C574,222 542,214 546,198 C550,182 576,176 570,160 C564,146 556,134 556,116" fill="none" stroke="#8a6b42" stroke-width="46"/><path d="M660,292 C630,264 612,252 600,240 C574,222 542,214 546,198 C550,182 576,176 570,160 C564,146 556,134 556,116" fill="none" stroke="#c9a36a" stroke-width="40"/><path d="M660,292 C630,264 612,252 600,240 C574,222 542,214 546,198 C550,182 576,176 570,160 C564,146 556,134 556,116" fill="none" stroke="#b08a52" stroke-width="8" stroke-dasharray="22 16"><animate attributeName="stroke-dashoffset" calcMode="discrete" values="0;15.2;30.4;45.6;60.8;76;91.2;106.4;121.6;136.8;152;167.2;182.4;197.6;212.8;228;243.2;258.4;273.6;288.8;304;319.2;334.4;349.6;364.8;380;395.2;410.4;425.6;440.8;456;471.2;486.4;501.6;516.8;532;547.2;562.4;577.6;592.8;608;623.2;638.4;653.6;668.8;684;699.2;714.4;729.6;744.8" keyTimes="0;0.014706;0.029412;0.044118;0.058824;0.073529;0.088235;0.102941;0.117647;0.132353;0.235294;0.25;0.264706;0.279412;0.294118;0.308824;0.323529;0.338235;0.352941;0.367647;0.382353;0.397059;0.411765;0.426471;0.441176;0.544118;0.558824;0.573529;0.588235;0.602941;0.617647;0.632353;0.647059;0.661765;0.676471;0.691176;0.705882;0.720588;0.735294;0.75;0.852941;0.867647;0.882353;0.897059;0.911765;0.926471;0.941176;0.955882;0.970588;0.985294" dur="68s" repeatCount="indefinite"/></path></g><g clip-path="url(#band2)"><path d="M660,292 C630,264 612,252 600,240 C574,222 542,214 546,198 C550,182 576,176 570,160 C564,146 556,134 556,116" fill="none" stroke="#8a6b42" stroke-width="38"/><path d="M660,292 C630,264 612,252 600,240 C574,222 542,214 546,198 C550,182 576,176 570,160 C564,146 556,134 556,116" fill="none" stroke="#c9a36a" stroke-width="32"/><path d="M660,292 C630,264 612,252 600,240 C574,222 542,214 546,198 C550,182 576,176 570,160 C564,146 556,134 556,116" fill="none" stroke="#b08a52" stroke-width="7" stroke-dasharray="19 13"><animate attributeName="stroke-dashoffset" calcMode="discrete" values="0;12.8;25.6;38.4;51.2;64;76.8;89.6;102.4;115.2;128;140.8;153.6;166.4;179.2;192;204.8;217.6;230.4;243.2;256;268.8;281.6;294.4;307.2;320;332.8;345.6;358.4;371.2;384;396.8;409.6;422.4;435.2;448;460.8;473.6;486.4;499.2;512;524.8;537.6;550.4;563.2;576;588.8;601.6;614.4;627.2" keyTimes="0;0.014706;0.029412;0.044118;0.058824;0.073529;0.088235;0.102941;0.117647;0.132353;0.235294;0.25;0.264706;0.279412;0.294118;0.308824;0.323529;0.338235;0.352941;0.367647;0.382353;0.397059;0.411765;0.426471;0.441176;0.544118;0.558824;0.573529;0.588235;0.602941;0.617647;0.632353;0.647059;0.661765;0.676471;0.691176;0.705882;0.720588;0.735294;0.75;0.852941;0.867647;0.882353;0.897059;0.911765;0.926471;0.941176;0.955882;0.970588;0.985294" dur="68s" repeatCount="indefinite"/></path></g><g clip-path="url(#band3)"><path d="M660,292 C630,264 612,252 600,240 C574,222 542,214 546,198 C550,182 576,176 570,160 C564,146 556,134 556,116" fill="none" stroke="#8a6b42" stroke-width="31"/><path d="M660,292 C630,264 612,252 600,240 C574,222 542,214 546,198 C550,182 576,176 570,160 C564,146 556,134 556,116" fill="none" stroke="#c9a36a" stroke-width="25"/><path d="M660,292 C630,264 612,252 600,240 C574,222 542,214 546,198 C550,182 576,176 570,160 C564,146 556,134 556,116" fill="none" stroke="#b08a52" stroke-width="6" stroke-dasharray="16 11"><animate attributeName="stroke-dashoffset" calcMode="discrete" values="0;10.8;21.6;32.4;43.2;54;64.8;75.6;86.4;97.2;108;118.8;129.6;140.4;151.2;162;172.8;183.6;194.4;205.2;216;226.8;237.6;248.4;259.2;270;280.8;291.6;302.4;313.2;324;334.8;345.6;356.4;367.2;378;388.8;399.6;410.4;421.2;432;442.8;453.6;464.4;475.2;486;496.8;507.6;518.4;529.2" keyTimes="0;0.014706;0.029412;0.044118;0.058824;0.073529;0.088235;0.102941;0.117647;0.132353;0.235294;0.25;0.264706;0.279412;0.294118;0.308824;0.323529;0.338235;0.352941;0.367647;0.382353;0.397059;0.411765;0.426471;0.441176;0.544118;0.558824;0.573529;0.588235;0.602941;0.617647;0.632353;0.647059;0.661765;0.676471;0.691176;0.705882;0.720588;0.735294;0.75;0.852941;0.867647;0.882353;0.897059;0.911765;0.926471;0.941176;0.955882;0.970588;0.985294" dur="68s" repeatCount="indefinite"/></path></g><g clip-path="url(#band4)"><path d="M660,292 C630,264 612,252 600,240 C574,222 542,214 546,198 C550,182 576,176 570,160 C564,146 556,134 556,116" fill="none" stroke="#8a6b42" stroke-width="25"/><path d="M660,292 C630,264 612,252 600,240 C574,222 542,214 546,198 C550,182 576,176 570,160 C564,146 556,134 556,116" fill="none" stroke="#c9a36a" stroke-width="19"/><path d="M660,292 C630,264 612,252 600,240 C574,222 542,214 546,198 C550,182 576,176 570,160 C564,146 556,134 556,116" fill="none" stroke="#b08a52" stroke-width="5" stroke-dasharray="14 9"><animate attributeName="stroke-dashoffset" calcMode="discrete" values="0;9.2;18.4;27.6;36.8;46;55.2;64.4;73.6;82.8;92;101.2;110.4;119.6;128.8;138;147.2;156.4;165.6;174.8;184;193.2;202.4;211.6;220.8;230;239.2;248.4;257.6;266.8;276;285.2;294.4;303.6;312.8;322;331.2;340.4;349.6;358.8;368;377.2;386.4;395.6;404.8;414;423.2;432.4;441.6;450.8" keyTimes="0;0.014706;0.029412;0.044118;0.058824;0.073529;0.088235;0.102941;0.117647;0.132353;0.235294;0.25;0.264706;0.279412;0.294118;0.308824;0.323529;0.338235;0.352941;0.367647;0.382353;0.397059;0.411765;0.426471;0.441176;0.544118;0.558824;0.573529;0.588235;0.602941;0.617647;0.632353;0.647059;0.661765;0.676471;0.691176;0.705882;0.720588;0.735294;0.75;0.852941;0.867647;0.882353;0.897059;0.911765;0.926471;0.941176;0.955882;0.970588;0.985294" dur="68s" repeatCount="indefinite"/></path></g><g clip-path="url(#band5)"><path d="M660,292 C630,264 612,252 600,240 C574,222 542,214 546,198 C550,182 576,176 570,160 C564,146 556,134 556,116" fill="none" stroke="#8a6b42" stroke-width="20"/><path d="M660,292 C630,264 612,252 600,240 C574,222 542,214 546,198 C550,182 576,176 570,160 C564,146 556,134 556,116" fill="none" stroke="#c9a36a" stroke-width="14"/><path d="M660,292 C630,264 612,252 600,240 C574,222 542,214 546,198 C550,182 576,176 570,160 C564,146 556,134 556,116" fill="none" stroke="#b08a52" stroke-width="4" stroke-dasharray="12 8"><animate attributeName="stroke-dashoffset" calcMode="discrete" values="0;8;16;24;32;40;48;56;64;72;80;88;96;104;112;120;128;136;144;152;160;168;176;184;192;200;208;216;224;232;240;248;256;264;272;280;288;296;304;312;320;328;336;344;352;360;368;376;384;392" keyTimes="0;0.014706;0.029412;0.044118;0.058824;0.073529;0.088235;0.102941;0.117647;0.132353;0.235294;0.25;0.264706;0.279412;0.294118;0.308824;0.323529;0.338235;0.352941;0.367647;0.382353;0.397059;0.411765;0.426471;0.441176;0.544118;0.558824;0.573529;0.588235;0.602941;0.617647;0.632353;0.647059;0.661765;0.676471;0.691176;0.705882;0.720588;0.735294;0.75;0.852941;0.867647;0.882353;0.897059;0.911765;0.926471;0.941176;0.955882;0.970588;0.985294" dur="68s" repeatCount="indefinite"/></path></g><g clip-path="url(#band6)"><path d="M660,292 C630,264 612,252 600,240 C574,222 542,214 546,198 C550,182 576,176 570,160 C564,146 556,134 556,116" fill="none" stroke="#8a6b42" stroke-width="16"/><path d="M660,292 C630,264 612,252 600,240 C574,222 542,214 546,198 C550,182 576,176 570,160 C564,146 556,134 556,116" fill="none" stroke="#c9a36a" stroke-width="10"/><path d="M660,292 C630,264 612,252 600,240 C574,222 542,214 546,198 C550,182 576,176 570,160 C564,146 556,134 556,116" fill="none" stroke="#b08a52" stroke-width="3" stroke-dasharray="9 6"><animate attributeName="stroke-dashoffset" calcMode="discrete" values="0;6;12;18;24;30;36;42;48;54;60;66;72;78;84;90;96;102;108;114;120;126;132;138;144;150;156;162;168;174;180;186;192;198;204;210;216;222;228;234;240;246;252;258;264;270;276;282;288;294" keyTimes="0;0.014706;0.029412;0.044118;0.058824;0.073529;0.088235;0.102941;0.117647;0.132353;0.235294;0.25;0.264706;0.279412;0.294118;0.308824;0.323529;0.338235;0.352941;0.367647;0.382353;0.397059;0.411765;0.426471;0.441176;0.544118;0.558824;0.573529;0.588235;0.602941;0.617647;0.632353;0.647059;0.661765;0.676471;0.691176;0.705882;0.720588;0.735294;0.75;0.852941;0.867647;0.882353;0.897059;0.911765;0.926471;0.941176;0.955882;0.970588;0.985294" dur="68s" repeatCount="indefinite"/></path></g><g clip-path="url(#band7)"><path d="M660,292 C630,264 612,252 600,240 C574,222 542,214 546,198 C550,182 576,176 570,160 C564,146 556,134 556,116" fill="none" stroke="#8a6b42" stroke-width="13"/><path d="M660,292 C630,264 612,252 600,240 C574,222 542,214 546,198 C550,182 576,176 570,160 C564,146 556,134 556,116" fill="none" stroke="#c9a36a" stroke-width="7"/><path d="M660,292 C630,264 612,252 600,240 C574,222 542,214 546,198 C550,182 576,176 570,160 C564,146 556,134 556,116" fill="none" stroke="#b08a52" stroke-width="3" stroke-dasharray="7 5"><animate attributeName="stroke-dashoffset" calcMode="discrete" values="0;4.8;9.6;14.4;19.2;24;28.8;33.6;38.4;43.2;48;52.8;57.6;62.4;67.2;72;76.8;81.6;86.4;91.2;96;100.8;105.6;110.4;115.2;120;124.8;129.6;134.4;139.2;144;148.8;153.6;158.4;163.2;168;172.8;177.6;182.4;187.2;192;196.8;201.6;206.4;211.2;216;220.8;225.6;230.4;235.2" keyTimes="0;0.014706;0.029412;0.044118;0.058824;0.073529;0.088235;0.102941;0.117647;0.132353;0.235294;0.25;0.264706;0.279412;0.294118;0.308824;0.323529;0.338235;0.352941;0.367647;0.382353;0.397059;0.411765;0.426471;0.441176;0.544118;0.558824;0.573529;0.588235;0.602941;0.617647;0.632353;0.647059;0.661765;0.676471;0.691176;0.705882;0.720588;0.735294;0.75;0.852941;0.867647;0.882353;0.897059;0.911765;0.926471;0.941176;0.955882;0.970588;0.985294" dur="68s" repeatCount="indefinite"/></path></g><g><animateTransform attributeName="transform" type="rotate" calcMode="discrete" values="0,606,236;-8,606,236;0,606,236;-8,606,236;0,606,236;-8,606,236;0,606,236" keyTimes="0;0.147059;0.235294;0.455882;0.544118;0.764706;0.852941" dur="68s" repeatCount="indefinite"/><g transform="translate(606,222) scale(1.2)"><rect x="-8" y="-15" width="16" height="4" fill="#17171c"/><rect x="-12" y="-11" width="24" height="4" fill="#17171c"/><rect x="-16" y="-7" width="32" height="4" fill="#17171c"/><rect x="-16" y="-3" width="32" height="4" fill="#17171c"/><rect x="-16" y="1" width="32" height="4" fill="#17171c"/><rect x="-12" y="5" width="24" height="4" fill="#17171c"/><rect x="-12" y="9" width="24" height="4" fill="#17171c"/><rect x="-4" y="13" width="8" height="4" fill="#17171c"/><rect x="-4" y="-8" width="8" height="4" fill="#c9a36a"/><rect x="-8" y="-4" width="16" height="4" fill="#c9a36a"/><rect x="-8" y="0" width="16" height="4" fill="#c9a36a"/><rect x="-4" y="4" width="8" height="4" fill="#c9a36a"/><rect x="-2" y="-2" width="4" height="4" fill="#c0c6cf"/><rect x="-40" y="-18" width="16" height="4" fill="#17171c"/><rect x="-44" y="-14" width="24" height="4" fill="#17171c"/><rect x="-44" y="-10" width="24" height="4" fill="#17171c"/><rect x="-44" y="-6" width="24" height="4" fill="#17171c"/><rect x="-44" y="-2" width="24" height="4" fill="#17171c"/><rect x="-40" y="2" width="16" height="4" fill="#17171c"/><rect x="-36" y="-12" width="8" height="4" fill="#c9a36a"/><rect x="-40" y="-8" width="16" height="4" fill="#c9a36a"/><rect x="-36" y="-4" width="8" height="4" fill="#c9a36a"/><rect x="-34" y="-8" width="4" height="4" fill="#c0c6cf"/><rect x="-14" y="0" width="14" height="4" fill="#d8433f"/><rect x="-10" y="-8" width="4" height="8" fill="#d8433f"/><rect x="-8" y="-16" width="4" height="8" fill="#d8433f"/><rect x="-6" y="-24" width="4" height="8" fill="#d8433f"/><rect x="-26" y="-24" width="22" height="4" fill="#d8433f"/><rect x="-28" y="-16" width="4" height="8" fill="#d8433f"/><rect x="-24" y="-10" width="4" height="6" fill="#d8433f"/><rect x="-18" y="-4" width="4" height="6" fill="#d8433f"/><rect x="-30" y="-26" width="4" height="10" fill="#d8433f"/><rect x="-33" y="-16" width="4" height="10" fill="#d8433f"/><rect x="-12" y="-30" width="14" height="4" fill="#26262c"/><rect x="-38" y="-32" width="12" height="4" fill="#26262c"/><rect x="-38" y="-28" width="4" height="8" fill="#26262c"/><rect x="-16" y="2" width="10" height="4" fill="#c0c6cf"/><g opacity="0"><rect x="-9" y="12" width="18" height="3" fill="#17171c"/><animate attributeName="opacity" calcMode="discrete" values="0;1;0;1;0;1;0" keyTimes="0;0.147059;0.235294;0.455882;0.544118;0.764706;0.852941" dur="68s" repeatCount="indefinite"/></g></g></g><g opacity="1"><animate attributeName="opacity" calcMode="discrete" values="1;0;1;0;1;0;1" keyTimes="0;0.147059;0.235294;0.455882;0.544118;0.764706;0.852941" dur="68s" repeatCount="indefinite"/><g><rect x="624" y="238" width="4" height="4" fill="#d9c9a8"/><rect x="632" y="232" width="4" height="4" fill="#d9c9a8"/><rect x="640" y="240" width="4" height="4" fill="#d9c9a8"/><animate attributeName="opacity" calcMode="discrete" values="1;0" keyTimes="0;0.5" dur="0.4s" repeatCount="indefinite"/></g></g><g transform="translate(630,152)" opacity="0"><rect x="0" y="0" width="20" height="24" fill="#fffef2"/><rect x="8" y="4" width="4" height="10" fill="#26262c"/><rect x="8" y="17" width="4" height="4" fill="#26262c"/><animate attributeName="opacity" calcMode="discrete" values="0;1;0;1;0;1;0" keyTimes="0;0.147059;0.161765;0.455882;0.470588;0.764706;0.779412" dur="68s" repeatCount="indefinite"/></g><g transform="translate(634,222)" opacity="0"><animate attributeName="opacity" calcMode="discrete" values="0;1;0;1;0;1;0" keyTimes="0;0.161765;0.182353;0.470588;0.491176;0.779412;0.8" dur="68s" repeatCount="indefinite"/><g><animateTransform attributeName="transform" type="rotate" calcMode="discrete" values="-18;14" keyTimes="0;0.5" dur="0.6s" repeatCount="indefinite"/><rect x="-2" y="-18" width="4" height="18" fill="#3f7fd4"/><rect x="-4" y="-22" width="8" height="4" fill="#3f7fd4"/></g></g><g transform="translate(646,198)" opacity="0"><animate attributeName="opacity" calcMode="discrete" values="0;1;0;1;0;1;0" keyTimes="0;0.182353;0.202941;0.491176;0.511765;0.8;0.820588" dur="68s" repeatCount="indefinite"/><rect x="-8" y="-12" width="16" height="4" fill="#2b2b31"/><rect x="-8" y="4" width="16" height="4" fill="#2b2b31"/><rect x="-12" y="-8" width="4" height="12" fill="#2b2b31"/><rect x="8" y="-8" width="4" height="12" fill="#2b2b31"/></g><g transform="translate(648,206)" opacity="0"><animate attributeName="opacity" calcMode="discrete" values="0;1;0;1;0;1;0" keyTimes="0;0.202941;0.232353;0.511765;0.541176;0.820588;0.85" dur="68s" repeatCount="indefinite"/><rect x="-6" y="22" width="16" height="4" fill="#d8433f"/><rect x="0" y="0" width="4" height="22" fill="#d8433f"/><rect x="-6" y="-6" width="16" height="4" fill="#26262c"><animate attributeName="y" calcMode="discrete" values="-6;8" keyTimes="0;0.5" dur="0.5s" repeatCount="indefinite"/></rect></g><g opacity="0"><animate attributeName="opacity" calcMode="discrete" values="0;1;0;1;0;1;0" keyTimes="0;0.229412;0.244118;0.538235;0.552941;0.847059;0.861765" dur="68s" repeatCount="indefinite"/><rect x="584" y="186" width="4" height="4" fill="#2f9e57"/><rect x="616" y="180" width="4" height="4" fill="#2f9e57"/><rect x="602" y="208" width="4" height="4" fill="#2f9e57"/></g></svg>